<?xml version="1.0" encoding="UTF-8"?>
<svg id="Calque_1" data-name="Calque 1" xmlns="http://www.w3.org/2000/svg" viewBox="0 0 250 250">
  <defs>
    <style>
      .cls-1 {
        fill: #1d1d1b;
      }
    </style>
  </defs>
  <path class="cls-1" d="m119.77,197.98c-1.52-1.29-6.65-2.61-15.37-3.96-8.72-1.34-18.79-2.49-30.19-3.43-4.35-.36-8.75-.64-13.16-.91-.03-5.09-.09-10.4-.18-15.97-.37-23.2-1.02-46.06-1.96-68.6-.59-14.22-1.27-27.37-2.02-39.49.24.02.46.04.7.05,12.28.83,24.1,1.31,35.47,1.45,11.36.13,18.93-.16,22.72-.87,3.13-.56,5.4-4.12,6.83-10.67,1.43-6.55,2.12-13.68,2.07-21.4-.05-7.72-.79-14.76-2.21-21.13s-3.46-9.68-6.09-9.94c-7.44-.67-16.94-.8-28.52-.4-11.58.4-22.99,1.11-34.24,2.15s-21.18,2.28-29.79,3.76c-8.61,1.47-13.66,2.92-15.17,4.33-2.02,1.38-3.05,7.85-3.09,19.41-.02,6.56.27,11.98.85,16.34-1.29,19.23-2.3,40.67-3.03,64.36-.76,24.61-1.2,48.3-1.32,71.06-.07,12.94-.01,23.41.17,31.45-.01.6-.05,1.17-.06,1.78-.03,3.73.17,7.3.56,10.73.04.56.08,1.09.12,1.58.09,1.14.31,2.21.59,3.24.24,1.35.51,2.69.82,3.99,1.45,5.98,3.75,9.23,6.92,9.74,3.49.59,10.17.86,19.99.82.32,0,.63.04.96.04.26,0,.5-.04.76-.05.45,0,.87,0,1.33,0,11.51-.12,23.5-.56,35.95-1.32,12.45-.76,23.68-1.82,33.7-3.18,10.02-1.36,15.45-3,16.29-4.94,1.86-4.31,2.78-11.74,2.73-22.3s-1.09-16.47-3.13-17.72Z"/>
  <path class="cls-1" d="m246.02,119.29c-1.26-2.51-6.53-7.87-15.81-16.08-9.28-8.21-19.54-16.71-30.75-25.5-11.21-8.79-21.85-16.64-31.89-23.55-10.05-6.91-16.37-10.36-18.97-10.36-3.32-.81-9.29,4.17-17.9,14.94-8.61,10.77-13.19,18.98-13.73,24.63-.12,1.84,2.09,5.22,6.51,10.08-3.21.13-6.44.23-9.62.44-10.4.68-19.63,1.68-27.68,3-8.05,1.32-12.77,2.8-14.14,4.44-2.6,1.73-4.1,9.58-4.5,23.55-.4,13.97.6,23.78,2.98,29.42,1.01,2.46,6.09,4.53,15.22,6.21,9.14,1.68,19.32,2.98,30.55,3.89,2.66.22,5.22.34,7.83.51-4.87,5.21-7.29,8.78-7.16,10.64.54,5.74,5.11,14,13.73,24.76,8.61,10.77,14.58,15.75,17.9,14.94,2.15.09,7.4-2.53,15.74-7.87,8.34-5.34,17.58-11.84,27.72-19.51,10.14-7.67,20.19-15.79,30.15-24.36s17.67-16.13,23.15-22.68c1.97-2.42,2.82-6.08,2.56-10.97s-.9-8.41-1.88-10.56Z"/>
</svg>