<svg width="21" height="24" viewBox="0 0 21 24" fill="none" xmlns="http://www.w3.org/2000/svg">
<g clip-path="url(#clip0_37_1262)">
<path d="M19.6468 8.1816C19.5076 8.2896 17.05 9.6744 17.05 12.7536C17.05 16.3152 20.1772 17.5752 20.2708 17.6064C20.2564 17.6832 19.774 19.332 18.622 21.012C17.5948 22.4904 16.522 23.9664 14.89 23.9664C13.258 23.9664 12.838 23.0184 10.954 23.0184C9.11802 23.0184 8.46522 23.9976 6.97242 23.9976C5.47962 23.9976 4.43802 22.6296 3.24042 20.9496C1.85322 18.9768 0.732422 15.912 0.732422 13.0032C0.732422 8.3376 3.76602 5.8632 6.75162 5.8632C8.33802 5.8632 9.66042 6.9048 10.6564 6.9048C11.6044 6.9048 13.0828 5.8008 14.8876 5.8008C15.5716 5.8008 18.0292 5.8632 19.6468 8.1816ZM14.0308 3.8256C14.7772 2.94 15.3052 1.7112 15.3052 0.4824C15.3052 0.312 15.2908 0.1392 15.2596 0C14.0452 0.0456 12.6004 0.8088 11.7292 1.8192C11.0452 2.5968 10.4068 3.8256 10.4068 5.0712C10.4068 5.2584 10.438 5.4456 10.4524 5.5056C10.5292 5.52 10.654 5.5368 10.7788 5.5368C11.8684 5.5368 13.2388 4.8072 14.0308 3.8256Z" fill="black"/>
</g>
<defs>
<clipPath id="clip0_37_1262">
<rect width="19.536" height="24" fill="white" transform="translate(0.732422)"/>
</clipPath>
</defs>
</svg>
