<?xml version="1.0" encoding="UTF-8"?>
<svg id="Calque_1" data-name="Calque 1" xmlns="http://www.w3.org/2000/svg" viewBox="0 0 250 250">
  <defs>
    <style>
      .cls-1 {
        fill: #1d1d1b;
      }
    </style>
  </defs>
  <path class="cls-1" d="m243.34,91.37c-1.37-3.34-8.26-6.15-20.66-8.43-12.4-2.29-26.23-4.05-41.47-5.28-3.55-.29-7.06-.54-10.55-.77,6.56-7.03,9.82-11.84,9.65-14.36-.73-7.79-6.94-19-18.63-33.61-11.69-14.61-19.79-21.37-24.29-20.28-2.92-.12-10.05,3.44-21.37,10.69-11.33,7.25-23.87,16.07-37.63,26.49-13.76,10.41-27.4,21.43-40.92,33.06-13.52,11.63-23.99,21.89-31.42,30.78-2.68,3.29-3.84,8.25-3.47,14.89.36,6.64,1.22,11.42,2.56,14.34,1.71,3.41,8.86,10.69,21.46,21.83,12.6,11.14,26.52,22.68,41.74,34.62,15.22,11.93,29.65,22.59,43.29,31.97,13.64,9.38,22.22,14.07,25.76,14.07,4.5,1.1,12.6-5.66,24.29-20.28,11.69-14.61,17.9-25.76,18.63-33.43.17-2.48-2.81-7.05-8.77-13.61,4.35-.18,8.68-.39,12.98-.67,14.12-.93,26.64-2.29,37.57-4.08,10.93-1.79,17.33-3.8,19.19-6.02,3.53-2.35,5.56-13,6.1-31.97.54-18.96-.81-32.28-4.05-39.94Z"/>
</svg>