<?xml version="1.0" encoding="UTF-8"?>
<svg id="Calque_1" data-name="Calque 1" xmlns="http://www.w3.org/2000/svg" viewBox="0 0 250 250">
  <defs>
    <style>
      .cls-1 {
        fill: #1d1d1b;
      }
    </style>
  </defs>
  <path class="cls-1" d="m125,2.5C57.34,2.5,2.5,57.34,2.5,125s54.84,122.5,122.5,122.5,122.5-54.84,122.5-122.5S192.66,2.5,125,2.5Zm1.79,46.85c12.95,0,25.19,3.01,36.08,8.36-4.99,4.72-12.07,11.72-21.27,21-12.77,12.91-25.87,26.52-39.27,40.84-13.4,14.32-25.34,27.56-35.75,39.67-4.55,5.29-8.1,9.67-10.67,13.13-7.02-12.08-11.04-26.11-11.04-41.09,0-45.24,36.68-81.92,81.92-81.92Zm0,163.83c-14.8,0-28.69-3.93-40.67-10.8,3.35-2.55,7.82-6.25,13.42-11.14,10.63-9.25,22.53-20.14,35.73-32.61,13.19-12.5,26.37-25.39,39.56-38.68,9.75-9.85,18.05-18.52,24.91-26.01,5.74,11.19,8.98,23.88,8.98,37.33,0,45.24-36.68,81.91-81.92,81.91Z"/>
</svg>
