<?xml version="1.0" encoding="UTF-8"?>
<svg id="Calque_1" data-name="Calque 1" xmlns="http://www.w3.org/2000/svg" viewBox="0 0 250 250">
  <defs>
    <style>
      .cls-1 {
        fill: #1d1d1b;
      }
    </style>
  </defs>
  <path class="cls-1" d="m230.99,76.87c-.11-8.37-.45-16.23-.93-23.55-.86-13.68-2.36-25.5-4.41-35.48-1.35-5.35-12.52-9.31-33.53-11.89-21.05-2.58-44-3.7-68.9-3.4-24.86.34-47.82,2.21-68.87,5.57-21.01,3.4-32.19,8.34-33.54,14.81-1.16,5.76-1.76,15.55-1.87,29.39-.07,5.23-.04,11.03.07,17.38.41,23.29,1.94,47.48,4.56,72.64,2.65,25.12,6.43,47.89,11.33,68.34,4.9,20.45,10.92,31.82,18.06,34.06,2.84.93,6.02,1.76,9.57,2.51,6.77-1.42,17.27-9.01,31.48-22.73,6.48-6.23,11.97-12.04,16.47-17.43,7.61-9.1,21.44-9.1,29.05,0,4.51,5.39,10,11.2,16.47,17.43,17.57,16.97,29.46,24.53,35.67,22.73.19,0,.41-.04.64-.04.52-.11,1.01-.22,1.5-.34.04,0,.07-.04.07-.04,6.84-1.46,11.22-3.29,13.12-5.46,1.2-.79,2.35-2.02,3.48-3.74v-.04c3.4-5.12,6.54-14.39,9.42-27.89,3.81-18.02,6.73-38.66,8.71-61.95,2.02-23.25,2.8-46.88,2.39-70.88Z"/>
</svg>