<?xml version="1.0" encoding="UTF-8"?>
<svg id="Calque_1" data-name="Calque 1" xmlns="http://www.w3.org/2000/svg" viewBox="0 0 250 250">
  <defs>
    <style>
      .cls-1 {
        fill: #1d1d1b;
      }
    </style>
  </defs>
  <path class="cls-1" d="m219.59,12H30.41c-15.4,0-27.91,12.47-27.91,27.88v170.22c0,15.4,12.5,27.91,27.91,27.91h189.19c15.41,0,27.91-12.5,27.91-27.91V39.87c0-15.4-12.5-27.88-27.91-27.88Zm5.56,175.22c0,10.17-8.26,18.43-18.43,18.43H43.27c-10.17,0-18.43-8.26-18.43-18.43v-90.96c0-10.17,8.26-18.43,18.43-18.43h163.46c10.17,0,18.43,8.26,18.43,18.43v90.96Z"/>
  <path class="cls-1" d="m75.33,97.87h-19.65c-5.29,0-9.57,4.28-9.57,9.57v19.68c0,5.26,4.28,9.57,9.57,9.57h19.65c5.29,0,9.57-4.31,9.57-9.57v-19.68c0-5.29-4.28-9.57-9.57-9.57Z"/>
  <path class="cls-1" d="m137.19,97.87h-19.68c-5.26,0-9.54,4.28-9.54,9.57v19.68c0,5.26,4.28,9.57,9.54,9.57h19.68c5.29,0,9.57-4.31,9.57-9.57v-19.68c0-5.29-4.28-9.57-9.57-9.57Z"/>
  <path class="cls-1" d="m199.05,97.87h-19.68c-5.27,0-9.57,4.28-9.57,9.57v19.68c0,5.26,4.31,9.57,9.57,9.57h19.68c5.29,0,9.57-4.31,9.57-9.57v-19.68c0-5.29-4.28-9.57-9.57-9.57Z"/>
</svg>