<?xml version="1.0" encoding="UTF-8"?>
<svg id="Calque_1" data-name="Calque 1" xmlns="http://www.w3.org/2000/svg" viewBox="0 0 250 250">
  <defs>
    <style>
      .cls-1 {
        fill: #1d1d1b;
      }
    </style>
  </defs>
  <path class="cls-1" d="m125.1,55.66c24.86,0,48,2,61.92,5.34,4.54,1.09,8.03,4.59,9.12,9.12,7.09,29.5,7.09,60.69,0,90.2-1.09,4.54-4.59,8.03-9.12,9.12-13.9,3.34-37.05,5.34-61.91,5.34h-1.38s-.04,0-.06,0c-4.3,0-8.45,1.35-11.9,3.92-.25.17-.99.58-1.38.8-3.26,1.82-7.27,3.26-11.12,4.55-10.82,3.62-22.77,6.42-35.52,8.33l-2.63.4c-1.45.22-2.79.43-4.08.61.35-.45.71-.91,1.09-1.38,6.17-7.78,5.72-18.9-1.06-26.16-1.47-1.57-2.51-3.49-3-5.54-7.09-29.5-7.09-60.69,0-90.2,1.09-4.54,4.59-8.03,9.12-9.12,13.92-3.34,37.06-5.34,61.92-5.34m0-44c-31.89,0-63.78,2.49-84.54,7.48-15.04,3.62-26.76,15.33-30.38,30.38C.2,91.04.2,134.38,10.17,175.91c1.7,7.06,5.19,13.37,9.96,18.47-9.16,11.54-13.59,19.03-15.41,22.04-2.72,4.48-3.25,9.35.11,14.53,4.16,6.42,11.12,7.4,18.95,7.4,2.08,0,4.22-.07,6.39-.12,7.38-.18,13.51-1.3,20.81-2.39,16.7-2.5,33.36-6.25,49.38-11.61,6.3-2.11,12.64-4.44,18.45-7.69,1.34-.75,2.98-1.67,4.47-2.77.61,0,1.22,0,1.82,0,31.89,0,63.78-2.49,84.54-7.48,15.04-3.61,26.76-15.33,30.38-30.38,9.98-41.52,9.98-84.86,0-126.39-3.61-15.04-15.33-26.76-30.38-30.38-20.76-4.99-52.65-7.48-84.54-7.48h0Z"/>
</svg>