<?xml version="1.0" encoding="UTF-8"?>
<svg id="Calque_1" data-name="Calque 1" xmlns="http://www.w3.org/2000/svg" viewBox="0 0 250 250">
  <defs>
    <style>
      .cls-1 {
        fill: #1d1d1b;
      }
    </style>
  </defs>
  <path class="cls-1" d="M76.65 247.38C71.91 248.53 63.39 241.42 51.1 226.05C38.8 210.68 32.27 198.9 31.5 190.7C31.24 186.99 37.97 178.6 51.67 165.53C65.37 152.47 80.62 138.95 97.39 124.99C80.61 111.16 65.37 97.6799 51.67 84.5499C37.97 71.4199 31.24 62.9399 31.5 59.0899C32.27 51.0199 38.8 39.2999 51.1 23.9299C63.4 8.55992 71.91 1.44993 76.65 2.59993C80.36 2.59993 89.39 7.52992 103.74 17.3899C118.08 27.2499 133.26 38.4599 149.27 51.0099C165.28 63.5599 179.91 75.6999 193.17 87.4199C206.43 99.1399 213.95 106.79 215.74 110.38C217.15 113.45 218.05 118.48 218.43 125.46C218.81 132.44 217.6 137.66 214.78 141.12C206.97 150.47 195.95 161.26 181.74 173.49C167.52 185.72 153.18 197.31 138.71 208.26C124.24 219.21 111.04 228.5 99.13 236.12C87.22 243.74 79.73 247.49 76.65 247.36V247.38Z"/>
</svg>