<?xml version="1.0" encoding="UTF-8"?>
<svg id="Calque_1" data-name="Calque 1" xmlns="http://www.w3.org/2000/svg" viewBox="0 0 250 250">
  <defs>
    <style>
      .cls-1 {
        fill: #1d1d1b;
      }
    </style>
  </defs>
  <path class="cls-1" d="M2.62008 76.65C1.47008 71.91 8.58008 63.39 23.9501 51.1C39.3201 38.8 51.1001 32.27 59.3001 31.5C63.0101 31.24 71.4001 37.97 84.4701 51.67C97.5301 65.37 111.05 80.62 125.01 97.39C138.84 80.61 152.32 65.37 165.45 51.67C178.58 37.97 187.06 31.24 190.91 31.5C198.98 32.27 210.7 38.8 226.07 51.1C241.44 63.4 248.55 71.91 247.4 76.65C247.4 80.36 242.47 89.39 232.61 103.74C222.75 118.08 211.54 133.26 198.99 149.27C186.44 165.28 174.3 179.91 162.58 193.17C150.86 206.43 143.21 213.95 139.62 215.74C136.55 217.15 131.52 218.05 124.54 218.43C117.56 218.81 112.34 217.6 108.88 214.78C99.5301 206.97 88.7401 195.95 76.5101 181.74C64.2801 167.52 52.6901 153.18 41.7401 138.71C30.7901 124.24 21.5001 111.04 13.8801 99.13C6.26008 87.22 2.51008 79.73 2.64008 76.65H2.62008Z"/>
</svg>