<?xml version="1.0" encoding="UTF-8"?>
<svg id="Calque_1" data-name="Calque 1" xmlns="http://www.w3.org/2000/svg" viewBox="0 0 250 250">
  <defs>
    <style>
      .cls-1 {
        fill: #1d1d1b;
      }
    </style>
  </defs>
  <path class="cls-1" d="M247.38 173.35C248.53 178.09 241.42 186.61 226.05 198.9C210.68 211.2 198.9 217.73 190.7 218.5C186.99 218.76 178.6 212.03 165.53 198.33C152.47 184.63 138.95 169.38 124.99 152.61C111.16 169.39 97.6799 184.63 84.5499 198.33C71.4199 212.03 62.9399 218.76 59.0899 218.5C51.0199 217.73 39.2999 211.2 23.9299 198.9C8.55992 186.6 1.44993 178.09 2.59993 173.35C2.59993 169.64 7.52992 160.61 17.3899 146.26C27.2499 131.92 38.4599 116.74 51.0099 100.73C63.5599 84.72 75.6999 70.09 87.4199 56.83C99.1399 43.57 106.79 36.05 110.38 34.26C113.45 32.85 118.48 31.95 125.46 31.57C132.44 31.19 137.66 32.4 141.12 35.22C150.47 43.03 161.26 54.05 173.49 68.26C185.72 82.48 197.31 96.82 208.26 111.29C219.21 125.76 228.5 138.96 236.12 150.87C243.74 162.78 247.49 170.27 247.36 173.35H247.38Z"/>
</svg>