<?xml version="1.0" encoding="UTF-8"?>
<svg id="Calque_1" data-name="Calque 1" xmlns="http://www.w3.org/2000/svg" viewBox="0 0 250 250">
  <defs>
    <style>
      .cls-1 {
        fill: #1d1d1b;
      }
    </style>
  </defs>
  <path class="cls-1" d="m173.35,2.62c4.74-1.15,13.26,5.96,25.55,21.33,12.3,15.37,18.83,27.15,19.6,35.35.26,3.71-6.47,12.1-20.17,25.17-13.7,13.06-28.95,26.58-45.72,40.54,16.78,13.83,32.02,27.31,45.72,40.44,13.7,13.13,20.43,21.61,20.17,25.46-.77,8.07-7.3,19.79-19.6,35.16-12.3,15.37-20.81,22.48-25.55,21.33-3.71,0-12.74-4.93-27.09-14.79-14.34-9.86-29.52-21.07-45.53-33.62-16.01-12.55-30.64-24.69-43.9-36.41-13.26-11.72-20.78-19.37-22.57-22.96-1.41-3.07-2.31-8.1-2.69-15.08s.83-12.2,3.65-15.66c7.81-9.35,18.83-20.14,33.04-32.37,14.22-12.23,28.56-23.82,43.03-34.77,14.47-10.95,27.67-20.24,39.58-27.86,11.91-7.62,19.4-11.37,22.48-11.24Z"/>
</svg>