<?xml version="1.0" encoding="UTF-8"?>
<svg id="Calque_1" data-name="Calque 1" xmlns="http://www.w3.org/2000/svg" viewBox="0 0 250 250">
  <defs>
    <style>
      .cls-1 {
        fill: #1d1d1b;
      }
    </style>
  </defs>
  <path class="cls-1" d="m246.84,147.45c-.26-2.22-3.57-3.92-9.93-5.12-6.36-1.2-13.4-1.82-21.11-1.86-7.71-.04-14.84.54-21.38,1.74s-10.1,3.11-10.66,5.74c-.71,3.19-1,9.56-.87,19.11.06,4.3.2,8.69.42,13.16.32,6.61-5.07,12.06-11.68,11.7-8.44-.46-17.34-.89-26.69-1.28-22.52-.94-45.37-1.59-68.54-1.96-1.38-.02-2.74-.04-4.08-.06-6.01-.08-10.86-4.93-10.94-10.94-.02-1.29-.04-2.59-.06-3.91-.36-23.18-1.02-46.02-1.96-68.55-.39-9.42-.82-18.38-1.29-26.88-.36-6.6,5.09-12.01,11.69-11.67,6.2.32,12.26.52,18.18.6,10.21.13,17.01-.16,20.41-.87,2.81-.56,4.85-4.12,6.13-10.66,1.28-6.54,1.9-13.67,1.86-21.38-.04-7.71-.71-14.75-1.99-21.11-1.28-6.36-3.1-9.67-5.47-9.93-6.68-.67-15.22-.8-25.61-.4-10.4.4-20.65,1.11-30.75,2.14-10.1,1.03-19.02,2.28-26.75,3.75-7.73,1.47-12.27,2.91-13.62,4.33-.98.74-1.69,3.02-2.15,6.72-1.1,5.25-2.08,14.16-2.94,26.76-1.36,19.78-2.42,41.97-3.17,66.56-.76,24.59-1.2,48.26-1.32,71-.07,13.3,0,23.92.19,32.04-.02.39-.07.77-.07,1.16-.03,1.98.09,3.9.3,5.79.11,2.56.24,4.76.39,6.51.4,4.9,2.5,8.73,6.25,11.55,2.75,3.22,6.36,5.04,10.88,5.41,1.29.11,2.88.21,4.61.29,2.44.36,4.93.59,7.52.56,1.08-.02,2.12-.12,3.18-.2,7.87.16,17.88.21,30.2.15,22.74-.12,46.41-.56,71-1.32s46.78-1.82,66.56-3.17c12.28-.84,21.07-1.8,26.37-2.86,3.93-.43,6.34-1.11,7.11-2.06,1.41-1.26,2.86-5.52,4.33-12.76s2.72-15.59,3.75-25.05c1.03-9.46,1.74-19.06,2.14-28.79.4-9.73.26-17.73-.4-23.98Z"/>
  <path class="cls-1" d="m142.81,115.83c13.25,13.31,21.79,19.7,25.56,19.17,2.71.03,8.07-2.43,16.15-7.45,1.72-1.03,3.52-2.21,5.45-3.49,11.16-7.33,23.47-16.3,37.04-26.93,3.57-2.8,7.12-5.62,10.65-8.48,5.48-4.44,8.68-11.1,8.74-18.15v-.11c.1-13.87.03-25.09-.19-33.7.06-.62.09-1.25.09-1.9.03-2.28-.09-4.49-.37-6.64-.1-2.59-.22-4.77-.37-6.55-.43-5.27-2.68-9.41-6.73-12.44-2.93-3.43-6.79-5.33-11.63-5.74-1.28-.12-2.78-.22-4.46-.31h-.03c-2.74-.44-5.58-.65-8.51-.59-1.31.03-2.62.09-3.9.19-5.47-.09-11.92-.14-19.36-.15-6.53,0-12.76,2.7-17.24,7.46-3.92,4.17-7.86,8.43-11.79,12.79-12.56,13.84-23.41,26.81-32.54,38.9-.75,1-1.5,2-2.18,2.93-7.58,10.41-10.69,17.15-9.32,20.17,3.37,7.39,11.69,17.71,24.94,31.02Z"/>
  <path class="cls-1" d="m113.61,96.92c-.18.29-.33.62-.4.96-1.51,3.64-2.94,7.35-4.38,11.18-2.13,5.74-3.82,10.92-5.15,15.59-1.18,4.23-1.76,11.84-1.62,12.94.22,2.83,1.69,6.91,4.37,12.13,2.72,5.22,4.82,7.94,6.1,8.09,1.18.4,4.15-.29,9.04-2.1,4.85-1.8,10.26-4.08,16.21-6.76,5.33-2.43,10.55-4.93,15.81-7.54h.04c.48-.07.92-.26,1.28-.59.04,0,.04-.04.07-.04.51-.48.84-1.18.84-1.91,0-.85-.4-1.62-1.03-2.1h-.04c-.26-.15-.55-.26-.84-.4-1.24-.85-3-2.1-5.04-3.7-2.79-2.19-7.86-6.42-16-15.88-4.1-4.76-9.18-11.07-14.59-18.92-.04-.04-.04-.07-.04-.11-.07-.18-.15-.4-.22-.59-.4-.81-1.29-1.4-2.28-1.4-.88,0-1.69.48-2.17,1.14Z"/>
</svg>