<?xml version="1.0" encoding="UTF-8"?>
<svg id="Calque_1" data-name="Calque 1" xmlns="http://www.w3.org/2000/svg" viewBox="0 0 250 250">
  <defs>
    <style>
      .cls-1 {
        fill: #1d1d1b;
      }
    </style>
  </defs>
  <path class="cls-1" d="m7.61,177.58c6.82-11.68,18.66-21.22,35.53-28.62,21.53-9.52,46.04-14.02,73.54-13.49,27.51.52,52.46,5.01,74.86,13.46,8.66,3.27,17.21,7.42,25.66,12.45,8.45,5.03,15.7,10.95,21.75,17.75,7.15,8.08,9.81,17.44,8,28.05-1.33,7.68-5.79,13.6-13.38,17.76-7.59,4.16-15.09,4.29-22.48.4-42.78-22.55-75.86-31.88-99.23-28.01-23.37,3.87-42.24,9.22-56.61,16.04-9.31,4.24-18.31,7.06-27,8.46-8.69,1.4-15.86-2.72-21.52-12.37-5.92-10.23-5.63-20.86.87-31.88Z"/>
  <g>
    <path class="cls-1" d="m200.57,98.2c-10.46-1.78-18.9-6.83-25.32-15.16-6.42-8.32-8.74-17.83-6.95-28.53,1.66-10.34,6.75-18.72,15.24-25.14,8.5-6.42,18.1-8.74,28.8-6.95,7.85,1.42,14.77,4.43,20.77,9.01,6,4.58,9.89,10.85,11.68,18.81,3.21,13.67.09,25.62-9.36,35.84-9.45,10.23-21.07,14.26-34.86,12.12Z"/>
    <path class="cls-1" d="m36.84,98.2c-10.46-1.78-18.9-6.83-25.32-15.16-6.42-8.32-8.74-17.83-6.95-28.53,1.66-10.34,6.75-18.72,15.24-25.14,8.5-6.42,18.1-8.74,28.8-6.95,7.85,1.42,14.77,4.43,20.77,9.01,6,4.58,9.89,10.85,11.68,18.81,3.21,13.67.09,25.62-9.36,35.84-9.45,10.23-21.07,14.26-34.86,12.12Z"/>
  </g>
</svg>