<?xml version="1.0" encoding="UTF-8"?>
<svg id="Calque_1" data-name="Calque 1" xmlns="http://www.w3.org/2000/svg" viewBox="0 0 250 250">
  <defs>
    <style>
      .cls-1 {
        fill: #1d1d1b;
      }
    </style>
  </defs>
  <path class="cls-1" d="m222.29,48.76c-21.44-26-51.52-40.66-90.14-44.01-32.09-2.84-60.2,5.98-84.36,26.38C23.62,51.56,9.07,76.8,4.16,106.88c-5.22,32.36,1.9,61.89,21.3,88.51,19.43,26.62,46.05,42.77,79.9,48.41,35.09,5.84,65.87-1.31,92.35-21.47,26.49-20.16,42.42-46.68,47.85-79.56,5.95-36.68-1.8-68.01-23.27-94.01Zm-53.32,78.07c9.27,9.13,15.32,15.42,18.15,18.84,2.28,2.84,2.04,6.98-.76,12.48-.31.62-.69,1.24-1.04,1.83-1.73,4.32-5.5,9.34-11.38,14.97-4.46,4.53-9.06,8.3-13.86,11.2-5.19,3.11-8.95,3.77-11.31,1.9-6.47-5.26-14.28-12.38-23.41-21.33-.62.62-1.21,1.24-1.8,1.87-9.13,9.27-15.42,15.32-18.88,18.15-2.8,2.28-6.95,2.04-12.45-.76-.62-.31-1.24-.69-1.87-1.04-4.32-1.73-9.3-5.5-14.94-11.38-4.56-4.46-8.3-9.06-11.2-13.86-3.15-5.19-3.77-8.95-1.94-11.31,5.26-6.47,12.38-14.28,21.33-23.41-8.96-9.13-16.08-16.91-21.33-23.37-1.83-2.39-1.21-6.15,1.94-11.31,2.91-4.81,6.64-9.44,11.17-13.86,5.67-5.88,10.65-9.68,14.97-11.38.62-.35,1.25-.73,1.87-1.04,5.5-2.8,9.65-3.08,12.45-.76,3.46,2.8,9.75,8.85,18.88,18.15.59.59,1.18,1.24,1.8,1.83,9.13-8.92,16.94-16.04,23.41-21.3,2.35-1.87,6.12-1.21,11.31,1.9,4.81,2.9,9.4,6.64,13.86,11.2,5.88,5.64,9.65,10.61,11.38,14.94.35.62.73,1.24,1.04,1.87,2.8,5.5,3.04,9.65.76,12.45-2.83,3.46-8.89,9.75-18.15,18.88-.62.59-1.24,1.21-1.87,1.8.62.62,1.25,1.21,1.87,1.83Z"/>
</svg>