<?xml version="1.0" encoding="UTF-8"?>
<svg id="Calque_1" data-name="Calque 1" xmlns="http://www.w3.org/2000/svg" viewBox="0 0 250 250">
  <defs>
    <style>
      .cls-1 {
        fill: #1d1d1b;
      }
    </style>
  </defs>
  <path class="cls-1" d="m19.05,133.11c-4.02-3.61-8.41-6.6-13.03-8.72-4.65-2.13-4.68-8.83-.17-11.21,12.86-6.81,14.04-13.1,3.57-19.18-4.59-2.68-3.97-9.5,1.05-11.32,31.74-11.58,80.49-46.04,101.99-72.11,3.38-4.12,10.03-2.44,11.03,2.78,2.22,11.88,8.54,12.88,19.25,3.01,3.76-3.46,10.07-1.18,10.52,3.91,1.66,18.09,14.83,37.4,31.05,46.04-9.41,4.61-20.71,9.04-32.96,13.02.37-1.2.88-2.44,1.46-3.69-7.54-7.46-13.9-16.4-18.48-26.15-3.96.41-7.9.11-11.82-.95-1.73-.46-4.23-1.32-7.04-2.86-20.49,18.99-48.14,38.56-72.87,51.53.02.16.04.32.07.48-5.74.52-8.89,7.24-5.23,12.01,1.32,1.73,2.38,3.34,3.1,4.84.66,1.32,1.1,2.55,1.27,3.69,1.05,6.18-4.58,9.81-16.97,11.04-2.62.26-4.67,1.79-5.79,3.82Z"/>
  <path class="cls-1" d="m229.06,197.35c-8.4-10.84-4.48-16.96,11.96-18.6,5.78-.56,8.6-7.62,4.63-11.86-14.75-15.75-21.13-43.22-14.85-63.86,1.71-5.54-3.94-10.62-9.37-8.61-15.47,5.79-21.68,2.03-18.93-11.41,1.2-5.94-5.05-10.52-10.38-7.66-33.77,18.17-99.75,33.51-138.07,32.07-6.03-.23-9.63,6.66-5.94,11.43,8.41,10.86,4.48,16.96-11.96,18.6-5.77.58-8.57,7.64-4.63,11.88,14.74,15.72,21.15,43.21,14.84,63.83-1.68,5.56,3.95,10.65,9.37,8.61,15.47-5.76,21.69-2,18.94,11.43-1.21,5.91,5.07,10.52,10.38,7.66,33.76-18.19,99.75-33.51,138.07-32.07,6.03.23,9.63-6.66,5.93-11.45Zm-58.89-50.31l-4.77,14.87c-.45,1.42-.44,2.97.06,4.38l4.64,13.25c1.66,4.68-2.04,9.5-6.99,9.13l-14.51-1.06c-1.17-.1-2.37.13-3.43.63l-17.48,8.19c-4.83,2.28-10.29-1.58-9.78-6.89l.79-8.22c.22-2.29-.7-4.53-2.47-5.99l-11.75-9.61c-4.01-3.3-3.08-9.67,1.69-11.68l10.66-4.52c1.88-.8,3.33-2.41,3.92-4.38l3.74-12.55c1.43-4.74,7.27-6.49,11.04-3.27l10.2,8.62c1.44,1.24,3.36,1.82,5.27,1.58l11.78-1.42c4.99-.59,8.92,4.17,7.38,8.94Z"/>
</svg>