<?xml version="1.0" encoding="UTF-8"?>
<svg id="Calque_1" data-name="Calque 1" xmlns="http://www.w3.org/2000/svg" viewBox="0 0 250 250">
  <defs>
    <style>
      .cls-1 {
        fill: #1d1d1b;
      }
    </style>
  </defs>
  <path class="cls-1" d="m189.67,108.89c-20.03-6.44-29.01-2.53-65.44-1.92-33.81.56-43.11-2.51-65.43,3.13-14.98,3.79-24.4,6.32-29.92,14.94-7.13,11.14-4.71,27.71-1.6,48.98.56,3.86,1.07,6.51,2.09,11.77,3.83,19.86,6.87,29.25,10.61,38.57,4.63,11.54,10.34,17.96,17.17,19.22,15.56,3.03,42.62,4.29,81.25,3.8,38.63-.49,60.26-2.38,65.05-5.67,4.54-1.71,8.64-7.68,12.3-17.84,4.32-12,6.88-22.33,8.44-34.95.38-3.06.92-7.54,1.16-13.32.76-17.87,1.61-38.02-9.05-51.65-6.83-8.72-15.92-11.65-26.63-15.09Z"/>
  <path class="cls-1" d="m152.38,6.44c-10.03-2.97-19.66-3.94-30.45-3.94-20.15-.01-29.55,3.35-33.06,4.74-5.94,2.35-8.54,4.52-10.53,6.81-1.68,1.94-4.6,6.01-5.81,16.07-.71,5.91-.2,9.57,2.06,27,1.21,9.34,2.92,17.83,5.15,25.42,2.25,7.6,5.02,11.83,8.33,12.67,7.55,2,20.68,2.83,39.43,2.51,18.75-.32,29.25-1.57,31.57-3.74,2.2-1.13,4.19-5.06,5.97-11.75,1.8-6.7,3.14-14.38,4.09-23.03,1.48-13.39,1.81-20.13,1.14-26.37-.92-8.53-1.87-16.34-7.93-21.66-2.05-1.8-4.41-3.07-9.97-4.72Z"/>
</svg>