<svg width="10" height="10" viewBox="0 0 10 10" fill="none" xmlns="http://www.w3.org/2000/svg">
<g clip-path="url(#clip0_4763_9133)">
<path d="M7.58668 4.35606C6.78548 4.09846 6.42628 4.25486 4.96908 4.27926C3.61668 4.30166 3.24468 4.17886 2.35188 4.40446C1.75268 4.55606 1.37588 4.65726 1.15508 5.00206C0.869882 5.44766 0.966682 6.11046 1.09108 6.96126C1.11348 7.11566 1.13388 7.22166 1.17468 7.43206C1.32788 8.22646 1.44948 8.60206 1.59908 8.97486C1.78428 9.43646 2.01268 9.69326 2.28588 9.74366C2.90828 9.86486 3.99068 9.91526 5.53588 9.89566C7.08108 9.87606 7.94628 9.80046 8.13788 9.66886C8.31948 9.60046 8.48348 9.36166 8.62988 8.95526C8.80268 8.47526 8.90508 8.06206 8.96748 7.55726C8.98268 7.43486 9.00428 7.25566 9.01388 7.02446C9.04428 6.30966 9.07828 5.50366 8.65188 4.95846C8.37868 4.60966 8.01508 4.49246 7.58668 4.35486V4.35606Z" fill="#4C4639"/>
<path d="M6.09508 0.25721C5.69388 0.13841 5.30868 0.0996103 4.87708 0.0996103C4.07108 0.0992103 3.69508 0.23361 3.55468 0.28921C3.31708 0.38321 3.21308 0.47001 3.13348 0.56161C3.06628 0.63921 2.94948 0.80201 2.90108 1.20441C2.87268 1.44081 2.89308 1.58721 2.98348 2.28441C3.03188 2.65801 3.10028 2.99761 3.18948 3.30121C3.27948 3.60521 3.39028 3.77441 3.52268 3.80801C3.82468 3.88801 4.34988 3.92121 5.09988 3.90841C5.84988 3.89561 6.26988 3.84561 6.36268 3.75881C6.45068 3.71361 6.53028 3.55641 6.60148 3.28881C6.67348 3.02081 6.72708 2.71361 6.76508 2.36761C6.82428 1.83201 6.83748 1.56241 6.81068 1.31281C6.77388 0.97161 6.73588 0.65921 6.49348 0.44641C6.41148 0.37441 6.31708 0.32361 6.09468 0.25761L6.09508 0.25721Z" fill="#4C4639"/>
</g>
<defs>
<clipPath id="clip0_4763_9133">
<rect width="10" height="10" fill="white"/>
</clipPath>
</defs>
</svg>
