<?xml version="1.0" encoding="UTF-8"?>
<svg id="Calque_1" data-name="Calque 1" xmlns="http://www.w3.org/2000/svg" viewBox="0 0 250 250">
  <defs>
    <style>
      .cls-1 {
        fill: #1d1d1b;
      }
    </style>
  </defs>
  <path class="cls-1" d="m203.51,167.45c.31-.32.54-.63.8-.95,2.52-3.21,4.85-6.51,6.94-9.86-2.47,3.56-5.05,7.14-7.74,10.81Z"/>
  <path class="cls-1" d="m226.33,92.22c-2.87-30.88-15.68-54.56-38.48-71.05C165.06,4.66,137.68-.9,105.74,4.49c-26.49,4.44-47.39,17.46-62.68,38.99-15.28,21.56-21.73,45.01-19.41,70.33.26,2.9.63,5.73,1.15,8.52,2.06,12.01,6.13,23.02,12.16,32.97.11.2.23.4.4.57,1.72,2.61,3.55,5.28,5.5,8,3.78,5.36,7.91,10.98,12.36,16.86,9.15,12.13,18.84,24.11,29.07,36.01,10.23,11.9,19.27,21.1,27.09,27.64,2.87,2.35,7.25,3.38,13.07,3.07,5.85-.34,10.06-1.09,12.61-2.26,3.01-1.49,9.4-7.8,19.21-18.89,9.81-11.07,19.95-23.31,30.45-36.7,5.96-7.6,11.58-14.99,16.77-22.13,2.69-3.67,5.27-7.25,7.74-10.81,6.8-10.75,11.35-22.16,13.68-34.26,1.89-9.63,2.35-19.7,1.41-30.16Zm-71.13,28.76c-3.9,6.71-9.66,11.53-17.35,14.34-11.07,4.36-21.56,3.44-31.45-2.7-9.89-6.19-15.31-14.79-16.23-25.89-.49-5.02.03-9.83,1.58-14.39,1.23-3.76,3.15-7.37,5.79-10.81,5.82-7.68,13.76-11.96,23.77-12.84,2.67-.23,5.25-.26,7.68-.09,7.28.52,13.59,2.9,18.89,7,7.11,5.53,11.15,13.42,12.07,23.62.66,7.77-.92,15.02-4.76,21.76Z"/>
</svg>