<?xml version="1.0" encoding="UTF-8"?>
<svg id="Calque_1" data-name="Calque 1" xmlns="http://www.w3.org/2000/svg" viewBox="0 0 250 250">
  <defs>
    <style>
      .cls-1 {
        fill: #1d1d1b;
      }
    </style>
  </defs>
  <path class="cls-1" d="m243.45,95.84c-.32-1.2-.59-2.44-.96-3.62-3.18-10.36-7.94-15.91-14.29-16.65-7.78-.9-23.11-1.43-46-1.59-1.5-.01-3.05,0-4.56,0,.04-1.51.1-3.05.14-4.55.55-22.88.5-38.23-.16-46.03-.55-6.37-5.95-11.3-16.2-14.8-1.17-.4-2.39-.71-3.58-1.07-7.45-3.36-18.34-5.02-32.65-4.97-11.18-.28-21.6.63-31.19,2.84-10.34,2.38-15.88,6.19-16.61,11.43-1.73,14.54-2.87,33.07-3.46,55.54-1.5-.04-3.02-.1-4.51-.13-22.89-.55-38.23-.5-46.03.16-6.37.55-11.3,5.95-14.8,16.2-.4,1.17-.71,2.39-1.07,3.58-3.36,7.45-5.02,18.34-4.97,32.65-.28,11.18.63,21.6,2.84,31.19,2.38,10.34,6.19,15.88,11.43,16.61,14.53,1.72,33.05,2.87,55.49,3.46-.11,22.45.46,41,1.73,55.57.57,5.26,5.98,9.23,16.25,11.94,9.53,2.51,19.92,3.74,31.1,3.81,14.3.49,25.23-.83,32.78-3.95,1.2-.32,2.44-.59,3.61-.96,10.36-3.18,15.91-7.94,16.66-14.29.9-7.78,1.43-23.11,1.59-46,.01-1.49,0-3.01,0-4.51,22.47.11,41.03-.46,55.62-1.73,5.26-.57,9.23-5.98,11.94-16.25,2.51-9.52,3.74-19.91,3.81-31.09.49-14.3-.82-25.24-3.95-32.79Z"/>
</svg>