<svg width="72" height="72" viewBox="0 0 72 72" fill="none" xmlns="http://www.w3.org/2000/svg">
<rect width="72" height="72" rx="8" fill="#2F2F2F"/>
<path d="M28.4888 36.4338C28.4133 37.6216 28.0997 38.6367 27.5608 39.4674C27.0104 40.2994 26.0376 40.741 24.6565 40.8063C23.1883 40.86 22.0862 40.4069 21.331 39.4354C20.5746 38.4639 20.2405 37.1788 20.3378 35.5698C20.403 34.4357 20.6936 33.454 21.212 32.622C21.7304 31.79 22.6802 31.3151 24.0728 31.2076C25.5525 31.0885 26.675 31.5429 27.4635 32.5464C28.2405 33.5512 28.5861 34.8466 28.4888 36.4338Z" fill="white"/>
<path d="M51.6636 36.4338C51.5881 37.6216 51.2745 38.6367 50.7356 39.4674C50.1852 40.2994 49.2124 40.741 47.8313 40.8063C46.3631 40.86 45.261 40.4069 44.5058 39.4354C43.7494 38.4639 43.4153 37.1788 43.5126 35.5698C43.5778 34.4357 43.8684 33.454 44.3868 32.622C44.9052 31.79 45.855 31.3151 47.2476 31.2076C48.7273 31.0885 49.8498 31.5429 50.6383 32.5464C51.4153 33.5512 51.7609 34.8466 51.6636 36.4338Z" fill="white"/>
<path d="M39.9937 36.4338C39.9182 37.6216 39.6046 38.6367 39.0657 39.4674C38.5153 40.2994 37.5425 40.741 36.1614 40.8063C34.6932 40.86 33.5911 40.4069 32.8359 39.4354C32.0794 38.4639 31.7454 37.1788 31.8426 35.5698C31.9079 34.4357 32.1985 33.454 32.7169 32.622C33.2353 31.79 34.185 31.3151 35.5777 31.2076C37.0574 31.0885 38.1799 31.5429 38.9684 32.5464C39.7454 33.5512 40.091 34.8466 39.9937 36.4338Z" fill="white"/>
</svg>
