<?xml version="1.0" encoding="UTF-8"?>
<svg id="Calque_1" data-name="Calque 1" xmlns="http://www.w3.org/2000/svg" viewBox="0 0 250 250">
  <defs>
    <style>
      .cls-1 {
        fill: #1d1d1b;
      }
    </style>
  </defs>
  <path class="cls-1" d="m213.27,77.69c-.2,2.73.07,7.36.82,13.89.75,6.53,1.45,10.15,2.1,10.86.5.75,1.99,1.4,4.45,1.94,2.46.55,5.28.92,8.44,1.13,3.16.21,6.35.23,9.56.08s5.82-.55,7.82-1.17c.71-.23,1.06-2.17,1.04-5.81s-.27-7.65-.75-12.01-1.13-8.37-1.94-12.02c-.81-3.65-1.67-5.59-2.56-5.8-1.09-.28-3.19-.19-6.31.26-3.12.45-6.34,1.12-9.67,1.99-3.33.88-6.3,1.9-8.93,3.07-2.62,1.17-3.98,2.36-4.08,3.59Z"/>
  <path class="cls-1" d="m245.45,130.52c-1.02-.48-3.1-.79-6.25-.94-3.15-.15-6.43-.1-9.86.13-3.43.23-6.53.67-9.32,1.33-2.79.65-4.34,1.57-4.65,2.75-.69,2.64-1.24,7.24-1.67,13.81-.42,6.56-.38,10.25.12,11.07.36.83,1.71,1.75,4.03,2.75s5.02,1.91,8.09,2.71c3.07.8,6.2,1.43,9.38,1.88,3.18.45,5.82.56,7.9.33.74-.09,1.42-1.93,2.06-5.52.63-3.58,1.1-7.57,1.41-11.94s.38-8.44.23-12.18c-.15-3.74-.64-5.81-1.49-6.19Z"/>
  <path class="cls-1" d="m226.58,189.2c-2.8-1.49-5.8-2.87-9.01-4.13s-6.21-2.21-9-2.82-4.58-.45-5.34.5c-1.7,2.1-4.07,6.04-7.12,11.82-3.05,5.78-4.51,9.15-4.39,10.11,0,.91.84,2.33,2.54,4.24s3.79,3.9,6.25,5.95c2.46,2.05,5.05,3.97,7.76,5.76s5.06,3.02,7.04,3.7c.71.23,2.08-1.14,4.11-4.12s4.08-6.4,6.13-10.24,3.78-7.5,5.16-10.96c1.39-3.46,1.78-5.55,1.16-6.26-.73-.88-2.5-2.06-5.29-3.55Z"/>
  <path class="cls-1" d="m197.49,134.36v-.54l.1-.14c1.38-3.51,3.14-10.67,5.57-21.34,2.43-10.8,4.73-22.05,6.89-33.93,2.16-11.75,3.78-22.72,5-32.72,1.21-9.99,1.21-16.07.14-18.1-.54-.95-2.03-2.57-4.59-4.76-2.57-2.16-5.54-4.46-8.64-6.75s-6.11-4.32-8.95-6.21c-2.97-1.76-4.86-2.84-5.94-2.97-2.3-.54-7.83,1.08-16.88,4.73-8.91,3.78-18.8,8.24-29.61,13.54-6.21,2.97-12.42,6.08-18.37,9.32v-.41c.94-7.7,1.08-12.46.14-14.08-.41-.81-1.62-2.03-3.68-3.78-2.03-1.62-4.19-3.38-6.62-5.13-2.43-1.89-4.86-3.51-7.02-4.86-2.3-1.49-3.78-2.3-4.59-2.43-1.89-.41-6.21.81-13.24,3.78-7.02,2.84-14.75,6.35-23.13,10.53-6.35,3.11-12.56,6.25-18.5,9.49-1.89.95-3.78,2.03-5.71,2.97-7.7,4.19-13.1,7.43-16.2,9.59-.54.41-.95.81-1.21,1.49-.27.95-.68,2.03-.95,3.11-.67,2.57-1.49,5.54-2.29,8.78-2.97,11.38-5.67,23.13-8.24,35.55-2.57,12.05-4.46,22.99-5.81,32.85,0,.27-.17.54-.17.81-.1.68-.1,1.35-.24,1.89.14.68.41,1.22.68,1.89,2.03,3.24,5.67,8.37,11.07,15.43,1.22,1.62,2.43,3.11,3.78,4.73v.13c-3.24,8.51-6.08,17.42-8.91,26.74-3.24,10.84-5.81,20.83-7.56,30.01-1.76,9.05-1.76,14.35.14,15.97,4.19,3.51,12.29,7.43,24.17,12.02,11.75,4.59,18.81,6.35,20.83,5.13,2.02-.68,5.13-4.46,9.59-11.34,4.32-6.75,9.05-14.89,13.78-24.07,2.29-4.46,4.59-8.91,6.79-13.37,1.08-.41,2.16-.68,3.24-.95,6.08,7.83,12.42,15.67,19.18,23.77,7.56,9.08,14.85,17.18,21.51,24.21,6.75,7.02,11.21,10.8,13.64,11.21.95.27,3.11.14,6.48-.41,3.38-.54,7.02-1.22,10.84-2.03,3.78-.81,7.29-1.76,10.53-2.7,3.24-.95,5.27-1.76,6.08-2.43,1.89-1.49,4.32-7.02,7.29-16.61,2.97-9.62,5.81-20.29,8.51-32.04,2.84-11.78,5.3-22.99,7.43-33.66,2.19-10.8,3.41-18.13,3.68-21.91Z"/>
</svg>