<svg width="166" height="140" viewBox="0 0 166 140" fill="none" xmlns="http://www.w3.org/2000/svg">
<g clip-path="url(#clip0_4234_5591)">
<path d="M159.393 22.729C156.016 20.4018 152.122 18.3399 147.829 16.6036C143.476 14.8191 139.172 13.6133 135.048 12.9983C133.794 12.8175 132.624 12.721 131.551 12.721C126.029 12.721 123.376 15.2531 122.086 17.4235C121.061 19.184 119.674 22.102 117.805 26.4307C110.317 17.7973 99.9957 12.8416 87.0818 11.7323C85.7313 11.6117 84.3808 11.5514 83.0665 11.5514C77.1341 11.5514 71.5272 12.7692 66.3785 15.1687C65.3536 13.8906 64.3407 12.8175 63.3279 11.9855L63.1229 11.8167C61.7845 10.8038 60.1326 10.2974 58.2033 10.2974C56.5755 10.2974 54.6101 10.6591 52.0297 11.4308C51.5836 11.5634 51.1254 11.7081 50.6551 11.8649C50.1607 8.91073 47.7733 6.45093 43.5531 4.53374C40.5627 3.18326 37.2106 2.086 33.5692 1.27813C29.9036 0.458197 26.3345 0.0241156 22.9462 0H22.8136C17.3635 0 13.7702 1.79662 12.1666 5.32956L12.0821 5.51042C11.1175 7.81347 9.88762 11.9252 8.22364 18.4726C6.64407 24.6824 5.13684 31.2298 3.76225 37.9339C2.35148 44.7707 1.27834 51.0528 0.554869 56.5753C-0.433872 64.0391 -0.361525 68.5849 2.90614 71.2255C5.54681 73.3236 9.70675 74.9273 15.9648 76.2657C19.2324 76.9651 21.8007 77.3027 23.8144 77.3027C24.8634 77.3027 27.9744 77.3027 30.3377 75.2167C30.7115 74.9032 31.0853 74.5294 31.4711 74.0591C32.4116 74.9032 33.3401 75.699 34.2685 76.5189C33.3642 76.9289 32.484 77.375 31.652 77.8694C29.4575 79.1716 28.1673 80.6427 27.4318 82.0414C26.1054 81.4023 24.8634 81.0044 23.6335 80.8115C22.9945 80.715 22.3192 80.6668 21.5716 80.6668C20.4262 80.6668 19.1721 80.7753 17.7131 80.9924C15.6874 81.3059 13.6617 81.752 11.6963 82.3428C9.59824 82.9699 7.80162 83.6933 6.2341 84.5374C1.49538 87.0695 1.15776 90.5663 1.3748 92.3267C1.72448 95.5341 2.47206 99.5494 3.61756 104.276C4.73893 108.906 5.95677 113.452 7.24696 117.829C8.62155 122.423 9.88762 126.269 11.1055 129.585C12.7333 134.011 13.8426 136.133 15.2775 137.471C16.7244 138.882 18.7019 139.593 21.1858 139.593C22.7171 139.593 24.5499 139.352 26.9736 138.81C31.6279 137.785 34.7508 136.495 36.7886 134.782C38.6938 133.191 39.2484 131.02 39.3087 128.922C39.9478 129.308 40.5868 129.67 41.2018 130.019C43.5289 131.346 45.2411 132.045 46.7604 132.286C47.2186 132.359 47.6889 132.395 48.2194 132.395C49.1238 132.395 50.1607 132.286 51.5594 132.045C53.1511 131.756 54.7548 131.37 56.3343 130.9C57.9983 130.405 59.5538 129.814 60.9766 129.139C63.8946 127.765 65.6309 125.799 66.1253 123.303L66.1856 123.014L66.2097 122.737C66.2579 122.315 66.2821 121.856 66.2097 121.109C69.0312 122.64 72.1421 123.725 75.5666 124.292C77.3391 124.593 79.0875 124.738 80.7876 124.738C86.2136 124.738 91.2056 123.219 95.6428 120.253C96.7039 121.241 97.8615 122.17 99.1517 122.99C103.058 125.462 107.062 126.728 111.041 126.728C112.982 126.728 114.935 126.426 116.804 125.823C122.242 124.135 126.535 121.012 129.549 116.599C132.636 112.089 133.89 106.929 133.275 101.25C133.07 99.2479 132.54 97.3428 131.696 95.5462C133.058 95.3653 134.276 94.9433 135.313 94.2801C137.254 93.2311 139.292 91.0727 142.934 84.9353C145.574 80.5101 148.336 75.3614 151.398 69.1998C154.28 63.3397 157.102 57.1541 159.766 50.8116C162.419 44.4692 164.421 39.0312 165.687 34.6542L165.723 34.5095C166.82 30.3616 164.686 26.3946 159.393 22.729ZM80.9805 53.6211C81.077 52.97 81.3302 52.1862 82.3672 51.3663C82.9098 50.9443 83.3921 50.7634 84.0312 50.7634C84.2482 50.7634 84.4894 50.7875 84.6943 50.8237C86.4065 51.1131 87.0577 51.728 87.3953 52.1742C87.6003 52.4395 88.0223 52.9821 87.7811 54.4652C87.6365 55.3213 87.2988 55.9845 86.6959 56.5994C86.3463 56.9611 85.8881 57.2988 84.8149 57.4073C84.5979 57.4314 84.3929 57.4435 84.1879 57.4435C83.3921 57.4435 82.6927 57.2746 81.8728 56.4065C80.9082 55.3816 80.7997 54.6581 80.9805 53.6211Z" fill="#211E1B"/>
<path d="M71.3348 33.8947C70.961 35.4501 69.5864 37.2708 64.498 40.8038C61.5679 42.8536 58.2882 44.9878 54.707 47.1703C58.6379 50.8721 61.8453 54.1639 64.2568 56.9974C66.379 59.6019 64.5824 63.3881 63.9916 64.63C62.7858 67.1863 61.17 69.7546 59.1805 72.2747C57.9024 73.8904 56.5519 75.3615 55.1652 76.6637C56.6845 78.6051 58.3485 80.3414 60.1572 81.8848C60.8083 82.4515 61.4835 82.982 62.1708 83.4644C66.789 86.8647 72.2029 89.0833 78.4368 90.1203C86.6844 91.4949 94.1482 90.4941 100.816 87.1299C101.576 86.7561 102.323 86.3462 103.059 85.9C104.204 85.2127 105.326 84.4531 106.423 83.6211C106.737 83.38 107.05 83.1388 107.364 82.8735C106.737 82.3068 106.194 81.7522 105.748 81.1854C104.482 79.6541 104.048 76.9772 106.206 68.9467C107.689 63.4122 109.655 57.1783 112.066 50.438C113.778 45.639 115.575 40.8882 117.432 36.258C116.443 34.4373 115.249 32.6889 113.875 31.0249C107.376 23.1511 98.2719 18.7018 86.5638 17.6889C79.2809 17.0499 72.6732 18.3762 66.7407 21.6921C67.1989 22.4277 67.6451 23.2235 68.1153 24.0555C71.383 29.9276 71.805 32.303 71.3348 33.8947ZM75.0727 52.7169C75.4465 50.2812 76.6523 48.2676 78.678 46.6639C80.7037 45.0723 83.0429 44.4935 85.7077 44.9276C88.5172 45.4099 90.6635 46.6036 92.1345 48.5208C93.6056 50.4259 94.124 52.7531 93.6779 55.4661C93.3282 57.528 92.4239 59.3005 90.9769 60.7836C89.518 62.2788 87.6972 63.1349 85.5148 63.3519C82.3436 63.7257 79.6908 62.7852 77.5445 60.5304C75.3862 58.2635 74.5663 55.659 75.0727 52.7169Z" fill="#FECB37"/>
<path d="M92.9543 98.9105C93.8225 95.9322 95.2694 93.4121 97.2831 91.3743C93.521 92.6404 89.5661 93.2795 85.4182 93.2795C85.2373 93.2795 85.0564 93.2795 84.8635 93.2674C85.7437 94.4129 86.0452 95.8116 85.7799 97.4394C85.5629 98.6814 85.0203 99.7545 84.14 100.659C83.2598 101.563 82.1505 102.07 80.8362 102.202C78.919 102.443 77.3153 101.865 76.0131 100.502C74.7108 99.1275 74.2165 97.56 74.5179 95.7754C74.7349 94.4129 75.3619 93.2674 76.4351 92.351C70.5147 91.1573 65.2696 88.9025 60.7479 85.5986C59.3853 87.9378 58.4689 90.5062 58.0107 93.3036C57.6972 95.2208 57.6249 97.0897 57.7937 98.8984C57.9866 101.081 58.5292 103.191 59.4215 105.217C60.0726 106.7 60.9046 108.135 61.9175 109.533C65.4745 114.405 70.358 117.371 76.5557 118.396C82.9825 119.469 88.6255 118.167 93.4848 114.465C93.8828 114.164 94.2566 113.85 94.6303 113.537C94.148 112.705 93.726 111.824 93.3643 110.908C91.8329 107.013 91.7003 102.974 92.9543 98.9105Z" fill="#FECB37"/>
<path d="M93.4845 47.4837C91.7602 45.2289 89.2401 43.8061 85.9845 43.2393C85.3213 43.1308 84.6702 43.0826 84.0432 43.0826C81.6678 43.0826 79.5095 43.8302 77.6164 45.3253C75.241 47.2064 73.8182 49.6059 73.3841 52.4274C73.2756 53.0785 73.2153 53.7296 73.2153 54.3567C73.2153 57.0817 74.2523 59.5536 76.3021 61.7119C78.4725 63.9908 81.1252 65.1363 84.1879 65.1363C84.6823 65.1363 85.2008 65.1122 85.6831 65.0519C88.2635 64.7987 90.458 63.7617 92.1943 61.9772C93.8945 60.2409 94.9555 58.1549 95.3655 55.7433C95.4861 55.0319 95.5464 54.3205 95.5464 53.6452C95.5464 51.3181 94.847 49.2441 93.4845 47.4837ZM87.7811 54.4652C87.6365 55.3213 87.2988 55.9845 86.6959 56.5994C86.3463 56.9611 85.8881 57.2988 84.8149 57.4073C84.5979 57.4314 84.3929 57.4435 84.1879 57.4435C83.3921 57.4435 82.6927 57.2746 81.8728 56.4065C80.9082 55.3816 80.7997 54.6581 80.9805 53.6211C81.077 52.97 81.3302 52.1862 82.3672 51.3663C82.9098 50.9443 83.3921 50.7634 84.0312 50.7634C84.2482 50.7634 84.4894 50.7875 84.6943 50.8237C86.4065 51.1131 87.0577 51.728 87.3953 52.1742C87.6003 52.4395 88.0223 52.9821 87.7811 54.4652ZM93.4845 47.4837C91.7602 45.2289 89.2401 43.8061 85.9845 43.2393C85.3213 43.1308 84.6702 43.0826 84.0432 43.0826C81.6678 43.0826 79.5095 43.8302 77.6164 45.3253C75.241 47.2064 73.8182 49.6059 73.3841 52.4274C73.2756 53.0785 73.2153 53.7296 73.2153 54.3567C73.2153 57.0817 74.2523 59.5536 76.3021 61.7119C78.4725 63.9908 81.1252 65.1363 84.1879 65.1363C84.6823 65.1363 85.2008 65.1122 85.6831 65.0519C88.2635 64.7987 90.458 63.7617 92.1943 61.9772C93.8945 60.2409 94.9555 58.1549 95.3655 55.7433C95.4861 55.0319 95.5464 54.3205 95.5464 53.6452C95.5464 51.3181 94.847 49.2441 93.4845 47.4837ZM87.7811 54.4652C87.6365 55.3213 87.2988 55.9845 86.6959 56.5994C86.3463 56.9611 85.8881 57.2988 84.8149 57.4073C84.5979 57.4314 84.3929 57.4435 84.1879 57.4435C83.3921 57.4435 82.6927 57.2746 81.8728 56.4065C80.9082 55.3816 80.7997 54.6581 80.9805 53.6211C81.077 52.97 81.3302 52.1862 82.3672 51.3663C82.9098 50.9443 83.3921 50.7634 84.0312 50.7634C84.2482 50.7634 84.4894 50.7875 84.6943 50.8237C86.4065 51.1131 87.0577 51.728 87.3953 52.1742C87.6003 52.4395 88.0223 52.9821 87.7811 54.4652ZM159.393 22.729C156.016 20.4018 152.122 18.3399 147.829 16.6036C143.476 14.8191 139.172 13.6133 135.048 12.9983C133.794 12.8175 132.624 12.721 131.551 12.721C126.029 12.721 123.376 15.2531 122.086 17.4235C121.061 19.184 119.674 22.102 117.805 26.4307C110.317 17.7973 99.9957 12.8416 87.0818 11.7323C85.7313 11.6117 84.3808 11.5514 83.0665 11.5514C77.1341 11.5514 71.5272 12.7692 66.3785 15.1687C65.3536 13.8906 64.3407 12.8175 63.3279 11.9855L63.1229 11.8167C61.7845 10.8038 60.1326 10.2974 58.2033 10.2974C56.5755 10.2974 54.6101 10.6591 52.0297 11.4308C51.5836 11.5634 51.1254 11.7081 50.6551 11.8649C50.1607 8.91073 47.7733 6.45093 43.5531 4.53374C40.5627 3.18326 37.2106 2.086 33.5692 1.27813C29.9036 0.458197 26.3345 0.0241156 22.9462 0H22.8136C17.3635 0 13.7702 1.79662 12.1666 5.32956L12.0821 5.51042C11.1175 7.81347 9.88762 11.9252 8.22364 18.4726C6.64407 24.6824 5.13684 31.2298 3.76225 37.9339C2.35148 44.7707 1.27834 51.0528 0.554869 56.5753C-0.433872 64.0391 -0.361525 68.5849 2.90614 71.2255C5.54681 73.3236 9.70675 74.9273 15.9648 76.2657C19.2324 76.9651 21.8007 77.3027 23.8144 77.3027C24.8634 77.3027 27.9744 77.3027 30.3377 75.2167C30.7115 74.9032 31.0853 74.5294 31.4711 74.0591C32.4116 74.9032 33.3401 75.699 34.2685 76.5189C33.3642 76.9289 32.484 77.375 31.652 77.8694C29.4575 79.1716 28.1673 80.6427 27.4318 82.0414C26.1054 81.4023 24.8634 81.0044 23.6335 80.8115C22.9945 80.715 22.3192 80.6668 21.5716 80.6668C20.4262 80.6668 19.1721 80.7753 17.7131 80.9924C15.6874 81.3059 13.6617 81.752 11.6963 82.3428C9.59824 82.9699 7.80162 83.6933 6.2341 84.5374C1.49538 87.0695 1.15776 90.5663 1.3748 92.3267C1.72448 95.5341 2.47206 99.5494 3.61756 104.276C4.73893 108.906 5.95677 113.452 7.24696 117.829C8.62155 122.423 9.88762 126.269 11.1055 129.585C12.7333 134.011 13.8426 136.133 15.2775 137.471C16.7244 138.882 18.7019 139.593 21.1858 139.593C22.7171 139.593 24.5499 139.352 26.9736 138.81C31.6279 137.785 34.7508 136.495 36.7886 134.782C38.6938 133.191 39.2484 131.02 39.3087 128.922C39.9478 129.308 40.5868 129.67 41.2018 130.019C43.5289 131.346 45.2411 132.045 46.7604 132.286C47.2186 132.359 47.6889 132.395 48.2194 132.395C49.1238 132.395 50.1607 132.286 51.5594 132.045C53.1511 131.756 54.7548 131.37 56.3343 130.9C57.9983 130.405 59.5538 129.814 60.9766 129.139C63.8946 127.765 65.6309 125.799 66.1253 123.303L66.1856 123.014L66.2097 122.737C66.2579 122.315 66.2821 121.856 66.2097 121.109C69.0312 122.64 72.1421 123.725 75.5666 124.292C77.3391 124.593 79.0875 124.738 80.7876 124.738C86.2136 124.738 91.2056 123.219 95.6428 120.253C96.7039 121.241 97.8615 122.17 99.1517 122.99C103.058 125.462 107.062 126.728 111.041 126.728C112.982 126.728 114.935 126.426 116.804 125.823C122.242 124.135 126.535 121.012 129.549 116.599C132.636 112.089 133.89 106.929 133.275 101.25C133.07 99.2479 132.54 97.3428 131.696 95.5462C133.058 95.3653 134.276 94.9433 135.313 94.2801C137.254 93.2311 139.292 91.0727 142.934 84.9353C145.574 80.5101 148.336 75.3614 151.398 69.1998C154.28 63.3397 157.102 57.1541 159.766 50.8116C162.419 44.4692 164.421 39.0312 165.687 34.6542L165.723 34.5095C166.82 30.3616 164.686 26.3946 159.393 22.729ZM30.9526 63.2071L29.1681 61.5431L28.2155 63.7979C26.2863 68.404 25.5146 69.2239 25.394 69.3325H25.3578L25.2855 69.4169C25.2855 69.4289 24.9478 69.6098 23.8144 69.6098C22.3675 69.6098 20.2694 69.3204 17.5805 68.7416C11.7084 67.4997 9.05563 66.2095 7.86191 65.3293C7.74133 64.9434 7.42783 63.3036 8.18747 57.5761C8.87477 52.2224 9.9238 46.1332 11.2984 39.4773C12.6489 32.9058 14.1199 26.479 15.6754 20.3777C17.2067 14.3729 18.3884 10.3697 19.1601 8.52488C19.2324 8.36813 19.4977 8.16314 20.0885 7.99433C20.6673 7.82552 21.5596 7.69289 22.886 7.69289C25.7316 7.717 28.7702 8.07874 31.8931 8.77809C35.0282 9.47745 37.8859 10.4059 40.3819 11.5393C42.3834 12.4437 42.9261 13.0586 43.0466 13.2395C42.8537 14.3609 42.6487 15.5425 42.4196 16.7483C42.1785 17.9903 41.8891 19.3528 41.5273 20.9203L40.7315 24.3206L43.9027 22.8616C47.7733 21.0771 51.258 19.7025 54.2604 18.7981C56.479 18.135 57.6245 17.9903 58.2033 17.9903C58.3842 17.9903 58.4927 18.0023 58.553 18.0144C59.5176 18.8464 60.5908 20.1245 61.7724 21.8488C62.2065 22.4758 62.6406 23.1751 63.0867 23.9107C63.5088 24.598 63.9428 25.3335 64.3769 26.1293C67.2828 31.3142 67.2346 32.6164 67.2467 32.6526L67.2105 32.737L67.1864 32.8696C67.1382 32.9902 66.6438 34.1116 62.0618 37.2948C58.2636 39.9355 54.0675 42.6123 49.594 45.2651L47.6045 46.4467L49.3167 48.0022C54.2604 52.5118 58.1912 56.4668 60.9766 59.7344C60.9766 59.7344 61.266 60.4338 60.1326 62.8092C59.0835 65.0278 57.6366 67.3309 55.8279 69.6218C54.7307 70.9964 53.5972 72.2505 52.4517 73.3477C51.7765 73.9868 51.1977 74.4932 50.5707 74.9876C50.426 75.0961 50.2813 75.2046 50.1487 75.3131C49.8111 75.5664 49.4976 75.8075 49.1479 76.0125C48.135 76.6636 47.5321 76.7601 47.2669 76.7601C47.0981 76.7601 47.0016 76.7118 46.9413 76.6877C46.5796 76.5069 46.0731 76.1813 45.3738 75.6749C44.1439 74.8067 42.5643 73.5406 40.6833 71.9128C37.488 69.1637 34.2203 66.2336 30.9526 63.2071ZM57.6848 122.194C56.6237 122.7 55.43 123.147 54.1278 123.532C52.8135 123.93 51.4992 124.244 50.209 124.473C49.1238 124.666 48.5209 124.702 48.2194 124.702C48.123 124.702 48.0386 124.702 47.9662 124.69C47.7251 124.654 46.9413 124.437 45 123.339C43.4687 122.471 41.8047 121.458 40.0563 120.325C38.3803 119.24 36.7886 118.167 35.3176 117.142C33.5692 115.912 32.8939 115.405 32.6407 115.2L29.0354 112.222L29.8795 116.816C30.5427 120.506 31.037 123.508 31.3747 125.992C31.6399 127.885 31.6279 128.741 31.5917 129.091C30.7356 129.682 28.9752 130.49 25.3096 131.31C23.5009 131.708 22.1263 131.913 21.1979 131.913C20.8361 131.913 20.6432 131.876 20.5467 131.852H20.5347C20.4623 131.78 19.8353 131.044 18.3281 126.933C17.1585 123.761 15.9406 120.06 14.6263 115.634C13.3844 111.414 12.1907 106.977 11.0934 102.467C10.0685 98.2471 9.39325 94.678 9.06769 91.8444C9.20033 91.7359 9.42943 91.555 9.86351 91.3259C10.9849 90.723 12.3474 90.1804 13.9149 89.7102C15.5186 89.2279 17.1826 88.8541 18.8586 88.6009C19.9197 88.4441 20.8361 88.3597 21.5716 88.3597C21.9454 88.3597 22.2831 88.3838 22.5363 88.42C23.3803 88.5526 25.0443 89.2158 28.1552 91.5791C30.9285 93.6893 32.8819 95.2327 34.1238 96.3058L38.5491 100.116L36.873 94.5092C36.234 92.4111 35.6672 90.5663 35.1608 88.9505C34.57 87.0936 34.3529 86.1049 34.2444 85.6105C34.2565 85.5985 34.3891 85.1885 35.5828 84.4771C37.0901 83.5969 38.8505 82.8372 40.7918 82.2464C41.9976 81.8726 43.0587 81.6194 44.0595 81.4506C44.9156 81.2938 45.6632 81.2094 46.3505 81.1612C46.5916 81.1491 46.8328 81.1371 47.0378 81.1371C47.5683 81.1371 47.8698 81.1974 48.0265 81.2335C49.0153 83.8621 50.1125 87.2986 51.3786 91.7118C52.0538 94.1113 52.8617 96.9569 53.6213 99.8508C54.0795 101.551 54.5257 103.239 54.9477 104.939L55.0924 105.506C55.1647 105.844 55.2491 106.157 55.3215 106.446C56.2982 110.401 57.0578 113.693 57.6366 116.503C58.3359 119.843 58.5048 121.181 58.553 121.688C58.4203 121.796 58.1671 121.965 57.6848 122.194ZM91.7723 111.535C91.9893 112.065 92.2184 112.596 92.4596 113.09C92.4596 113.102 92.4475 113.102 92.4475 113.102C88.9628 115.755 85.1525 117.045 80.7876 117.045C79.5095 117.045 78.1831 116.937 76.8326 116.708C71.1293 115.767 66.5714 113.018 63.3038 108.532C62.3633 107.23 61.5795 105.892 60.9887 104.529C60.1687 102.684 59.6744 100.743 59.4935 98.7415C59.3367 97.0775 59.4091 95.3412 59.6985 93.5807C60.012 91.6515 60.5666 89.8187 61.3625 88.1065C64.9919 90.4819 69.0553 92.2544 73.4806 93.424C77.2185 94.8106 84.1758 95.1844 87.4556 94.9433C89.3366 94.8468 91.2056 94.6177 93.0263 94.268C92.3269 95.5462 91.7482 96.9328 91.3261 98.4039C89.9515 102.853 90.0962 107.278 91.7723 111.535ZM85.4058 89.0108C83.2474 89.0108 81.0046 88.8179 78.7137 88.432C72.7933 87.4433 67.5602 85.3091 63.147 82.0655C62.52 81.6314 61.893 81.1371 61.266 80.5824C59.9155 79.4369 58.6494 78.1588 57.4798 76.7962C58.5289 75.711 59.5538 74.5535 60.5184 73.3357C62.5803 70.7191 64.2684 68.0302 65.5345 65.3654C67.4275 61.3864 67.4396 58.2031 65.5586 55.888C63.4846 53.4523 60.7716 50.6187 57.4919 47.4596C60.3617 45.675 63.0385 43.9025 65.4742 42.2024C70.3938 38.79 72.4315 36.6437 72.9741 34.3768C73.6855 31.9532 72.7812 28.9267 69.598 23.2113C69.598 23.2113 69.2603 22.6084 69.1277 22.3673C73.3962 20.2933 78.0746 19.2443 83.0665 19.2443C84.1638 19.2443 85.2852 19.2925 86.4186 19.389C97.5962 20.3536 106.386 24.6341 112.56 32.11C113.693 33.4846 114.694 34.9194 115.538 36.3784C113.802 40.7554 112.09 45.2892 110.462 49.8591C108.062 56.5512 106.073 62.8212 104.554 68.5005C102.492 76.1572 102.468 79.8951 104.409 82.2464C104.529 82.3911 104.65 82.5478 104.795 82.7046C103.939 83.3316 103.058 83.9104 102.178 84.4409C101.479 84.8509 100.767 85.2488 100.044 85.5985C95.5705 87.8653 90.6388 89.0108 85.4058 89.0108ZM123.207 112.246C121.157 115.261 118.312 117.311 114.513 118.492C113.368 118.854 112.198 119.035 111.041 119.035C108.545 119.035 105.928 118.179 103.275 116.491C101.684 115.478 100.357 114.272 99.3205 112.861C98.8382 112.234 98.4282 111.595 98.0423 110.848C97.7891 110.401 97.56 109.907 97.343 109.34C96.1613 106.326 96.0649 103.323 97.0415 100.14C98.0665 96.6434 99.9957 94.0872 102.974 92.3147C103.589 91.9409 104.276 91.5912 105.12 91.2295C105.289 91.1571 105.47 91.0848 105.651 91.0245L105.771 90.9762C107.592 90.301 109.389 89.9513 111.089 89.9513C113.657 89.9513 116.069 90.6989 118.444 92.2303C122.894 95.1 125.233 98.3074 125.631 102.057C126.053 105.928 125.257 109.256 123.207 112.246ZM158.307 32.5079C157.114 36.6075 155.221 41.7683 152.676 47.8454C150.072 54.0311 147.323 60.0721 144.501 65.7995C141.535 71.7802 138.858 76.748 136.326 81.0044C132.974 86.6595 131.804 87.4433 131.611 87.5398L131.382 87.6483L131.201 87.793C131.201 87.793 130.96 87.9618 130.164 87.9618C128.898 87.9618 126.282 87.5277 121.037 85.4899C117.419 84.0792 114.501 82.6564 112.355 81.2697C111.668 80.8356 111.029 80.3654 110.45 79.8831C109.871 79.4007 109.437 78.9546 109.099 78.5446C109.027 78.3999 108.46 77.0133 110.329 70.0559C111.788 64.6179 113.73 58.4925 116.093 51.8727C117.492 47.9178 118.987 43.9266 120.542 39.9837C120.542 39.9837 121.447 37.7048 121.832 36.7281L122.363 35.4379C122.701 34.618 123.038 33.8101 123.376 33.0023C125.848 27.0939 127.656 23.151 128.73 21.3062C129.164 20.5706 130.514 20.4139 131.551 20.4139C132.238 20.4139 133.022 20.4742 133.902 20.6068C137.435 21.1253 141.149 22.1743 144.935 23.7177C148.721 25.2611 152.122 27.0577 155.028 29.0714C158.163 31.2298 158.307 32.3029 158.307 32.4838V32.5079ZM85.9845 43.2393C85.3213 43.1308 84.6702 43.0826 84.0432 43.0826C81.6678 43.0826 79.5095 43.8302 77.6164 45.3253C75.241 47.2064 73.8182 49.6059 73.3841 52.4274C73.2756 53.0785 73.2153 53.7296 73.2153 54.3567C73.2153 57.0817 74.2523 59.5536 76.3021 61.7119C78.4725 63.9908 81.1252 65.1363 84.1879 65.1363C84.6823 65.1363 85.2008 65.1122 85.6831 65.0519C88.2635 64.7987 90.458 63.7617 92.1943 61.9772C93.8945 60.2409 94.9555 58.1549 95.3655 55.7433C95.4861 55.0319 95.5464 54.3205 95.5464 53.6452C95.5464 51.3181 94.847 49.2441 93.4845 47.4837C91.7602 45.2289 89.2401 43.8061 85.9845 43.2393ZM87.7811 54.4652C87.6365 55.3213 87.2988 55.9845 86.6959 56.5994C86.3463 56.9611 85.8881 57.2988 84.8149 57.4073C84.5979 57.4314 84.3929 57.4435 84.1879 57.4435C83.3921 57.4435 82.6927 57.2746 81.8728 56.4065C80.9082 55.3816 80.7997 54.6581 80.9805 53.6211C81.077 52.97 81.3302 52.1862 82.3672 51.3663C82.9098 50.9443 83.3921 50.7634 84.0312 50.7634C84.2482 50.7634 84.4894 50.7875 84.6943 50.8237C86.4065 51.1131 87.0577 51.728 87.3953 52.1742C87.6003 52.4395 88.0223 52.9821 87.7811 54.4652ZM93.4845 47.4837C91.7602 45.2289 89.2401 43.8061 85.9845 43.2393C85.3213 43.1308 84.6702 43.0826 84.0432 43.0826C81.6678 43.0826 79.5095 43.8302 77.6164 45.3253C75.241 47.2064 73.8182 49.6059 73.3841 52.4274C73.2756 53.0785 73.2153 53.7296 73.2153 54.3567C73.2153 57.0817 74.2523 59.5536 76.3021 61.7119C78.4725 63.9908 81.1252 65.1363 84.1879 65.1363C84.6823 65.1363 85.2008 65.1122 85.6831 65.0519C88.2635 64.7987 90.458 63.7617 92.1943 61.9772C93.8945 60.2409 94.9555 58.1549 95.3655 55.7433C95.4861 55.0319 95.5464 54.3205 95.5464 53.6452C95.5464 51.3181 94.847 49.2441 93.4845 47.4837ZM87.7811 54.4652C87.6365 55.3213 87.2988 55.9845 86.6959 56.5994C86.3463 56.9611 85.8881 57.2988 84.8149 57.4073C84.5979 57.4314 84.3929 57.4435 84.1879 57.4435C83.3921 57.4435 82.6927 57.2746 81.8728 56.4065C80.9082 55.3816 80.7997 54.6581 80.9805 53.6211C81.077 52.97 81.3302 52.1862 82.3672 51.3663C82.9098 50.9443 83.3921 50.7634 84.0312 50.7634C84.2482 50.7634 84.4894 50.7875 84.6943 50.8237C86.4065 51.1131 87.0577 51.728 87.3953 52.1742C87.6003 52.4395 88.0223 52.9821 87.7811 54.4652ZM93.4845 47.4837C91.7602 45.2289 89.2401 43.8061 85.9845 43.2393C85.3213 43.1308 84.6702 43.0826 84.0432 43.0826C81.6678 43.0826 79.5095 43.8302 77.6164 45.3253C75.241 47.2064 73.8182 49.6059 73.3841 52.4274C73.2756 53.0785 73.2153 53.7296 73.2153 54.3567C73.2153 57.0817 74.2523 59.5536 76.3021 61.7119C78.4725 63.9908 81.1252 65.1363 84.1879 65.1363C84.6823 65.1363 85.2008 65.1122 85.6831 65.0519C88.2635 64.7987 90.458 63.7617 92.1943 61.9772C93.8945 60.2409 94.9555 58.1549 95.3655 55.7433C95.4861 55.0319 95.5464 54.3205 95.5464 53.6452C95.5464 51.3181 94.847 49.2441 93.4845 47.4837ZM87.7811 54.4652C87.6365 55.3213 87.2988 55.9845 86.6959 56.5994C86.3463 56.9611 85.8881 57.2988 84.8149 57.4073C84.5979 57.4314 84.3929 57.4435 84.1879 57.4435C83.3921 57.4435 82.6927 57.2746 81.8728 56.4065C80.9082 55.3816 80.7997 54.6581 80.9805 53.6211C81.077 52.97 81.3302 52.1862 82.3672 51.3663C82.9098 50.9443 83.3921 50.7634 84.0312 50.7634C84.2482 50.7634 84.4894 50.7875 84.6943 50.8237C86.4065 51.1131 87.0577 51.728 87.3953 52.1742C87.6003 52.4395 88.0223 52.9821 87.7811 54.4652Z" fill="#211E1B"/>
<path d="M93.4845 47.4837C91.7602 45.2289 89.2401 43.8061 85.9845 43.2393C85.3213 43.1308 84.6702 43.0826 84.0432 43.0826C81.6678 43.0826 79.5095 43.8302 77.6164 45.3253C75.241 47.2064 73.8182 49.6059 73.3841 52.4274C73.2756 53.0785 73.2153 53.7296 73.2153 54.3567C73.2153 57.0817 74.2523 59.5536 76.3021 61.7119C78.4725 63.9908 81.1252 65.1363 84.1879 65.1363C84.6823 65.1363 85.2008 65.1122 85.6831 65.0519C88.2635 64.7987 90.458 63.7617 92.1943 61.9772C93.8945 60.2409 94.9555 58.1549 95.3655 55.7433C95.4861 55.0319 95.5464 54.3205 95.5464 53.6452C95.5464 51.3181 94.847 49.2441 93.4845 47.4837ZM87.7811 54.4652C87.6365 55.3213 87.2988 55.9845 86.6959 56.5994C86.3463 56.9611 85.8881 57.2988 84.8149 57.4073C84.5979 57.4314 84.3929 57.4435 84.1879 57.4435C83.3921 57.4435 82.6927 57.2746 81.8728 56.4065C80.9082 55.3816 80.7997 54.6581 80.9805 53.6211C81.077 52.97 81.3302 52.1862 82.3672 51.3663C82.9098 50.9443 83.3921 50.7634 84.0312 50.7634C84.2482 50.7634 84.4894 50.7875 84.6943 50.8237C86.4065 51.1131 87.0577 51.728 87.3953 52.1742C87.6003 52.4395 88.0223 52.9821 87.7811 54.4652ZM93.4845 47.4837C91.7602 45.2289 89.2401 43.8061 85.9845 43.2393C85.3213 43.1308 84.6702 43.0826 84.0432 43.0826C81.6678 43.0826 79.5095 43.8302 77.6164 45.3253C75.241 47.2064 73.8182 49.6059 73.3841 52.4274C73.2756 53.0785 73.2153 53.7296 73.2153 54.3567C73.2153 57.0817 74.2523 59.5536 76.3021 61.7119C78.4725 63.9908 81.1252 65.1363 84.1879 65.1363C84.6823 65.1363 85.2008 65.1122 85.6831 65.0519C88.2635 64.7987 90.458 63.7617 92.1943 61.9772C93.8945 60.2409 94.9555 58.1549 95.3655 55.7433C95.4861 55.0319 95.5464 54.3205 95.5464 53.6452C95.5464 51.3181 94.847 49.2441 93.4845 47.4837ZM87.7811 54.4652C87.6365 55.3213 87.2988 55.9845 86.6959 56.5994C86.3463 56.9611 85.8881 57.2988 84.8149 57.4073C84.5979 57.4314 84.3929 57.4435 84.1879 57.4435C83.3921 57.4435 82.6927 57.2746 81.8728 56.4065C80.9082 55.3816 80.7997 54.6581 80.9805 53.6211C81.077 52.97 81.3302 52.1862 82.3672 51.3663C82.9098 50.9443 83.3921 50.7634 84.0312 50.7634C84.2482 50.7634 84.4894 50.7875 84.6943 50.8237C86.4065 51.1131 87.0577 51.728 87.3953 52.1742C87.6003 52.4395 88.0223 52.9821 87.7811 54.4652ZM159.393 22.729C156.016 20.4018 152.122 18.3399 147.829 16.6036C143.476 14.8191 139.172 13.6133 135.048 12.9983C133.794 12.8175 132.624 12.721 131.551 12.721C126.029 12.721 123.376 15.2531 122.086 17.4235C121.061 19.184 119.674 22.102 117.805 26.4307C110.317 17.7973 99.9957 12.8416 87.0818 11.7323C85.7313 11.6117 84.3808 11.5514 83.0665 11.5514C77.1341 11.5514 71.5272 12.7692 66.3785 15.1687C65.3536 13.8906 64.3407 12.8175 63.3279 11.9855L63.1229 11.8167C61.7845 10.8038 60.1326 10.2974 58.2033 10.2974C56.5755 10.2974 54.6101 10.6591 52.0297 11.4308C51.5836 11.5634 51.1254 11.7081 50.6551 11.8649C50.1607 8.91073 47.7733 6.45093 43.5531 4.53374C40.5627 3.18326 37.2106 2.086 33.5692 1.27813C29.9036 0.458197 26.3345 0.0241156 22.9462 0H22.8136C17.3635 0 13.7702 1.79662 12.1666 5.32956L12.0821 5.51042C11.1175 7.81347 9.88762 11.9252 8.22364 18.4726C6.64407 24.6824 5.13684 31.2298 3.76225 37.9339C2.35148 44.7707 1.27834 51.0528 0.554869 56.5753C-0.433872 64.0391 -0.361525 68.5849 2.90614 71.2255C5.54681 73.3236 9.70675 74.9273 15.9648 76.2657C19.2324 76.9651 21.8007 77.3027 23.8144 77.3027C24.8634 77.3027 27.9744 77.3027 30.3377 75.2167C30.7115 74.9032 31.0853 74.5294 31.4711 74.0591C32.4116 74.9032 33.3401 75.699 34.2685 76.5189C33.3642 76.9289 32.484 77.375 31.652 77.8694C29.4575 79.1716 28.1673 80.6427 27.4318 82.0414C26.1054 81.4023 24.8634 81.0044 23.6335 80.8115C22.9945 80.715 22.3192 80.6668 21.5716 80.6668C20.4262 80.6668 19.1721 80.7753 17.7131 80.9924C15.6874 81.3059 13.6617 81.752 11.6963 82.3428C9.59824 82.9699 7.80162 83.6933 6.2341 84.5374C1.49538 87.0695 1.15776 90.5663 1.3748 92.3267C1.72448 95.5341 2.47206 99.5494 3.61756 104.276C4.73893 108.906 5.95677 113.452 7.24696 117.829C8.62155 122.423 9.88762 126.269 11.1055 129.585C12.7333 134.011 13.8426 136.133 15.2775 137.471C16.7244 138.882 18.7019 139.593 21.1858 139.593C22.7171 139.593 24.5499 139.352 26.9736 138.81C31.6279 137.785 34.7508 136.495 36.7886 134.782C38.6938 133.191 39.2484 131.02 39.3087 128.922C39.9478 129.308 40.5868 129.67 41.2018 130.019C43.5289 131.346 45.2411 132.045 46.7604 132.286C47.2186 132.359 47.6889 132.395 48.2194 132.395C49.1238 132.395 50.1607 132.286 51.5594 132.045C53.1511 131.756 54.7548 131.37 56.3343 130.9C57.9983 130.405 59.5538 129.814 60.9766 129.139C63.8946 127.765 65.6309 125.799 66.1253 123.303L66.1856 123.014L66.2097 122.737C66.2579 122.315 66.2821 121.856 66.2097 121.109C69.0312 122.64 72.1421 123.725 75.5666 124.292C77.3391 124.593 79.0875 124.738 80.7876 124.738C86.2136 124.738 91.2056 123.219 95.6428 120.253C96.7039 121.241 97.8615 122.17 99.1517 122.99C103.058 125.462 107.062 126.728 111.041 126.728C112.982 126.728 114.935 126.426 116.804 125.823C122.242 124.135 126.535 121.012 129.549 116.599C132.636 112.089 133.89 106.929 133.275 101.25C133.07 99.2479 132.54 97.3428 131.696 95.5462C133.058 95.3653 134.276 94.9433 135.313 94.2801C137.254 93.2311 139.292 91.0727 142.934 84.9353C145.574 80.5101 148.336 75.3614 151.398 69.1998C154.28 63.3397 157.102 57.1541 159.766 50.8116C162.419 44.4692 164.421 39.0312 165.687 34.6542L165.723 34.5095C166.82 30.3616 164.686 26.3946 159.393 22.729ZM30.9526 63.2071L29.1681 61.5431L28.2155 63.7979C26.2863 68.404 25.5146 69.2239 25.394 69.3325H25.3578L25.2855 69.4169C25.2855 69.4289 24.9478 69.6098 23.8144 69.6098C22.3675 69.6098 20.2694 69.3204 17.5805 68.7416C11.7084 67.4997 9.05563 66.2095 7.86191 65.3293C7.74133 64.9434 7.42783 63.3036 8.18747 57.5761C8.87477 52.2224 9.9238 46.1332 11.2984 39.4773C12.6489 32.9058 14.1199 26.479 15.6754 20.3777C17.2067 14.3729 18.3884 10.3697 19.1601 8.52488C19.2324 8.36813 19.4977 8.16314 20.0885 7.99433C20.6673 7.82552 21.5596 7.69289 22.886 7.69289C25.7316 7.717 28.7702 8.07874 31.8931 8.77809C35.0282 9.47745 37.8859 10.4059 40.3819 11.5393C42.3834 12.4437 42.9261 13.0586 43.0466 13.2395C42.8537 14.3609 42.6487 15.5425 42.4196 16.7483C42.1785 17.9903 41.8891 19.3528 41.5273 20.9203L40.7315 24.3206L43.9027 22.8616C47.7733 21.0771 51.258 19.7025 54.2604 18.7981C56.479 18.135 57.6245 17.9903 58.2033 17.9903C58.3842 17.9903 58.4927 18.0023 58.553 18.0144C59.5176 18.8464 60.5908 20.1245 61.7724 21.8488C62.2065 22.4758 62.6406 23.1751 63.0867 23.9107C63.5088 24.598 63.9428 25.3335 64.3769 26.1293C67.2828 31.3142 67.2346 32.6164 67.2467 32.6526L67.2105 32.737L67.1864 32.8696C67.1382 32.9902 66.6438 34.1116 62.0618 37.2948C58.2636 39.9355 54.0675 42.6123 49.594 45.2651L47.6045 46.4467L49.3167 48.0022C54.2604 52.5118 58.1912 56.4668 60.9766 59.7344C60.9766 59.7344 61.266 60.4338 60.1326 62.8092C59.0835 65.0278 57.6366 67.3309 55.8279 69.6218C54.7307 70.9964 53.5972 72.2505 52.4517 73.3477C51.7765 73.9868 51.1977 74.4932 50.5707 74.9876C50.426 75.0961 50.2813 75.2046 50.1487 75.3131C49.8111 75.5664 49.4976 75.8075 49.1479 76.0125C48.135 76.6636 47.5321 76.7601 47.2669 76.7601C47.0981 76.7601 47.0016 76.7118 46.9413 76.6877C46.5796 76.5069 46.0731 76.1813 45.3738 75.6749C44.1439 74.8067 42.5643 73.5406 40.6833 71.9128C37.488 69.1637 34.2203 66.2336 30.9526 63.2071ZM57.6848 122.194C56.6237 122.7 55.43 123.147 54.1278 123.532C52.8135 123.93 51.4992 124.244 50.209 124.473C49.1238 124.666 48.5209 124.702 48.2194 124.702C48.123 124.702 48.0386 124.702 47.9662 124.69C47.7251 124.654 46.9413 124.437 45 123.339C43.4687 122.471 41.8047 121.458 40.0563 120.325C38.3803 119.24 36.7886 118.167 35.3176 117.142C33.5692 115.912 32.8939 115.405 32.6407 115.2L29.0354 112.222L29.8795 116.816C30.5427 120.506 31.037 123.508 31.3747 125.992C31.6399 127.885 31.6279 128.741 31.5917 129.091C30.7356 129.682 28.9752 130.49 25.3096 131.31C23.5009 131.708 22.1263 131.913 21.1979 131.913C20.8361 131.913 20.6432 131.876 20.5467 131.852H20.5347C20.4623 131.78 19.8353 131.044 18.3281 126.933C17.1585 123.761 15.9406 120.06 14.6263 115.634C13.3844 111.414 12.1907 106.977 11.0934 102.467C10.0685 98.2471 9.39325 94.678 9.06769 91.8444C9.20033 91.7359 9.42943 91.555 9.86351 91.3259C10.9849 90.723 12.3474 90.1804 13.9149 89.7102C15.5186 89.2279 17.1826 88.8541 18.8586 88.6009C19.9197 88.4441 20.8361 88.3597 21.5716 88.3597C21.9454 88.3597 22.2831 88.3838 22.5363 88.42C23.3803 88.5526 25.0443 89.2158 28.1552 91.5791C30.9285 93.6893 32.8819 95.2327 34.1238 96.3058L38.5491 100.116L36.873 94.5092C36.234 92.4111 35.6672 90.5663 35.1608 88.9505C34.57 87.0936 34.3529 86.1049 34.2444 85.6105C34.2565 85.5985 34.3891 85.1885 35.5828 84.4771C37.0901 83.5969 38.8505 82.8372 40.7918 82.2464C41.9976 81.8726 43.0587 81.6194 44.0595 81.4506C44.9156 81.2938 45.6632 81.2094 46.3505 81.1612C46.5916 81.1491 46.8328 81.1371 47.0378 81.1371C47.5683 81.1371 47.8698 81.1974 48.0265 81.2335C49.0153 83.8621 50.1125 87.2986 51.3786 91.7118C52.0538 94.1113 52.8617 96.9569 53.6213 99.8508C54.0795 101.551 54.5257 103.239 54.9477 104.939L55.0924 105.506C55.1647 105.844 55.2491 106.157 55.3215 106.446C56.2982 110.401 57.0578 113.693 57.6366 116.503C58.3359 119.843 58.5048 121.181 58.553 121.688C58.4203 121.796 58.1671 121.965 57.6848 122.194ZM91.7723 111.535C91.9893 112.065 92.2184 112.596 92.4596 113.09C92.4596 113.102 92.4475 113.102 92.4475 113.102C88.9628 115.755 85.1525 117.045 80.7876 117.045C79.5095 117.045 78.1831 116.937 76.8326 116.708C71.1293 115.767 66.5714 113.018 63.3038 108.532C62.3633 107.23 61.5795 105.892 60.9887 104.529C60.1687 102.684 59.6744 100.743 59.4935 98.7415C59.3367 97.0775 59.4091 95.3412 59.6985 93.5807C60.012 91.6515 60.5666 89.8187 61.3625 88.1065C64.9919 90.4819 69.0553 92.2544 73.4806 93.424C77.2185 94.8106 84.1758 95.1844 87.4556 94.9433C89.3366 94.8468 91.2056 94.6177 93.0263 94.268C92.3269 95.5462 91.7482 96.9328 91.3261 98.4039C89.9515 102.853 90.0962 107.278 91.7723 111.535ZM85.4058 89.0108C83.2474 89.0108 81.0046 88.8179 78.7137 88.432C72.7933 87.4433 67.5602 85.3091 63.147 82.0655C62.52 81.6314 61.893 81.1371 61.266 80.5824C59.9155 79.4369 58.6494 78.1588 57.4798 76.7962C58.5289 75.711 59.5538 74.5535 60.5184 73.3357C62.5803 70.7191 64.2684 68.0302 65.5345 65.3654C67.4275 61.3864 67.4396 58.2031 65.5586 55.888C63.4846 53.4523 60.7716 50.6187 57.4919 47.4596C60.3617 45.675 63.0385 43.9025 65.4742 42.2024C70.3938 38.79 72.4315 36.6437 72.9741 34.3768C73.6855 31.9532 72.7812 28.9267 69.598 23.2113C69.598 23.2113 69.2603 22.6084 69.1277 22.3673C73.3962 20.2933 78.0746 19.2443 83.0665 19.2443C84.1638 19.2443 85.2852 19.2925 86.4186 19.389C97.5962 20.3536 106.386 24.6341 112.56 32.11C113.693 33.4846 114.694 34.9194 115.538 36.3784C113.802 40.7554 112.09 45.2892 110.462 49.8591C108.062 56.5512 106.073 62.8212 104.554 68.5005C102.492 76.1572 102.468 79.8951 104.409 82.2464C104.529 82.3911 104.65 82.5478 104.795 82.7046C103.939 83.3316 103.058 83.9104 102.178 84.4409C101.479 84.8509 100.767 85.2488 100.044 85.5985C95.5705 87.8653 90.6388 89.0108 85.4058 89.0108ZM123.207 112.246C121.157 115.261 118.312 117.311 114.513 118.492C113.368 118.854 112.198 119.035 111.041 119.035C108.545 119.035 105.928 118.179 103.275 116.491C101.684 115.478 100.357 114.272 99.3205 112.861C98.8382 112.234 98.4282 111.595 98.0423 110.848C97.7891 110.401 97.56 109.907 97.343 109.34C96.1613 106.326 96.0649 103.323 97.0415 100.14C98.0665 96.6434 99.9957 94.0872 102.974 92.3147C103.589 91.9409 104.276 91.5912 105.12 91.2295C105.289 91.1571 105.47 91.0848 105.651 91.0245L105.771 90.9762C107.592 90.301 109.389 89.9513 111.089 89.9513C113.657 89.9513 116.069 90.6989 118.444 92.2303C122.894 95.1 125.233 98.3074 125.631 102.057C126.053 105.928 125.257 109.256 123.207 112.246ZM158.307 32.5079C157.114 36.6075 155.221 41.7683 152.676 47.8454C150.072 54.0311 147.323 60.0721 144.501 65.7995C141.535 71.7802 138.858 76.748 136.326 81.0044C132.974 86.6595 131.804 87.4433 131.611 87.5398L131.382 87.6483L131.201 87.793C131.201 87.793 130.96 87.9618 130.164 87.9618C128.898 87.9618 126.282 87.5277 121.037 85.4899C117.419 84.0792 114.501 82.6564 112.355 81.2697C111.668 80.8356 111.029 80.3654 110.45 79.8831C109.871 79.4007 109.437 78.9546 109.099 78.5446C109.027 78.3999 108.46 77.0133 110.329 70.0559C111.788 64.6179 113.73 58.4925 116.093 51.8727C117.492 47.9178 118.987 43.9266 120.542 39.9837C120.542 39.9837 121.447 37.7048 121.832 36.7281L122.363 35.4379C122.701 34.618 123.038 33.8101 123.376 33.0023C125.848 27.0939 127.656 23.151 128.73 21.3062C129.164 20.5706 130.514 20.4139 131.551 20.4139C132.238 20.4139 133.022 20.4742 133.902 20.6068C137.435 21.1253 141.149 22.1743 144.935 23.7177C148.721 25.2611 152.122 27.0577 155.028 29.0714C158.163 31.2298 158.307 32.3029 158.307 32.4838V32.5079ZM85.9845 43.2393C85.3213 43.1308 84.6702 43.0826 84.0432 43.0826C81.6678 43.0826 79.5095 43.8302 77.6164 45.3253C75.241 47.2064 73.8182 49.6059 73.3841 52.4274C73.2756 53.0785 73.2153 53.7296 73.2153 54.3567C73.2153 57.0817 74.2523 59.5536 76.3021 61.7119C78.4725 63.9908 81.1252 65.1363 84.1879 65.1363C84.6823 65.1363 85.2008 65.1122 85.6831 65.0519C88.2635 64.7987 90.458 63.7617 92.1943 61.9772C93.8945 60.2409 94.9555 58.1549 95.3655 55.7433C95.4861 55.0319 95.5464 54.3205 95.5464 53.6452C95.5464 51.3181 94.847 49.2441 93.4845 47.4837C91.7602 45.2289 89.2401 43.8061 85.9845 43.2393ZM87.7811 54.4652C87.6365 55.3213 87.2988 55.9845 86.6959 56.5994C86.3463 56.9611 85.8881 57.2988 84.8149 57.4073C84.5979 57.4314 84.3929 57.4435 84.1879 57.4435C83.3921 57.4435 82.6927 57.2746 81.8728 56.4065C80.9082 55.3816 80.7997 54.6581 80.9805 53.6211C81.077 52.97 81.3302 52.1862 82.3672 51.3663C82.9098 50.9443 83.3921 50.7634 84.0312 50.7634C84.2482 50.7634 84.4894 50.7875 84.6943 50.8237C86.4065 51.1131 87.0577 51.728 87.3953 52.1742C87.6003 52.4395 88.0223 52.9821 87.7811 54.4652ZM93.4845 47.4837C91.7602 45.2289 89.2401 43.8061 85.9845 43.2393C85.3213 43.1308 84.6702 43.0826 84.0432 43.0826C81.6678 43.0826 79.5095 43.8302 77.6164 45.3253C75.241 47.2064 73.8182 49.6059 73.3841 52.4274C73.2756 53.0785 73.2153 53.7296 73.2153 54.3567C73.2153 57.0817 74.2523 59.5536 76.3021 61.7119C78.4725 63.9908 81.1252 65.1363 84.1879 65.1363C84.6823 65.1363 85.2008 65.1122 85.6831 65.0519C88.2635 64.7987 90.458 63.7617 92.1943 61.9772C93.8945 60.2409 94.9555 58.1549 95.3655 55.7433C95.4861 55.0319 95.5464 54.3205 95.5464 53.6452C95.5464 51.3181 94.847 49.2441 93.4845 47.4837ZM87.7811 54.4652C87.6365 55.3213 87.2988 55.9845 86.6959 56.5994C86.3463 56.9611 85.8881 57.2988 84.8149 57.4073C84.5979 57.4314 84.3929 57.4435 84.1879 57.4435C83.3921 57.4435 82.6927 57.2746 81.8728 56.4065C80.9082 55.3816 80.7997 54.6581 80.9805 53.6211C81.077 52.97 81.3302 52.1862 82.3672 51.3663C82.9098 50.9443 83.3921 50.7634 84.0312 50.7634C84.2482 50.7634 84.4894 50.7875 84.6943 50.8237C86.4065 51.1131 87.0577 51.728 87.3953 52.1742C87.6003 52.4395 88.0223 52.9821 87.7811 54.4652ZM93.4845 47.4837C91.7602 45.2289 89.2401 43.8061 85.9845 43.2393C85.3213 43.1308 84.6702 43.0826 84.0432 43.0826C81.6678 43.0826 79.5095 43.8302 77.6164 45.3253C75.241 47.2064 73.8182 49.6059 73.3841 52.4274C73.2756 53.0785 73.2153 53.7296 73.2153 54.3567C73.2153 57.0817 74.2523 59.5536 76.3021 61.7119C78.4725 63.9908 81.1252 65.1363 84.1879 65.1363C84.6823 65.1363 85.2008 65.1122 85.6831 65.0519C88.2635 64.7987 90.458 63.7617 92.1943 61.9772C93.8945 60.2409 94.9555 58.1549 95.3655 55.7433C95.4861 55.0319 95.5464 54.3205 95.5464 53.6452C95.5464 51.3181 94.847 49.2441 93.4845 47.4837ZM87.7811 54.4652C87.6365 55.3213 87.2988 55.9845 86.6959 56.5994C86.3463 56.9611 85.8881 57.2988 84.8149 57.4073C84.5979 57.4314 84.3929 57.4435 84.1879 57.4435C83.3921 57.4435 82.6927 57.2746 81.8728 56.4065C80.9082 55.3816 80.7997 54.6581 80.9805 53.6211C81.077 52.97 81.3302 52.1862 82.3672 51.3663C82.9098 50.9443 83.3921 50.7634 84.0312 50.7634C84.2482 50.7634 84.4894 50.7875 84.6943 50.8237C86.4065 51.1131 87.0577 51.728 87.3953 52.1742C87.6003 52.4395 88.0223 52.9821 87.7811 54.4652Z" fill="#211E1B"/>
<path d="M26.4313 70.6827C27.1668 70.116 28.2882 68.0421 29.7954 64.4609C33.2198 67.6321 36.4754 70.538 39.5622 73.2028C41.5277 74.903 43.1434 76.1932 44.3854 77.0734C45.1088 77.5919 45.6997 77.9777 46.182 78.2189C47.1828 78.7132 48.485 78.46 50.0646 77.4592C50.4263 77.2422 50.7881 76.9769 51.1739 76.6875C51.3427 76.5549 51.5115 76.4222 51.6803 76.2776C52.3435 75.7591 52.9826 75.1924 53.6217 74.5895C54.8395 73.4319 56.0212 72.1297 57.1667 70.6827C59.0477 68.2953 60.5549 65.9199 61.6763 63.5324C62.8097 61.1571 63.0147 59.5292 62.3033 58.6611C59.4576 55.3211 55.5147 51.342 50.4625 46.7359C55.1771 43.9385 59.3612 41.2496 63.0388 38.7054C66.7044 36.1491 68.6457 34.3284 68.8507 33.2311C69.2245 32.1821 68.2357 29.5294 65.8724 25.2971C65.4263 24.4892 64.9801 23.7296 64.546 23.0182C64.0758 22.2465 63.6296 21.523 63.1714 20.8719C61.8692 18.9667 60.6514 17.5319 59.5179 16.5913C58.7824 16.0367 56.8652 16.2296 53.7663 17.1581C50.6675 18.0986 47.1345 19.4852 43.1916 21.306C43.5534 19.7505 43.8548 18.3397 44.096 17.0616C44.3371 15.7835 44.5542 14.5415 44.7592 13.3599C44.9039 12.2747 43.674 11.1533 41.0936 9.98366C38.5012 8.81406 35.559 7.84943 32.2673 7.1139C28.9875 6.37838 25.8646 6.00458 22.8983 5.98047C19.9442 5.98047 18.1717 6.5713 17.6049 7.81326C16.773 9.8028 15.5792 13.8542 14.0238 19.9555C12.4683 26.0567 10.9973 32.4594 9.62267 39.1395C8.24808 45.8195 7.19905 51.8966 6.48763 57.3588C5.76417 62.821 5.82445 65.8837 6.64439 66.5469C8.48923 68.0179 12.0101 69.3081 17.2191 70.4175C22.4281 71.5268 25.5028 71.6112 26.4313 70.6827Z" fill="#FECB37"/>
<path d="M56.9853 106.036C56.8527 105.542 56.7321 105.036 56.5995 104.517C56.1775 102.817 55.7313 101.117 55.2731 99.4045C54.5617 96.7036 53.8021 93.9906 53.0183 91.2414C51.7764 86.9006 50.6429 83.3315 49.5939 80.5582C49.5577 80.4738 49.5336 80.4014 49.4974 80.317C49.196 79.6177 48.1228 79.3403 46.2418 79.4609C45.4339 79.5091 44.614 79.6177 43.77 79.7624C42.6486 79.9553 41.491 80.2447 40.2973 80.6064C38.2113 81.2455 36.3544 82.0413 34.7145 83.0059C33.0747 83.9826 32.3753 84.9352 32.5803 85.8877C32.7129 86.6715 33.0264 87.8652 33.5329 89.4689C34.0393 91.0726 34.606 92.9174 35.233 95.0034C33.9428 93.8941 31.9292 92.3025 29.1921 90.2165C26.4429 88.1305 24.3207 86.9729 22.8014 86.7318C21.7765 86.5871 20.3778 86.6474 18.6053 86.9126C16.8328 87.1779 15.1085 87.5638 13.4204 88.0702C11.7323 88.5766 10.2854 89.1554 9.05549 89.8186C7.83766 90.4697 7.25888 91.0967 7.33123 91.6875C7.64473 94.6297 8.34408 98.3676 9.42929 102.865C10.5265 107.375 11.7082 111.788 12.9863 116.117C14.2765 120.445 15.5185 124.256 16.7243 127.523C17.93 130.803 18.8344 132.672 19.4252 133.142C20.0161 133.83 22.09 133.769 25.6832 132.974C29.2644 132.178 31.7001 131.249 32.9662 130.188C33.4002 129.826 33.4243 128.343 33.0626 125.751C32.7129 123.171 32.2065 120.096 31.5554 116.515C31.9654 116.852 32.8938 117.527 34.3407 118.54C35.7997 119.565 37.3914 120.638 39.1277 121.76C40.864 122.881 42.5401 123.906 44.1558 124.822C45.7716 125.739 46.9532 126.257 47.7008 126.378C48.2314 126.462 49.1598 126.39 50.4982 126.161C51.8366 125.92 53.2112 125.594 54.622 125.172C56.0328 124.75 57.2988 124.268 58.4202 123.737C59.5416 123.207 60.1565 122.676 60.2651 122.134C60.3253 121.531 60.0118 119.541 59.3125 116.153C58.6975 113.175 57.9138 109.798 56.9853 106.036Z" fill="#FECB37"/>
<path d="M156.005 27.6615C152.99 25.5876 149.517 23.7427 145.574 22.139C141.644 20.5353 137.833 19.4622 134.156 18.9196C130.478 18.3649 128.187 18.8714 127.259 20.4389C126.137 22.3681 124.317 26.3352 121.796 32.34C121.278 33.5698 120.772 34.8239 120.253 36.0779C119.819 37.1631 119.385 38.2603 118.951 39.3576C117.432 43.2161 115.936 47.1952 114.477 51.2948C112.114 57.9266 110.173 64.04 108.678 69.6107C107.182 75.1934 106.869 78.5214 107.749 79.5825C108.171 80.113 108.702 80.6436 109.341 81.1862C109.944 81.6926 110.643 82.2111 111.439 82.7175C113.67 84.1645 116.672 85.6235 120.422 87.0825C126.897 89.6025 130.84 90.2778 132.275 89.1202C133.36 88.662 135.205 86.2384 137.797 81.8735C140.402 77.5085 143.139 72.396 146.033 66.56C148.915 60.712 151.652 54.6951 154.256 48.5095C156.849 42.3118 158.742 37.139 159.947 32.9911C160.333 31.52 159.019 29.7475 156.005 27.6615Z" fill="#E30613"/>
<path d="M119.373 90.7952C114.983 87.9737 110.257 87.4914 105.18 89.3724C104.927 89.4689 104.662 89.5653 104.421 89.6739C103.589 90.0235 102.805 90.4094 102.082 90.8555C98.7537 92.8451 96.535 95.7872 95.4016 99.6577C94.3164 103.179 94.437 106.615 95.7513 109.967C95.9804 110.558 96.2456 111.137 96.5591 111.691C96.957 112.475 97.4273 113.211 97.9699 113.91C99.1274 115.478 100.598 116.816 102.359 117.937C106.688 120.687 110.908 121.422 115.032 120.12C119.168 118.83 122.363 116.527 124.618 113.211C126.885 109.907 127.789 106.133 127.331 101.876C126.885 97.62 124.232 93.9303 119.373 90.7952Z" fill="#E30613"/>
</g>
<defs>
<clipPath id="clip0_4234_5591">
<rect width="166" height="139.593" fill="white"/>
</clipPath>
</defs>
</svg>
