<?xml version="1.0" encoding="UTF-8"?>
<svg id="Calque_1" data-name="Calque 1" xmlns="http://www.w3.org/2000/svg" viewBox="0 0 250 250">
  <defs>
    <style>
      .cls-1 {
        fill: #1d1d1b;
      }
    </style>
  </defs>
  <path class="cls-1" d="m121.61,66.32c-9.28-.59-17.21-3.04-23.7-7.25-6.5-4.3-9.95-11.9-10.46-22.69-.42-11.47,3.12-20.08,10.71-25.98,7.59-5.91,17.63-8.52,30.2-7.76,8.86.51,16.53,2.78,23.03,6.83,6.5,4.05,10.21,11.47,11.05,22.35.93,11.56-2.62,20.33-10.46,26.49-7.85,6.07-17.97,8.77-30.37,8.01Z"/>
  <path class="cls-1" d="m121.61,247.37c-9.28-.59-17.21-3.04-23.7-7.25-6.5-4.3-9.95-11.9-10.46-22.69-.42-11.47,3.12-20.08,10.71-25.98,7.59-5.91,17.63-8.52,30.2-7.76,8.86.51,16.53,2.78,23.03,6.83,6.5,4.05,10.21,11.47,11.05,22.35.93,11.56-2.62,20.33-10.46,26.49-7.85,6.07-17.97,8.77-30.37,8.01Z"/>
  <path class="cls-1" d="m121.61,156.2c-9.28-.59-17.21-3.04-23.7-7.25-6.5-4.3-9.95-11.9-10.46-22.69-.42-11.47,3.12-20.08,10.71-25.98,7.59-5.91,17.63-8.52,30.2-7.76,8.86.51,16.53,2.78,23.03,6.83,6.5,4.05,10.21,11.47,11.05,22.35.93,11.56-2.62,20.33-10.46,26.49-7.85,6.07-17.97,8.77-30.37,8.01Z"/>
</svg>