<svg width="54" height="54" viewBox="0 0 54 54" fill="none" xmlns="http://www.w3.org/2000/svg">
<path d="M21.6663 37.6663C22.4219 37.6663 23.0552 37.4108 23.5663 36.8997C24.0775 36.3886 24.333 35.7552 24.333 34.9997V18.9997C24.333 18.2441 24.0775 17.6108 23.5663 17.0997C23.0552 16.5886 22.4219 16.333 21.6663 16.333C20.9108 16.333 20.2775 16.5886 19.7663 17.0997C19.2552 17.6108 18.9997 18.2441 18.9997 18.9997V34.9997C18.9997 35.7552 19.2552 36.3886 19.7663 36.8997C20.2775 37.4108 20.9108 37.6663 21.6663 37.6663ZM32.333 37.6663C33.0886 37.6663 33.7219 37.4108 34.233 36.8997C34.7441 36.3886 34.9997 35.7552 34.9997 34.9997V18.9997C34.9997 18.2441 34.7441 17.6108 34.233 17.0997C33.7219 16.5886 33.0886 16.333 32.333 16.333C31.5775 16.333 30.9441 16.5886 30.433 17.0997C29.9219 17.6108 29.6663 18.2441 29.6663 18.9997V34.9997C29.6663 35.7552 29.9219 36.3886 30.433 36.8997C30.9441 37.4108 31.5775 37.6663 32.333 37.6663ZM26.9997 53.6663C23.3108 53.6663 19.8441 52.9663 16.5997 51.5663C13.3552 50.1663 10.533 48.2663 8.13301 45.8663C5.73301 43.4663 3.83301 40.6441 2.43301 37.3997C1.03301 34.1552 0.333008 30.6886 0.333008 26.9997C0.333008 23.3108 1.03301 19.8441 2.43301 16.5997C3.83301 13.3552 5.73301 10.533 8.13301 8.13301C10.533 5.73301 13.3552 3.83301 16.5997 2.43301C19.8441 1.03301 23.3108 0.333008 26.9997 0.333008C30.6886 0.333008 34.1552 1.03301 37.3997 2.43301C40.6441 3.83301 43.4663 5.73301 45.8663 8.13301C48.2663 10.533 50.1663 13.3552 51.5663 16.5997C52.9663 19.8441 53.6663 23.3108 53.6663 26.9997C53.6663 30.6886 52.9663 34.1552 51.5663 37.3997C50.1663 40.6441 48.2663 43.4663 45.8663 45.8663C43.4663 48.2663 40.6441 50.1663 37.3997 51.5663C34.1552 52.9663 30.6886 53.6663 26.9997 53.6663Z" fill="white"/>
</svg>
