<svg width="54" height="54" viewBox="0 0 54 54" fill="none" xmlns="http://www.w3.org/2000/svg">
<path d="M23.3997 36.9997L36.3997 28.6663C37.0219 28.2663 37.333 27.7108 37.333 26.9997C37.333 26.2886 37.0219 25.733 36.3997 25.333L23.3997 16.9997C22.733 16.5552 22.0552 16.5219 21.3663 16.8997C20.6775 17.2775 20.333 17.8663 20.333 18.6663V35.333C20.333 36.133 20.6775 36.7219 21.3663 37.0997C22.0552 37.4775 22.733 37.4441 23.3997 36.9997ZM26.9997 53.6663C23.3108 53.6663 19.8441 52.9663 16.5997 51.5663C13.3552 50.1663 10.533 48.2663 8.13301 45.8663C5.73301 43.4663 3.83301 40.6441 2.43301 37.3997C1.03301 34.1552 0.333008 30.6886 0.333008 26.9997C0.333008 23.3108 1.03301 19.8441 2.43301 16.5997C3.83301 13.3552 5.73301 10.533 8.13301 8.13301C10.533 5.73301 13.3552 3.83301 16.5997 2.43301C19.8441 1.03301 23.3108 0.333008 26.9997 0.333008C30.6886 0.333008 34.1552 1.03301 37.3997 2.43301C40.6441 3.83301 43.4663 5.73301 45.8663 8.13301C48.2663 10.533 50.1663 13.3552 51.5663 16.5997C52.9663 19.8441 53.6663 23.3108 53.6663 26.9997C53.6663 30.6886 52.9663 34.1552 51.5663 37.3997C50.1663 40.6441 48.2663 43.4663 45.8663 45.8663C43.4663 48.2663 40.6441 50.1663 37.3997 51.5663C34.1552 52.9663 30.6886 53.6663 26.9997 53.6663Z" fill="white"/>
</svg>
