<?xml version="1.0" encoding="UTF-8"?>
<svg id="Calque_1" data-name="Calque 1" xmlns="http://www.w3.org/2000/svg" viewBox="0 0 250 250">
  <defs>
    <style>
      .cls-1 {
        fill: #1d1d1b;
      }
    </style>
  </defs>
  <path class="cls-1" d="m206.02,39.14v-1.73c0-19.29-15.63-34.91-34.91-34.91H43.49C20.85,2.5,2.5,20.85,2.5,43.5v127.58c0,18.94,15.11,34.32,33.91,34.88v1.04c0,22.36,18.11,40.51,40.48,40.51h119.73c28.1,0,50.88-22.78,50.88-50.88v-100.86c0-26.55-17.42-49.01-41.48-56.62ZM60.16,61.95c2.28-7.74,6.84-14.28,13.62-19.7,6.77-5.39,14.17-8.43,22.23-9.13,9.61-.73,18.35.97,26.2,5.05,7.84,4.11,14.07,9.51,18.7,16.25,4.63,6.74,7.26,14.24,7.92,22.54.66,8.26-1.42,16.18-6.22,23.71-4.91,7.81-13.55,13.24-25.92,16.31-2.97.76-4.32,3.25-4.08,7.57.14,1.69-1.49,2.94-4.94,3.77-3.42.79-7.22,1.24-11.41,1.28-4.15.03-7.95-.31-11.34-1.04-3.39-.73-4.94-1.83-4.63-3.35-1.17-7.47-1.17-13.58-.07-18.35,1.14-4.77,3.15-8.81,6.02-12.17,3.66-4.22,8.4-7.05,14.24-8.54,5.84-1.49,9.37-3.32,10.54-5.46,2.32-4.39.17-7.33-6.43-8.85-6.6-1.49-10.34-.21-11.16,3.8-.69,2.77-2.59,4.04-5.81,3.77-3.73-.14-7.95-1-12.69-2.59-4.74-1.59-8.47-3.59-11.27-6.01-3.18-2.59-4.32-5.53-3.49-8.85Zm53.19,100c-3.28,4.74-7.78,7.4-13.44,7.98-6.15.52-11.48-1.42-15.9-5.88-4.46-4.42-6.12-9.71-5.01-15.9.86-5.05,3.39-9.13,7.57-12.24,4.22-3.11,8.92-4.18,14.14-3.28,3.84.76,7.22,2.25,10.16,4.49,2.9,2.21,4.77,5.32,5.6,9.3,1.24,5.6.21,10.78-3.11,15.52Zm114.79,23.47c0,23.57-19.12,42.72-42.72,42.72h-102.69c-13.27,0-24.23-9.54-26.55-22.12h114.34c19.6,0,35.5-15.9,35.5-35.5V63.54c13.31,8.64,22.12,23.61,22.12,40.65v81.23Z"/>
</svg>