<?xml version="1.0" encoding="UTF-8"?>
<svg id="Calque_1" data-name="Calque 1" xmlns="http://www.w3.org/2000/svg" viewBox="0 0 250 250">
  <defs>
    <style>
      .cls-1 {
        fill: #1d1d1b;
      }
    </style>
  </defs>
  <path class="cls-1" d="m247.3,206.74c-.1-2.45-3.44-7.79-10-16.06-6.57-8.27-14.46-17.35-23.64-27.25-2.18-2.31-4.35-4.66-6.6-6.94,6.74-14.05,10.51-29.77,10.51-46.4,0-59.4-48.14-107.57-107.53-107.57S2.5,50.69,2.5,110.09s48.14,107.54,107.53,107.54c15.89,0,30.92-3.44,44.5-9.59,2.04,1.77,4.15,3.57,6.26,5.38,11.12,9.49,21.57,17.76,31.26,24.77,9.73,7.01,15.96,10.07,18.68,9.15,6.26-2.01,14.22-8.37,23.88-19.08,9.66-10.72,13.88-17.86,12.69-21.5Zm-137.57-41.78c-.85.03-1.7.07-2.59.07-33.34,0-60.35-27.01-60.35-60.35,0-21.53,11.29-40.45,28.3-51.1,1.29,12.45,11.84,22.11,24.6,22.11,13.68,0,24.77-11.09,24.77-24.77,0-1.39-.1-2.79-.38-4.12,25.07,7.28,43.41,30.45,43.41,57.87,0,4.42-.48,8.71-1.4,12.86-5.68,26.33-28.61,46.27-56.37,47.42Z"/>
</svg>