<?xml version="1.0" encoding="UTF-8"?>
<svg id="Calque_1" data-name="Calque 1" xmlns="http://www.w3.org/2000/svg" viewBox="0 0 250 250">
  <defs>
    <style>
      .cls-1 {
        fill: #1d1d1b;
      }
    </style>
  </defs>
  <path class="cls-1" d="m231.54,97.88h-13.17c-10.31,0-15.45-12.45-8.17-19.74l9.29-9.32c6.23-6.23,6.23-16.33,0-22.56l-15.79-15.79c-6.23-6.23-16.33-6.23-22.56,0l-9.32,9.32c-7.28,7.28-19.7,2.11-19.7-8.17v-13.2c0-8.81-7.15-15.92-15.96-15.92h-22.32c-8.81,0-15.96,7.11-15.96,15.92v13.2c0,10.28-12.45,15.45-19.74,8.17l-9.32-9.32c-6.23-6.23-16.33-6.23-22.56,0l-15.79,15.79c-6.23,6.23-6.23,16.33,0,22.56l9.32,9.32c7.28,7.28,2.11,19.74-8.17,19.74h-13.2c-8.78,0-15.93,7.15-15.93,15.92v22.36c0,8.81,7.15,15.96,15.93,15.96h13.2c10.28,0,15.45,12.42,8.17,19.7l-9.32,9.32c-6.23,6.23-6.23,16.33,0,22.56l15.79,15.79c6.23,6.23,16.33,6.23,22.56,0l9.32-9.32c7.28-7.28,19.74-2.11,19.74,8.2v13.17c0,8.81,7.15,15.96,15.96,15.96h22.32c8.81,0,15.96-7.15,15.96-15.96v-13.17c0-10.31,12.42-15.48,19.7-8.2l9.32,9.32c6.23,6.23,16.33,6.23,22.56,0l15.79-15.79c6.23-6.23,6.23-16.33,0-22.56l-9.29-9.32c-7.28-7.28-2.14-19.7,8.17-19.7h13.17c8.81,0,15.96-7.15,15.96-15.96v-22.36c0-8.78-7.15-15.92-15.96-15.92Zm-106.54,69.21c-23.27,0-42.13-18.85-42.13-42.09s18.85-42.13,42.13-42.13,42.09,18.85,42.09,42.13-18.85,42.09-42.09,42.09Z"/>
  <circle class="cls-1" cx="124.99" cy="124.99" r="19.14"/>
</svg>