<?xml version="1.0" encoding="UTF-8"?>
<svg id="Calque_1" data-name="Calque 1" xmlns="http://www.w3.org/2000/svg" viewBox="0 0 250 250">
  <defs>
    <style>
      .cls-1 {
        fill: #1d1d1b;
      }
    </style>
  </defs>
  <path class="cls-1" d="m181.92,2.5c-35.82,0-64.87,29.04-64.87,64.87,0,.92.1,1.82.14,2.73-.79.33-1.61.68-2.47,1.05-7.38,3.17-14.97,6.67-22.77,10.52-6.52,3.22-12.43,6.37-17.77,9.46-7.39-5.44-16.5-8.7-26.38-8.7-24.63,0-44.59,19.96-44.59,44.59s19.96,44.59,44.59,44.59c3.3,0,6.5-.38,9.59-1.06,4.39,3.74,9.26,7.63,14.61,11.68,4.63,3.5,9.18,6.77,13.69,9.93-.86,3.45-1.36,7.04-1.36,10.76,0,24.63,19.96,44.59,44.59,44.59s44.59-19.96,44.59-44.59-19.96-44.59-44.59-44.59c-3.98,0-7.81.57-11.48,1.55-.84-.58-1.63-1.13-2.51-1.73-6.88-4.62-13.78-8.97-20.71-13.05-1.57-.92-3.11-1.8-4.61-2.66,1.77-4.8,2.79-9.96,2.79-15.37,4.47-1.35,9.26-2.93,14.44-4.77,7.58-2.71,15.17-5.7,22.79-8.94,1.64-.7,3.17-1.38,4.67-2.06,11.85,12.84,28.78,20.94,47.63,20.94,35.82,0,64.87-29.04,64.87-64.87S217.75,2.5,181.92,2.5Z"/>
</svg>