<?xml version="1.0" encoding="UTF-8"?>
<svg id="Calque_1" data-name="Calque 1" xmlns="http://www.w3.org/2000/svg" viewBox="0 0 250 250">
  <defs>
    <style>
      .cls-1 {
        fill: #1d1d1b;
      }
    </style>
  </defs>
  <path class="cls-1" d="m242.96,76.93c-1.72-13.4-4.19-20.5-7.51-21.41-4.05-1.02-12.06-1.49-23.97-1.37-11.91.15-24.32.96-37.19,2.53l-.18.03c-8.36,1.02-15.93-5.13-16.69-13.51-.47-5.18-1.05-10.25-1.75-15.12-2.1-15.03-5.18-23.01-9.29-24.03-5.04-1.14-14.94-1.66-29.7-1.54-14.77.17-30.14,1.08-46.1,2.85-3.67.41-7.25.84-10.78,1.34-11.77,1.6-22.63,3.7-32.62,6.29-12.99,3.35-20.24,7.6-21.67,12.7-.06.23-.15.47-.2.7-.52,8.39-.84,22.45-.99,42.11-.12,19.75,0,40.19.44,61.3.06,3.17.12,6.38.2,9.61.61,24.55,1.6,46.89,3.06,66.87,1.46,20.04,3.41,31.19,5.91,33.49,5.68,5.45,15.64,8.01,29.91,7.69,14.27-.29,22.31-3.26,24.14-8.88,1.72-2.91,3.38-13.16,4.95-30.7,1.48-16.28,2.71-34.8,3.67-55.51,11.56.9,23.27,1.31,35.12,1.22h.09c4.14-.03,7.6,3,8.13,7.11.84,6.47,1.95,10.43,3.35,11.94,1.54,3.06,6.96,5.82,16.16,8.36,9.23,2.56,19.8,4.48,31.72,5.91,11.91,1.34,24.03,1.95,36.32,1.89,12.29-.15,22.37-1.19,30.23-3.12,2.74-.82,4.8-7.89,6.14-21.26,1.34-13.34,1.95-27.9,1.83-43.74-.12-15.79-1.02-30.38-2.74-43.77Z"/>
</svg>