<svg width="375" height="812" viewBox="0 0 375 812" fill="none" xmlns="http://www.w3.org/2000/svg">
<g clip-path="url(#clip0_4317_5491)">
<rect width="375" height="812" fill="#FFCC33"/>
<path d="M166.069 802V794.575H164.529V793.805H166.949V802H166.069ZM169.793 802V800.79H170.673V802H169.793ZM176.344 802.132C175.699 802.132 175.13 801.956 174.639 801.604C174.155 801.245 173.777 800.75 173.506 800.119C173.235 799.481 173.099 798.74 173.099 797.897C173.099 797.054 173.235 796.317 173.506 795.686C173.777 795.048 174.155 794.553 174.639 794.201C175.123 793.849 175.688 793.673 176.333 793.673C176.978 793.673 177.543 793.849 178.027 794.201C178.511 794.553 178.889 795.048 179.16 795.686C179.431 796.317 179.567 797.054 179.567 797.897C179.567 798.74 179.431 799.481 179.16 800.119C178.896 800.757 178.522 801.252 178.038 801.604C177.554 801.956 176.989 802.132 176.344 802.132ZM176.344 801.307C176.813 801.307 177.224 801.164 177.576 800.878C177.928 800.592 178.203 800.196 178.401 799.69C178.599 799.177 178.698 798.579 178.698 797.897C178.698 797.215 178.599 796.621 178.401 796.115C178.203 795.602 177.928 795.206 177.576 794.927C177.224 794.641 176.81 794.498 176.333 794.498C175.864 794.498 175.453 794.641 175.101 794.927C174.749 795.206 174.474 795.602 174.276 796.115C174.078 796.621 173.979 797.215 173.979 797.897C173.979 798.572 174.078 799.166 174.276 799.679C174.474 800.192 174.749 800.592 175.101 800.878C175.46 801.164 175.875 801.307 176.344 801.307ZM181.997 802V800.79H182.877V802H181.997ZM188.548 802.132C187.903 802.132 187.335 801.956 186.843 801.604C186.359 801.245 185.982 800.75 185.71 800.119C185.439 799.481 185.303 798.74 185.303 797.897C185.303 797.054 185.439 796.317 185.71 795.686C185.982 795.048 186.359 794.553 186.843 794.201C187.327 793.849 187.892 793.673 188.537 793.673C189.183 793.673 189.747 793.849 190.231 794.201C190.715 794.553 191.093 795.048 191.364 795.686C191.636 796.317 191.771 797.054 191.771 797.897C191.771 798.74 191.636 799.481 191.364 800.119C191.1 800.757 190.726 801.252 190.242 801.604C189.758 801.956 189.194 802.132 188.548 802.132ZM188.548 801.307C189.018 801.307 189.428 801.164 189.78 800.878C190.132 800.592 190.407 800.196 190.605 799.69C190.803 799.177 190.902 798.579 190.902 797.897C190.902 797.215 190.803 796.621 190.605 796.115C190.407 795.602 190.132 795.206 189.78 794.927C189.428 794.641 189.014 794.498 188.537 794.498C188.068 794.498 187.657 794.641 187.305 794.927C186.953 795.206 186.678 795.602 186.48 796.115C186.282 796.621 186.183 797.215 186.183 797.897C186.183 798.572 186.282 799.166 186.48 799.679C186.678 800.192 186.953 800.592 187.305 800.878C187.665 801.164 188.079 801.307 188.548 801.307ZM194.201 802V800.79H195.081V802H194.201ZM201.39 802V800.064H197.221V799.349L201.39 793.805H202.16V799.349H203.161V800.064H202.16V802H201.39ZM197.892 799.668L197.793 799.349H201.39V794.564L201.665 794.641L197.892 799.668ZM207.466 802.132C207.041 802.132 206.645 802.059 206.278 801.912C205.919 801.765 205.603 801.556 205.332 801.285C205.061 801.014 204.855 800.691 204.716 800.317L205.387 799.987C205.556 800.412 205.831 800.75 206.212 800.999C206.601 801.241 207.019 801.362 207.466 801.362C207.825 801.362 208.144 801.278 208.423 801.109C208.709 800.94 208.933 800.713 209.094 800.427C209.255 800.134 209.336 799.807 209.336 799.448C209.336 799.074 209.252 798.744 209.083 798.458C208.922 798.172 208.702 797.948 208.423 797.787C208.144 797.618 207.829 797.534 207.477 797.534C207.118 797.534 206.784 797.618 206.476 797.787C206.175 797.948 205.955 798.146 205.816 798.381L205.123 798.249L205.739 793.805H209.886V794.575H206.058L206.399 794.278L205.904 797.776L205.563 797.622C205.82 797.307 206.12 797.083 206.465 796.951C206.81 796.812 207.162 796.742 207.521 796.742C208.049 796.742 208.515 796.867 208.918 797.116C209.321 797.358 209.637 797.684 209.864 798.095C210.099 798.498 210.216 798.949 210.216 799.448C210.216 799.954 210.095 800.412 209.853 800.823C209.618 801.226 209.292 801.545 208.874 801.78C208.463 802.015 207.994 802.132 207.466 802.132Z" fill="black"/>
<g clip-path="url(#clip1_4317_5491)">
<rect x="32" y="651" width="312" height="40" rx="20" fill="white"/>
<g clip-path="url(#clip2_4317_5491)">
<path d="M82.4144 667.182C82.2752 667.29 79.8176 668.674 79.8176 671.754C79.8176 675.315 82.9448 676.575 83.0384 676.606C83.024 676.683 82.5416 678.332 81.3896 680.012C80.3624 681.49 79.2896 682.966 77.6576 682.966C76.0256 682.966 75.6056 682.018 73.7216 682.018C71.8856 682.018 71.2328 682.998 69.74 682.998C68.2472 682.998 67.2056 681.63 66.008 679.95C64.6208 677.977 63.5 674.912 63.5 672.003C63.5 667.338 66.5336 664.863 69.5192 664.863C71.1056 664.863 72.428 665.905 73.424 665.905C74.372 665.905 75.8504 664.801 77.6552 664.801C78.3392 664.801 80.7968 664.863 82.4144 667.182ZM76.7984 662.826C77.5448 661.94 78.0728 660.711 78.0728 659.482C78.0728 659.312 78.0584 659.139 78.0272 659C76.8128 659.046 75.368 659.809 74.4968 660.819C73.8128 661.597 73.1744 662.826 73.1744 664.071C73.1744 664.258 73.2056 664.446 73.22 664.506C73.2968 664.52 73.4216 664.537 73.5464 664.537C74.636 664.537 76.0064 663.807 76.7984 662.826Z" fill="black"/>
</g>
<path d="M105.314 667.891C105.218 667.9 105.131 667.875 105.054 667.815C104.958 667.747 104.908 667.672 104.903 667.59C104.903 667.508 104.858 667.43 104.767 667.357C104.539 667.18 104.25 667.212 103.899 667.453C103.548 667.695 103.694 667.882 104.336 668.014C104.404 668.027 104.48 668.043 104.562 668.062C104.644 668.075 104.728 668.089 104.815 668.103C105.863 668.285 106.69 668.597 107.296 669.039C108.043 669.586 108.472 670.301 108.581 671.186C108.695 672.065 108.451 672.854 107.85 673.551C107.139 674.376 106.175 674.85 104.958 674.973C103.746 675.091 102.698 674.836 101.814 674.207C101.053 673.674 100.576 673.002 100.385 672.19C100.303 671.808 100.494 671.511 100.959 671.302C101.164 671.206 101.39 671.138 101.636 671.097C101.887 671.056 102.126 671.033 102.354 671.028C102.727 671.028 103.065 671.074 103.365 671.165C103.666 671.252 103.837 671.377 103.878 671.541C103.883 671.573 103.894 671.605 103.912 671.637C103.962 671.751 104.058 671.835 104.199 671.89C104.368 671.958 104.564 671.949 104.787 671.862C105.015 671.771 105.081 671.618 104.986 671.404C104.935 671.304 104.799 671.222 104.575 671.158C104.042 671.003 103.511 670.887 102.983 670.81C102.454 670.728 101.953 670.511 101.479 670.16C101.137 669.914 100.868 669.577 100.672 669.148C100.481 668.72 100.417 668.153 100.481 667.446C100.572 666.494 101.03 665.71 101.855 665.095C102.338 664.735 102.889 664.495 103.509 664.377C104.129 664.254 104.73 664.254 105.314 664.377C105.897 664.495 106.421 664.737 106.886 665.102C107.355 665.462 107.679 665.942 107.857 666.544C107.925 666.776 107.859 666.977 107.658 667.146C107.462 667.31 107.216 667.446 106.92 667.556C106.624 667.665 106.321 667.747 106.011 667.802C105.701 667.856 105.469 667.886 105.314 667.891ZM113.637 671.363C114.435 671.354 115.155 671.331 115.797 671.295C116.44 671.258 116.818 671.302 116.932 671.425C117.055 671.525 117.144 671.96 117.199 672.73C117.258 673.501 117.238 674.059 117.137 674.405C117.092 674.551 116.734 674.672 116.064 674.768C115.394 674.863 114.642 674.929 113.808 674.966C112.974 674.998 112.174 675.002 111.409 674.979C110.643 674.957 110.144 674.895 109.912 674.795C109.775 674.74 109.661 674.373 109.57 673.694C109.483 673.011 109.415 672.213 109.365 671.302C109.315 670.386 109.285 669.454 109.276 668.506C109.267 667.553 109.276 666.779 109.303 666.182C109.303 665.854 109.331 665.555 109.385 665.286C109.44 665.013 109.524 664.842 109.638 664.773C109.752 664.705 110.153 664.646 110.841 664.596C111.53 664.546 112.272 664.516 113.07 664.507C113.867 664.493 114.606 664.507 115.285 664.548C115.964 664.584 116.353 664.653 116.454 664.753C116.577 664.853 116.645 665.25 116.659 665.942C116.677 666.631 116.636 667.15 116.536 667.501C116.486 667.665 116.164 667.768 115.572 667.809C114.984 667.845 114.296 667.877 113.507 667.904C113.507 667.959 113.51 668.023 113.514 668.096C113.519 668.169 113.523 668.232 113.528 668.287C114.043 668.296 114.462 668.335 114.786 668.403C114.863 668.426 114.938 668.563 115.011 668.813C115.089 669.06 115.141 669.331 115.169 669.627C115.2 669.919 115.2 670.19 115.169 670.44C115.137 670.691 115.057 670.826 114.929 670.844C114.838 670.871 114.672 670.896 114.43 670.919C114.193 670.937 113.929 670.951 113.637 670.96C113.637 671.019 113.637 671.088 113.637 671.165C113.637 671.243 113.637 671.309 113.637 671.363ZM128.459 668.096C128.259 668.105 128.058 668.116 127.858 668.13C127.662 668.144 127.47 668.166 127.284 668.198C126.805 668.294 126.37 668.522 125.978 668.882C125.591 669.237 125.449 669.679 125.554 670.208C125.604 670.45 125.718 670.639 125.896 670.775C126.178 670.999 126.554 671.106 127.024 671.097C127.493 671.083 127.899 671.037 128.241 670.96C128.432 670.896 128.619 670.905 128.801 670.987C128.97 671.069 129.122 671.211 129.259 671.411C129.473 671.739 129.619 672.177 129.697 672.724C129.779 673.271 129.749 673.722 129.608 674.077C129.494 674.369 129.321 674.542 129.088 674.597C128.341 674.87 127.518 675.005 126.62 675C125.723 674.991 124.918 674.825 124.207 674.501C123.246 674.068 122.51 673.43 121.999 672.587C121.489 671.744 121.286 670.782 121.391 669.702C121.569 667.993 122.245 666.658 123.421 665.696C124.597 664.735 126.06 664.347 127.81 664.534C128.102 664.566 128.359 664.719 128.582 664.992C128.801 665.266 128.981 665.742 129.122 666.421C129.268 667.1 129.184 667.597 128.87 667.911C128.751 668.03 128.614 668.091 128.459 668.096ZM140.789 670.509C140.552 671.944 139.855 673.102 138.697 673.981C137.544 674.861 136.202 675.173 134.671 674.918C133.194 674.672 132.032 673.968 131.184 672.806C130.337 671.644 130.027 670.356 130.255 668.943C130.469 667.631 131.102 666.53 132.155 665.642C133.212 664.748 134.441 664.363 135.84 664.486C137.526 664.632 138.836 665.272 139.77 666.407C140.709 667.542 141.049 668.909 140.789 670.509ZM136.865 669.928C136.929 669.536 136.854 669.203 136.639 668.93C136.43 668.652 136.122 668.479 135.717 668.41C135.334 668.346 134.997 668.431 134.705 668.663C134.413 668.891 134.24 669.18 134.185 669.531C134.112 669.955 134.231 670.331 134.541 670.659C134.851 670.983 135.234 671.117 135.689 671.062C136.004 671.031 136.266 670.908 136.475 670.693C136.685 670.479 136.815 670.224 136.865 669.928ZM151.553 674.658C151.498 674.768 151.334 674.847 151.061 674.897C150.787 674.948 150.484 674.977 150.152 674.986C149.823 674.995 149.507 674.986 149.201 674.959C148.901 674.932 148.695 674.893 148.586 674.843C148.431 674.774 148.206 674.594 147.909 674.303C147.613 674.007 147.31 673.688 147 673.346C146.69 672.999 146.408 672.674 146.153 672.368C145.897 672.063 145.736 671.862 145.667 671.767C145.599 672.578 145.528 673.275 145.455 673.858C145.382 674.437 145.289 674.754 145.175 674.809C144.838 674.964 144.257 675.023 143.432 674.986C142.611 674.95 142.158 674.84 142.071 674.658C141.971 674.521 141.885 674.063 141.812 673.284C141.743 672.505 141.695 671.609 141.668 670.598C141.645 669.586 141.648 668.561 141.675 667.521C141.702 666.482 141.768 665.635 141.873 664.979C141.891 664.846 142.051 664.746 142.352 664.678C142.657 664.605 143.006 664.564 143.398 664.555C143.794 664.541 144.191 664.557 144.587 664.603C144.988 664.648 145.296 664.716 145.51 664.808C145.824 664.949 146.216 665.325 146.686 665.936C147.16 666.546 147.504 667.009 147.718 667.323C147.704 666.836 147.688 666.405 147.67 666.031C147.656 665.653 147.659 665.375 147.677 665.197C147.686 664.979 147.896 664.812 148.306 664.698C148.716 664.584 149.165 664.521 149.653 664.507C150.145 664.489 150.596 664.521 151.006 664.603C151.421 664.685 151.639 664.81 151.662 664.979C151.731 665.648 151.772 666.505 151.785 667.549C151.804 668.592 151.804 669.62 151.785 670.632C151.772 671.644 151.742 672.537 151.696 673.312C151.651 674.082 151.603 674.531 151.553 674.658ZM162.331 674.658C162.276 674.768 162.112 674.847 161.838 674.897C161.565 674.948 161.262 674.977 160.929 674.986C160.601 674.995 160.284 674.986 159.979 674.959C159.678 674.932 159.473 674.893 159.364 674.843C159.209 674.774 158.983 674.594 158.687 674.303C158.391 674.007 158.088 673.688 157.778 673.346C157.468 672.999 157.185 672.674 156.93 672.368C156.675 672.063 156.513 671.862 156.445 671.767C156.377 672.578 156.306 673.275 156.233 673.858C156.16 674.437 156.067 674.754 155.953 674.809C155.615 674.964 155.034 675.023 154.21 674.986C153.389 674.95 152.936 674.84 152.849 674.658C152.749 674.521 152.662 674.063 152.589 673.284C152.521 672.505 152.473 671.609 152.446 670.598C152.423 669.586 152.425 668.561 152.453 667.521C152.48 666.482 152.546 665.635 152.651 664.979C152.669 664.846 152.829 664.746 153.129 664.678C153.435 664.605 153.783 664.564 154.175 664.555C154.572 664.541 154.968 664.557 155.365 664.603C155.766 664.648 156.073 664.716 156.288 664.808C156.602 664.949 156.994 665.325 157.463 665.936C157.937 666.546 158.281 667.009 158.496 667.323C158.482 666.836 158.466 666.405 158.448 666.031C158.434 665.653 158.436 665.375 158.455 665.197C158.464 664.979 158.673 664.812 159.084 664.698C159.494 664.584 159.943 664.521 160.43 664.507C160.922 664.489 161.374 664.521 161.784 664.603C162.198 664.685 162.417 664.81 162.44 664.979C162.508 665.648 162.549 666.505 162.563 667.549C162.581 668.592 162.581 669.62 162.563 670.632C162.549 671.644 162.52 672.537 162.474 673.312C162.429 674.082 162.381 674.531 162.331 674.658ZM167.571 671.363C168.369 671.354 169.089 671.331 169.731 671.295C170.374 671.258 170.752 671.302 170.866 671.425C170.989 671.525 171.078 671.96 171.133 672.73C171.192 673.501 171.172 674.059 171.071 674.405C171.026 674.551 170.668 674.672 169.998 674.768C169.328 674.863 168.576 674.929 167.742 674.966C166.908 674.998 166.108 675.002 165.343 674.979C164.577 674.957 164.078 674.895 163.846 674.795C163.709 674.74 163.595 674.373 163.504 673.694C163.417 673.011 163.349 672.213 163.299 671.302C163.249 670.386 163.219 669.454 163.21 668.506C163.201 667.553 163.21 666.779 163.237 666.182C163.237 665.854 163.265 665.555 163.319 665.286C163.374 665.013 163.458 664.842 163.572 664.773C163.686 664.705 164.087 664.646 164.775 664.596C165.464 664.546 166.206 664.516 167.004 664.507C167.801 664.493 168.54 664.507 169.219 664.548C169.898 664.584 170.287 664.653 170.388 664.753C170.511 664.853 170.579 665.25 170.593 665.942C170.611 666.631 170.57 667.15 170.47 667.501C170.42 667.665 170.098 667.768 169.506 667.809C168.918 667.845 168.23 667.877 167.441 667.904C167.441 667.959 167.444 668.023 167.448 668.096C167.453 668.169 167.457 668.232 167.462 668.287C167.977 668.296 168.396 668.335 168.72 668.403C168.797 668.426 168.872 668.563 168.945 668.813C169.023 669.06 169.075 669.331 169.103 669.627C169.134 669.919 169.134 670.19 169.103 670.44C169.071 670.691 168.991 670.826 168.863 670.844C168.772 670.871 168.606 670.896 168.364 670.919C168.127 670.937 167.863 670.951 167.571 670.96C167.571 671.019 167.571 671.088 167.571 671.165C167.571 671.243 167.571 671.309 167.571 671.363ZM178.821 668.096C178.62 668.105 178.42 668.116 178.219 668.13C178.023 668.144 177.832 668.166 177.645 668.198C177.166 668.294 176.731 668.522 176.339 668.882C175.952 669.237 175.811 669.679 175.915 670.208C175.966 670.45 176.079 670.639 176.257 670.775C176.54 670.999 176.916 671.106 177.385 671.097C177.855 671.083 178.26 671.037 178.602 670.96C178.793 670.896 178.98 670.905 179.162 670.987C179.331 671.069 179.484 671.211 179.62 671.411C179.835 671.739 179.981 672.177 180.058 672.724C180.14 673.271 180.11 673.722 179.969 674.077C179.855 674.369 179.682 674.542 179.45 674.597C178.702 674.87 177.88 675.005 176.982 675C176.084 674.991 175.28 674.825 174.569 674.501C173.607 674.068 172.871 673.43 172.361 672.587C171.85 671.744 171.648 670.782 171.752 669.702C171.93 667.993 172.607 666.658 173.783 665.696C174.958 664.735 176.421 664.347 178.171 664.534C178.463 664.566 178.72 664.719 178.944 664.992C179.162 665.266 179.342 665.742 179.484 666.421C179.63 667.1 179.545 667.597 179.231 667.911C179.112 668.03 178.976 668.091 178.821 668.096ZM187.725 674.665C187.675 674.756 187.509 674.829 187.226 674.884C186.944 674.938 186.625 674.973 186.269 674.986C185.918 675 185.57 674.993 185.223 674.966C184.877 674.938 184.615 674.886 184.437 674.809C184.25 674.727 184.082 674.057 183.931 672.799C183.786 671.536 183.674 670.26 183.596 668.971C182.922 668.957 182.341 668.923 181.853 668.868C181.366 668.809 181.097 668.725 181.047 668.615C180.96 668.442 180.887 668.164 180.828 667.781C180.769 667.394 180.73 667 180.712 666.599C180.693 666.193 180.696 665.828 180.719 665.505C180.746 665.177 180.805 664.988 180.896 664.938C181.028 664.833 181.475 664.748 182.236 664.685C182.997 664.621 183.872 664.577 184.861 664.555C185.85 664.527 186.855 664.521 187.876 664.534C188.897 664.543 189.735 664.568 190.391 664.609C190.651 664.628 190.829 664.851 190.925 665.279C191.02 665.708 191.054 666.177 191.027 666.688C191 667.198 190.92 667.667 190.788 668.096C190.66 668.524 190.503 668.745 190.316 668.759C190.143 668.786 189.865 668.813 189.482 668.841C189.099 668.864 188.669 668.884 188.19 668.902C188.177 670.188 188.129 671.427 188.047 672.621C187.965 673.811 187.858 674.492 187.725 674.665ZM196.049 671.363C196.847 671.354 197.567 671.331 198.209 671.295C198.852 671.258 199.23 671.302 199.344 671.425C199.467 671.525 199.556 671.96 199.611 672.73C199.67 673.501 199.649 674.059 199.549 674.405C199.503 674.551 199.146 674.672 198.476 674.768C197.806 674.863 197.054 674.929 196.22 674.966C195.386 674.998 194.586 675.002 193.82 674.979C193.055 674.957 192.556 674.895 192.323 674.795C192.187 674.74 192.073 674.373 191.982 673.694C191.895 673.011 191.827 672.213 191.777 671.302C191.726 670.386 191.697 669.454 191.688 668.506C191.679 667.553 191.688 666.779 191.715 666.182C191.715 665.854 191.742 665.555 191.797 665.286C191.852 665.013 191.936 664.842 192.05 664.773C192.164 664.705 192.565 664.646 193.253 664.596C193.941 664.546 194.684 664.516 195.482 664.507C196.279 664.493 197.017 664.507 197.696 664.548C198.375 664.584 198.765 664.653 198.865 664.753C198.988 664.853 199.057 665.25 199.07 665.942C199.089 666.631 199.048 667.15 198.947 667.501C198.897 667.665 198.576 667.768 197.984 667.809C197.396 667.845 196.708 667.877 195.919 667.904C195.919 667.959 195.921 668.023 195.926 668.096C195.931 668.169 195.935 668.232 195.94 668.287C196.455 668.296 196.874 668.335 197.197 668.403C197.275 668.426 197.35 668.563 197.423 668.813C197.5 669.06 197.553 669.331 197.58 669.627C197.612 669.919 197.612 670.19 197.58 670.44C197.548 670.691 197.469 670.826 197.341 670.844C197.25 670.871 197.084 670.896 196.842 670.919C196.605 670.937 196.341 670.951 196.049 670.96C196.049 671.019 196.049 671.088 196.049 671.165C196.049 671.243 196.049 671.309 196.049 671.363ZM207.558 670.611C208.023 670.999 208.431 671.375 208.782 671.739C209.133 672.104 209.31 672.377 209.315 672.56C209.315 672.692 209.24 672.888 209.089 673.147C208.939 673.407 208.766 673.667 208.57 673.927C208.374 674.187 208.185 674.414 208.003 674.61C207.82 674.806 207.695 674.904 207.627 674.904C207.33 674.964 206.897 674.811 206.328 674.446C205.763 674.077 205.307 673.833 204.961 673.715C204.623 673.61 204.441 673.653 204.414 673.845C204.418 674.173 204.389 674.424 204.325 674.597C204.261 674.77 204.038 674.877 203.655 674.918C203.217 674.964 202.716 674.989 202.151 674.993C201.59 674.998 201.235 674.984 201.085 674.952C200.98 674.934 200.895 674.875 200.832 674.774C200.74 674.651 200.642 674.086 200.538 673.079C200.433 672.072 200.351 670.98 200.292 669.805C200.232 668.629 200.205 667.549 200.21 666.564C200.219 665.58 200.292 665.049 200.428 664.972C200.925 664.694 201.59 664.493 202.424 664.37C203.258 664.247 204.088 664.27 204.913 664.438C205.742 664.603 206.483 664.944 207.134 665.464C207.791 665.979 208.192 666.735 208.337 667.733C208.524 669.064 208.265 670.023 207.558 670.611ZM204.12 669.312C204.466 669.276 204.735 669.148 204.926 668.93C205.118 668.711 205.211 668.483 205.207 668.246C205.207 668.009 205.097 667.804 204.878 667.631C204.664 667.458 204.329 667.396 203.874 667.446C203.5 667.487 203.352 667.82 203.429 668.444C203.511 669.064 203.741 669.354 204.12 669.312ZM213.596 674.768C213.509 674.676 213.464 674.565 213.459 674.433C213.45 673.991 213.528 673.325 213.692 672.437C213.856 671.548 214.061 670.625 214.307 669.668C214.553 668.706 214.813 667.806 215.086 666.968C215.364 666.129 215.606 665.539 215.811 665.197C215.893 665.065 216.132 664.947 216.529 664.842C216.93 664.732 217.372 664.657 217.855 664.616C218.338 664.575 218.803 664.577 219.249 664.623C219.696 664.664 220.008 664.767 220.186 664.931C220.441 665.177 220.742 665.717 221.088 666.551C221.439 667.385 221.781 668.294 222.114 669.278C222.446 670.258 222.745 671.199 223.009 672.102C223.273 673.004 223.449 673.642 223.536 674.016C223.595 674.289 223.577 674.48 223.481 674.59C223.385 674.695 223.219 674.768 222.982 674.809C222.581 674.877 222.082 674.929 221.485 674.966C220.892 674.998 220.521 675.005 220.37 674.986C220.311 674.977 220.257 674.957 220.206 674.925C220.042 674.825 219.883 674.537 219.728 674.063C219.578 673.585 219.429 673.257 219.284 673.079C219.197 672.974 219.083 672.913 218.942 672.895L217.821 672.888C217.47 672.897 217.242 673.013 217.137 673.236C217 673.523 216.845 673.842 216.672 674.193C216.499 674.544 216.371 674.761 216.289 674.843C216.248 674.893 216.187 674.927 216.105 674.945C215.918 674.986 215.476 674.998 214.779 674.979C214.086 674.957 213.692 674.886 213.596 674.768ZM218.026 668.738C217.875 668.898 217.725 669.167 217.575 669.545C217.429 669.919 217.376 670.165 217.417 670.283C217.486 670.484 217.78 670.575 218.299 670.557C218.823 670.534 219.108 670.406 219.154 670.174C219.181 670.033 219.044 669.711 218.744 669.21C218.443 668.704 218.203 668.547 218.026 668.738ZM229.685 668.957C230.023 668.182 230.369 667.408 230.724 666.633C231.08 665.858 231.397 665.234 231.675 664.76C231.789 664.564 232.067 664.502 232.509 664.575C232.951 664.644 233.404 664.785 233.869 664.999C234.338 665.213 234.744 665.471 235.086 665.771C235.432 666.072 235.567 666.353 235.489 666.612C235.393 666.922 235.154 667.512 234.771 668.383C234.388 669.249 233.969 670.149 233.513 671.083C233.058 672.017 232.616 672.863 232.187 673.619C231.759 674.376 231.451 674.797 231.264 674.884C231.182 674.925 230.996 674.954 230.704 674.973C230.412 674.991 230.098 675 229.761 675C229.428 675 229.113 674.991 228.817 674.973C228.526 674.95 228.339 674.92 228.257 674.884C228.07 674.802 227.76 674.401 227.327 673.681C226.894 672.961 226.438 672.145 225.96 671.233C225.486 670.322 225.044 669.426 224.634 668.547C224.228 667.663 223.957 667.018 223.82 666.612C223.734 666.353 223.857 666.072 224.189 665.771C224.526 665.471 224.925 665.213 225.386 664.999C225.846 664.785 226.295 664.644 226.732 664.575C227.174 664.502 227.455 664.564 227.573 664.76C227.951 665.402 228.314 666.09 228.66 666.824C229.006 667.553 229.348 668.264 229.685 668.957ZM239.916 671.363C240.714 671.354 241.434 671.331 242.076 671.295C242.719 671.258 243.097 671.302 243.211 671.425C243.334 671.525 243.423 671.96 243.478 672.73C243.537 673.501 243.516 674.059 243.416 674.405C243.371 674.551 243.013 674.672 242.343 674.768C241.673 674.863 240.921 674.929 240.087 674.966C239.253 674.998 238.453 675.002 237.688 674.979C236.922 674.957 236.423 674.895 236.191 674.795C236.054 674.74 235.94 674.373 235.849 673.694C235.762 673.011 235.694 672.213 235.644 671.302C235.594 670.386 235.564 669.454 235.555 668.506C235.546 667.553 235.555 666.779 235.582 666.182C235.582 665.854 235.61 665.555 235.664 665.286C235.719 665.013 235.803 664.842 235.917 664.773C236.031 664.705 236.432 664.646 237.12 664.596C237.808 664.546 238.551 664.516 239.349 664.507C240.146 664.493 240.885 664.507 241.564 664.548C242.243 664.584 242.632 664.653 242.733 664.753C242.856 664.853 242.924 665.25 242.938 665.942C242.956 666.631 242.915 667.15 242.815 667.501C242.764 667.665 242.443 667.768 241.851 667.809C241.263 667.845 240.575 667.877 239.786 667.904C239.786 667.959 239.789 668.023 239.793 668.096C239.798 668.169 239.802 668.232 239.807 668.287C240.322 668.296 240.741 668.335 241.065 668.403C241.142 668.426 241.217 668.563 241.29 668.813C241.368 669.06 241.42 669.331 241.447 669.627C241.479 669.919 241.479 670.19 241.447 670.44C241.416 670.691 241.336 670.826 241.208 670.844C241.117 670.871 240.951 670.896 240.709 670.919C240.472 670.937 240.208 670.951 239.916 670.96C239.916 671.019 239.916 671.088 239.916 671.165C239.916 671.243 239.916 671.309 239.916 671.363ZM251.166 668.096C250.965 668.105 250.765 668.116 250.564 668.13C250.368 668.144 250.177 668.166 249.99 668.198C249.511 668.294 249.076 668.522 248.684 668.882C248.297 669.237 248.156 669.679 248.26 670.208C248.31 670.45 248.424 670.639 248.602 670.775C248.885 670.999 249.261 671.106 249.73 671.097C250.199 671.083 250.605 671.037 250.947 670.96C251.138 670.896 251.325 670.905 251.507 670.987C251.676 671.069 251.829 671.211 251.965 671.411C252.18 671.739 252.325 672.177 252.403 672.724C252.485 673.271 252.455 673.722 252.314 674.077C252.2 674.369 252.027 674.542 251.795 674.597C251.047 674.87 250.225 675.005 249.327 675C248.429 674.991 247.625 674.825 246.914 674.501C245.952 674.068 245.216 673.43 244.706 672.587C244.195 671.744 243.992 670.782 244.097 669.702C244.275 667.993 244.952 666.658 246.128 665.696C247.303 664.735 248.766 664.347 250.516 664.534C250.808 664.566 251.065 664.719 251.289 664.992C251.507 665.266 251.687 665.742 251.829 666.421C251.975 667.1 251.89 667.597 251.576 667.911C251.457 668.03 251.321 668.091 251.166 668.096ZM256.766 674.768C256.679 674.676 256.634 674.565 256.629 674.433C256.62 673.991 256.698 673.325 256.862 672.437C257.026 671.548 257.231 670.625 257.477 669.668C257.723 668.706 257.983 667.806 258.256 666.968C258.534 666.129 258.776 665.539 258.981 665.197C259.063 665.065 259.302 664.947 259.699 664.842C260.1 664.732 260.542 664.657 261.025 664.616C261.508 664.575 261.973 664.577 262.419 664.623C262.866 664.664 263.178 664.767 263.356 664.931C263.611 665.177 263.912 665.717 264.258 666.551C264.609 667.385 264.951 668.294 265.284 669.278C265.616 670.258 265.915 671.199 266.179 672.102C266.443 673.004 266.619 673.642 266.705 674.016C266.765 674.289 266.746 674.48 266.651 674.59C266.555 674.695 266.389 674.768 266.152 674.809C265.751 674.877 265.252 674.929 264.655 674.966C264.062 674.998 263.691 675.005 263.54 674.986C263.481 674.977 263.426 674.957 263.376 674.925C263.212 674.825 263.053 674.537 262.898 674.063C262.747 673.585 262.599 673.257 262.453 673.079C262.367 672.974 262.253 672.913 262.112 672.895L260.991 672.888C260.64 672.897 260.412 673.013 260.307 673.236C260.17 673.523 260.015 673.842 259.842 674.193C259.669 674.544 259.541 674.761 259.459 674.843C259.418 674.893 259.357 674.927 259.275 674.945C259.088 674.986 258.646 674.998 257.949 674.979C257.256 674.957 256.862 674.886 256.766 674.768ZM261.196 668.738C261.045 668.898 260.895 669.167 260.745 669.545C260.599 669.919 260.546 670.165 260.587 670.283C260.656 670.484 260.95 670.575 261.469 670.557C261.993 670.534 262.278 670.406 262.324 670.174C262.351 670.033 262.214 669.711 261.913 669.21C261.613 668.704 261.373 668.547 261.196 668.738ZM275.767 669.265C275.608 670.276 275.148 671.122 274.386 671.801C273.625 672.48 272.716 672.771 271.659 672.676C271.618 673.2 271.568 673.642 271.509 674.002C271.454 674.362 271.392 674.583 271.324 674.665C271.228 674.843 270.761 674.95 269.923 674.986C269.084 675.023 268.492 674.966 268.145 674.815C267.99 674.747 267.851 674.291 267.728 673.448C267.61 672.601 267.512 671.648 267.434 670.591C267.361 669.534 267.314 668.517 267.291 667.542C267.268 666.562 267.273 665.906 267.304 665.573C267.336 665.263 267.598 665.026 268.091 664.862C268.587 664.698 269.162 664.596 269.813 664.555C270.465 664.514 271.121 664.53 271.782 664.603C272.443 664.671 272.958 664.783 273.327 664.938C275.273 665.758 276.086 667.2 275.767 669.265ZM272.828 668.444C272.723 667.952 272.39 667.676 271.83 667.617C271.725 667.613 271.641 667.615 271.577 667.624C271.139 667.701 270.941 668.014 270.982 668.561C271.023 669.107 271.169 669.463 271.42 669.627C271.529 669.704 271.695 669.723 271.919 669.682C272.251 669.632 272.5 669.49 272.664 669.258C272.832 669.021 272.887 668.75 272.828 668.444ZM285.287 669.265C285.128 670.276 284.667 671.122 283.906 671.801C283.145 672.48 282.236 672.771 281.179 672.676C281.138 673.2 281.088 673.642 281.028 674.002C280.974 674.362 280.912 674.583 280.844 674.665C280.748 674.843 280.281 674.95 279.443 674.986C278.604 675.023 278.012 674.966 277.665 674.815C277.51 674.747 277.371 674.291 277.248 673.448C277.13 672.601 277.032 671.648 276.954 670.591C276.881 669.534 276.834 668.517 276.811 667.542C276.788 666.562 276.792 665.906 276.824 665.573C276.856 665.263 277.118 665.026 277.611 664.862C278.107 664.698 278.681 664.596 279.333 664.555C279.985 664.514 280.641 664.53 281.302 664.603C281.963 664.671 282.478 664.783 282.847 664.938C284.793 665.758 285.606 667.2 285.287 669.265ZM282.348 668.444C282.243 667.952 281.91 667.676 281.35 667.617C281.245 667.613 281.161 667.615 281.097 667.624C280.659 667.701 280.461 668.014 280.502 668.561C280.543 669.107 280.689 669.463 280.94 669.627C281.049 669.704 281.215 669.723 281.439 669.682C281.771 669.632 282.02 669.49 282.184 669.258C282.352 669.021 282.407 668.75 282.348 668.444ZM290.48 664.917C290.503 665.131 290.519 665.53 290.528 666.113C290.542 666.697 290.553 667.303 290.562 667.932C290.571 668.561 290.58 669.13 290.589 669.641C290.603 670.146 290.621 670.431 290.644 670.495C290.676 670.6 290.826 670.659 291.095 670.673C291.369 670.682 291.672 670.677 292.004 670.659C292.342 670.641 292.665 670.623 292.975 670.604C293.285 670.582 293.497 670.589 293.611 670.625C293.775 670.68 293.907 670.919 294.007 671.343C294.112 671.762 294.178 672.218 294.206 672.71C294.238 673.198 294.226 673.649 294.171 674.063C294.117 674.474 294.012 674.697 293.857 674.733C293.625 674.793 293.16 674.85 292.462 674.904C291.77 674.954 291.036 674.984 290.261 674.993C289.487 675.002 288.769 674.979 288.108 674.925C287.447 674.87 287.039 674.761 286.884 674.597C286.729 674.433 286.609 673.902 286.522 673.004C286.44 672.106 286.383 671.119 286.351 670.044C286.324 668.968 286.312 667.945 286.317 666.975C286.326 666.004 286.349 665.361 286.385 665.047C286.404 664.86 286.625 664.723 287.048 664.637C287.472 664.55 287.935 664.507 288.436 664.507C288.937 664.502 289.398 664.536 289.817 664.609C290.241 664.682 290.462 664.785 290.48 664.917ZM299.118 671.363C299.916 671.354 300.636 671.331 301.278 671.295C301.921 671.258 302.299 671.302 302.413 671.425C302.536 671.525 302.625 671.96 302.68 672.73C302.739 673.501 302.718 674.059 302.618 674.405C302.573 674.551 302.215 674.672 301.545 674.768C300.875 674.863 300.123 674.929 299.289 674.966C298.455 674.998 297.655 675.002 296.89 674.979C296.124 674.957 295.625 674.895 295.393 674.795C295.256 674.74 295.142 674.373 295.051 673.694C294.964 673.011 294.896 672.213 294.846 671.302C294.796 670.386 294.766 669.454 294.757 668.506C294.748 667.553 294.757 666.779 294.784 666.182C294.784 665.854 294.811 665.555 294.866 665.286C294.921 665.013 295.005 664.842 295.119 664.773C295.233 664.705 295.634 664.646 296.322 664.596C297.01 664.546 297.753 664.516 298.551 664.507C299.348 664.493 300.087 664.507 300.766 664.548C301.445 664.584 301.834 664.653 301.935 664.753C302.058 664.853 302.126 665.25 302.14 665.942C302.158 666.631 302.117 667.15 302.017 667.501C301.966 667.665 301.645 667.768 301.053 667.809C300.465 667.845 299.777 667.877 298.988 667.904C298.988 667.959 298.991 668.023 298.995 668.096C299 668.169 299.004 668.232 299.009 668.287C299.524 668.296 299.943 668.335 300.267 668.403C300.344 668.426 300.419 668.563 300.492 668.813C300.57 669.06 300.622 669.331 300.649 669.627C300.681 669.919 300.681 670.19 300.649 670.44C300.617 670.691 300.538 670.826 300.41 670.844C300.319 670.871 300.153 670.896 299.911 670.919C299.674 670.937 299.41 670.951 299.118 670.96C299.118 671.019 299.118 671.088 299.118 671.165C299.118 671.243 299.118 671.309 299.118 671.363Z" fill="#090909"/>
</g>
<g clip-path="url(#clip3_4317_5491)">
<rect x="32" y="707" width="312" height="40" rx="20" fill="#090909"/>
<path d="M80.06 727.25C80.06 726.47 79.99 725.72 79.86 725H69.5V729.26H75.42C75.16 730.63 74.38 731.79 73.21 732.57V735.34H76.78C78.86 733.42 80.06 730.6 80.06 727.25Z" fill="#4285F4"/>
<path d="M69.4997 738C72.4697 738 74.9597 737.02 76.7797 735.34L73.2097 732.57C72.2297 733.23 70.9797 733.63 69.4997 733.63C66.6397 733.63 64.2097 731.7 63.3397 729.1H59.6797V731.94C61.4897 735.53 65.1997 738 69.4997 738Z" fill="#34A853"/>
<path d="M63.34 729.09C63.12 728.43 62.99 727.73 62.99 727C62.99 726.27 63.12 725.57 63.34 724.91V722.07H59.68C58.93 723.55 58.5 725.22 58.5 727C58.5 728.78 58.93 730.45 59.68 731.93L62.53 729.71L63.34 729.09Z" fill="#FBBC05"/>
<path d="M69.4997 720.38C71.1197 720.38 72.5597 720.94 73.7097 722.02L76.8597 718.87C74.9497 717.09 72.4697 716 69.4997 716C65.1997 716 61.4897 718.47 59.6797 722.07L63.3397 724.91C64.2097 722.31 66.6397 720.38 69.4997 720.38Z" fill="#EA4335"/>
<path d="M100.441 723.891C100.345 723.9 100.259 723.875 100.181 723.815C100.085 723.747 100.035 723.672 100.031 723.59C100.031 723.508 99.9851 723.43 99.8939 723.357C99.6661 723.18 99.3767 723.212 99.0258 723.453C98.6749 723.695 98.8207 723.882 99.4633 724.014C99.5316 724.027 99.6068 724.043 99.6889 724.062C99.7709 724.075 99.8552 724.089 99.9418 724.103C100.99 724.285 101.817 724.597 102.423 725.039C103.171 725.586 103.599 726.301 103.708 727.186C103.822 728.065 103.579 728.854 102.977 729.551C102.266 730.376 101.302 730.85 100.085 730.973C98.8731 731.091 97.8249 730.836 96.9408 730.207C96.1798 729.674 95.7035 729.002 95.5121 728.19C95.4301 727.808 95.6215 727.511 96.0863 727.302C96.2914 727.206 96.517 727.138 96.7631 727.097C97.0137 727.056 97.253 727.033 97.4809 727.028C97.8546 727.028 98.1918 727.074 98.4926 727.165C98.7934 727.252 98.9643 727.377 99.0053 727.541C99.0098 727.573 99.0212 727.605 99.0395 727.637C99.0896 727.751 99.1853 727.835 99.3266 727.89C99.4952 727.958 99.6911 727.949 99.9145 727.862C100.142 727.771 100.208 727.618 100.113 727.404C100.063 727.304 99.9258 727.222 99.7025 727.158C99.1693 727.003 98.6384 726.887 98.1098 726.81C97.5811 726.728 97.0798 726.511 96.6059 726.16C96.2641 725.914 95.9952 725.577 95.7992 725.148C95.6078 724.72 95.544 724.153 95.6078 723.446C95.699 722.494 96.157 721.71 96.9818 721.095C97.4649 720.735 98.0163 720.495 98.6361 720.377C99.2559 720.254 99.8575 720.254 100.441 720.377C101.024 720.495 101.548 720.737 102.013 721.102C102.482 721.462 102.806 721.942 102.984 722.544C103.052 722.776 102.986 722.977 102.786 723.146C102.59 723.31 102.343 723.446 102.047 723.556C101.751 723.665 101.448 723.747 101.138 723.802C100.828 723.856 100.596 723.886 100.441 723.891ZM108.764 727.363C109.562 727.354 110.282 727.331 110.925 727.295C111.567 727.258 111.945 727.302 112.059 727.425C112.182 727.525 112.271 727.96 112.326 728.73C112.385 729.501 112.365 730.059 112.264 730.405C112.219 730.551 111.861 730.672 111.191 730.768C110.521 730.863 109.769 730.929 108.935 730.966C108.101 730.998 107.302 731.002 106.536 730.979C105.77 730.957 105.271 730.895 105.039 730.795C104.902 730.74 104.788 730.373 104.697 729.694C104.61 729.011 104.542 728.213 104.492 727.302C104.442 726.386 104.412 725.454 104.403 724.506C104.394 723.553 104.403 722.779 104.43 722.182C104.43 721.854 104.458 721.555 104.512 721.286C104.567 721.013 104.651 720.842 104.765 720.773C104.879 720.705 105.28 720.646 105.969 720.596C106.657 720.546 107.4 720.516 108.197 720.507C108.995 720.493 109.733 720.507 110.412 720.548C111.091 720.584 111.481 720.653 111.581 720.753C111.704 720.853 111.772 721.25 111.786 721.942C111.804 722.631 111.763 723.15 111.663 723.501C111.613 723.665 111.291 723.768 110.699 723.809C110.111 723.845 109.423 723.877 108.635 723.904C108.635 723.959 108.637 724.023 108.641 724.096C108.646 724.169 108.651 724.232 108.655 724.287C109.17 724.296 109.589 724.335 109.913 724.403C109.99 724.426 110.066 724.563 110.138 724.813C110.216 725.06 110.268 725.331 110.296 725.627C110.328 725.919 110.328 726.19 110.296 726.44C110.264 726.691 110.184 726.826 110.056 726.844C109.965 726.871 109.799 726.896 109.557 726.919C109.32 726.937 109.056 726.951 108.764 726.96C108.764 727.019 108.764 727.088 108.764 727.165C108.764 727.243 108.764 727.309 108.764 727.363ZM123.587 724.096C123.386 724.105 123.185 724.116 122.985 724.13C122.789 724.144 122.598 724.166 122.411 724.198C121.932 724.294 121.497 724.522 121.105 724.882C120.718 725.237 120.576 725.679 120.681 726.208C120.731 726.45 120.845 726.639 121.023 726.775C121.306 726.999 121.682 727.106 122.151 727.097C122.62 727.083 123.026 727.037 123.368 726.96C123.559 726.896 123.746 726.905 123.928 726.987C124.097 727.069 124.25 727.211 124.386 727.411C124.601 727.739 124.746 728.177 124.824 728.724C124.906 729.271 124.876 729.722 124.735 730.077C124.621 730.369 124.448 730.542 124.215 730.597C123.468 730.87 122.645 731.005 121.748 731C120.85 730.991 120.046 730.825 119.335 730.501C118.373 730.068 117.637 729.43 117.127 728.587C116.616 727.744 116.413 726.782 116.518 725.702C116.696 723.993 117.373 722.658 118.548 721.696C119.724 720.735 121.187 720.347 122.937 720.534C123.229 720.566 123.486 720.719 123.71 720.992C123.928 721.266 124.108 721.742 124.25 722.421C124.395 723.1 124.311 723.597 123.997 723.911C123.878 724.03 123.741 724.091 123.587 724.096ZM135.916 726.509C135.679 727.944 134.982 729.102 133.824 729.981C132.671 730.861 131.329 731.173 129.798 730.918C128.321 730.672 127.159 729.968 126.312 728.806C125.464 727.644 125.154 726.356 125.382 724.943C125.596 723.631 126.229 722.53 127.282 721.642C128.34 720.748 129.568 720.363 130.967 720.486C132.653 720.632 133.963 721.272 134.897 722.407C135.836 723.542 136.176 724.909 135.916 726.509ZM131.992 725.928C132.056 725.536 131.981 725.203 131.767 724.93C131.557 724.652 131.249 724.479 130.844 724.41C130.461 724.346 130.124 724.431 129.832 724.663C129.54 724.891 129.367 725.18 129.312 725.531C129.24 725.955 129.358 726.331 129.668 726.659C129.978 726.983 130.361 727.117 130.816 727.062C131.131 727.031 131.393 726.908 131.603 726.693C131.812 726.479 131.942 726.224 131.992 725.928ZM146.68 730.658C146.625 730.768 146.461 730.847 146.188 730.897C145.914 730.948 145.611 730.977 145.279 730.986C144.951 730.995 144.634 730.986 144.329 730.959C144.028 730.932 143.823 730.893 143.713 730.843C143.558 730.774 143.333 730.594 143.037 730.303C142.74 730.007 142.437 729.688 142.127 729.346C141.817 728.999 141.535 728.674 141.28 728.368C141.024 728.063 140.863 727.862 140.794 727.767C140.726 728.578 140.655 729.275 140.582 729.858C140.51 730.437 140.416 730.754 140.302 730.809C139.965 730.964 139.384 731.023 138.559 730.986C137.739 730.95 137.285 730.84 137.199 730.658C137.098 730.521 137.012 730.063 136.939 729.284C136.871 728.505 136.823 727.609 136.795 726.598C136.773 725.586 136.775 724.561 136.802 723.521C136.829 722.482 136.896 721.635 137 720.979C137.019 720.846 137.178 720.746 137.479 720.678C137.784 720.605 138.133 720.564 138.525 720.555C138.921 720.541 139.318 720.557 139.714 720.603C140.115 720.648 140.423 720.716 140.637 720.808C140.952 720.949 141.343 721.325 141.813 721.936C142.287 722.546 142.631 723.009 142.845 723.323C142.831 722.836 142.815 722.405 142.797 722.031C142.784 721.653 142.786 721.375 142.804 721.197C142.813 720.979 143.023 720.812 143.433 720.698C143.843 720.584 144.292 720.521 144.78 720.507C145.272 720.489 145.723 720.521 146.133 720.603C146.548 720.685 146.767 720.81 146.789 720.979C146.858 721.648 146.899 722.505 146.912 723.549C146.931 724.592 146.931 725.62 146.912 726.632C146.899 727.644 146.869 728.537 146.824 729.312C146.778 730.082 146.73 730.531 146.68 730.658ZM157.458 730.658C157.403 730.768 157.239 730.847 156.966 730.897C156.692 730.948 156.389 730.977 156.056 730.986C155.728 730.995 155.412 730.986 155.106 730.959C154.805 730.932 154.6 730.893 154.491 730.843C154.336 730.774 154.11 730.594 153.814 730.303C153.518 730.007 153.215 729.688 152.905 729.346C152.595 728.999 152.313 728.674 152.057 728.368C151.802 728.063 151.64 727.862 151.572 727.767C151.504 728.578 151.433 729.275 151.36 729.858C151.287 730.437 151.194 730.754 151.08 730.809C150.743 730.964 150.162 731.023 149.337 730.986C148.516 730.95 148.063 730.84 147.976 730.658C147.876 730.521 147.79 730.063 147.717 729.284C147.648 728.505 147.6 727.609 147.573 726.598C147.55 725.586 147.553 724.561 147.58 723.521C147.607 722.482 147.673 721.635 147.778 720.979C147.796 720.846 147.956 720.746 148.257 720.678C148.562 720.605 148.911 720.564 149.303 720.555C149.699 720.541 150.096 720.557 150.492 720.603C150.893 720.648 151.201 720.716 151.415 720.808C151.729 720.949 152.121 721.325 152.591 721.936C153.065 722.546 153.409 723.009 153.623 723.323C153.609 722.836 153.593 722.405 153.575 722.031C153.561 721.653 153.564 721.375 153.582 721.197C153.591 720.979 153.801 720.812 154.211 720.698C154.621 720.584 155.07 720.521 155.557 720.507C156.05 720.489 156.501 720.521 156.911 720.603C157.326 720.685 157.544 720.81 157.567 720.979C157.636 721.648 157.677 722.505 157.69 723.549C157.708 724.592 157.708 725.62 157.69 726.632C157.677 727.644 157.647 728.537 157.601 729.312C157.556 730.082 157.508 730.531 157.458 730.658ZM162.698 727.363C163.496 727.354 164.216 727.331 164.859 727.295C165.501 727.258 165.879 727.302 165.993 727.425C166.116 727.525 166.205 727.96 166.26 728.73C166.319 729.501 166.299 730.059 166.198 730.405C166.153 730.551 165.795 730.672 165.125 730.768C164.455 730.863 163.703 730.929 162.869 730.966C162.035 730.998 161.236 731.002 160.47 730.979C159.704 730.957 159.205 730.895 158.973 730.795C158.836 730.74 158.722 730.373 158.631 729.694C158.544 729.011 158.476 728.213 158.426 727.302C158.376 726.386 158.346 725.454 158.337 724.506C158.328 723.553 158.337 722.779 158.364 722.182C158.364 721.854 158.392 721.555 158.446 721.286C158.501 721.013 158.585 720.842 158.699 720.773C158.813 720.705 159.214 720.646 159.903 720.596C160.591 720.546 161.334 720.516 162.131 720.507C162.929 720.493 163.667 720.507 164.346 720.548C165.025 720.584 165.415 720.653 165.515 720.753C165.638 720.853 165.706 721.25 165.72 721.942C165.738 722.631 165.697 723.15 165.597 723.501C165.547 723.665 165.225 723.768 164.633 723.809C164.045 723.845 163.357 723.877 162.569 723.904C162.569 723.959 162.571 724.023 162.575 724.096C162.58 724.169 162.585 724.232 162.589 724.287C163.104 724.296 163.523 724.335 163.847 724.403C163.924 724.426 164 724.563 164.072 724.813C164.15 725.06 164.202 725.331 164.23 725.627C164.262 725.919 164.262 726.19 164.23 726.44C164.198 726.691 164.118 726.826 163.99 726.844C163.899 726.871 163.733 726.896 163.491 726.919C163.254 726.937 162.99 726.951 162.698 726.96C162.698 727.019 162.698 727.088 162.698 727.165C162.698 727.243 162.698 727.309 162.698 727.363ZM173.948 724.096C173.747 724.105 173.547 724.116 173.346 724.13C173.15 724.144 172.959 724.166 172.772 724.198C172.294 724.294 171.858 724.522 171.466 724.882C171.079 725.237 170.938 725.679 171.043 726.208C171.093 726.45 171.207 726.639 171.384 726.775C171.667 726.999 172.043 727.106 172.512 727.097C172.982 727.083 173.387 727.037 173.729 726.96C173.921 726.896 174.107 726.905 174.29 726.987C174.458 727.069 174.611 727.211 174.748 727.411C174.962 727.739 175.108 728.177 175.185 728.724C175.267 729.271 175.238 729.722 175.096 730.077C174.982 730.369 174.809 730.542 174.577 730.597C173.829 730.87 173.007 731.005 172.109 731C171.211 730.991 170.407 730.825 169.696 730.501C168.734 730.068 167.998 729.43 167.488 728.587C166.977 727.744 166.775 726.782 166.879 725.702C167.057 723.993 167.734 722.658 168.91 721.696C170.086 720.735 171.548 720.347 173.298 720.534C173.59 720.566 173.848 720.719 174.071 720.992C174.29 721.266 174.47 721.742 174.611 722.421C174.757 723.1 174.672 723.597 174.358 723.911C174.24 724.03 174.103 724.091 173.948 724.096ZM182.853 730.665C182.802 730.756 182.636 730.829 182.354 730.884C182.071 730.938 181.752 730.973 181.396 730.986C181.046 731 180.697 730.993 180.351 730.966C180.004 730.938 179.742 730.886 179.564 730.809C179.378 730.727 179.209 730.057 179.059 728.799C178.913 727.536 178.801 726.26 178.724 724.971C178.049 724.957 177.468 724.923 176.98 724.868C176.493 724.809 176.224 724.725 176.174 724.615C176.087 724.442 176.014 724.164 175.955 723.781C175.896 723.394 175.857 723 175.839 722.599C175.821 722.193 175.823 721.828 175.846 721.505C175.873 721.177 175.932 720.988 176.023 720.938C176.156 720.833 176.602 720.748 177.363 720.685C178.124 720.621 178.999 720.577 179.988 720.555C180.977 720.527 181.982 720.521 183.003 720.534C184.024 720.543 184.862 720.568 185.519 720.609C185.778 720.628 185.956 720.851 186.052 721.279C186.147 721.708 186.182 722.177 186.154 722.688C186.127 723.198 186.047 723.667 185.915 724.096C185.787 724.524 185.63 724.745 185.443 724.759C185.27 724.786 184.992 724.813 184.609 724.841C184.227 724.864 183.796 724.884 183.317 724.902C183.304 726.188 183.256 727.427 183.174 728.621C183.092 729.811 182.985 730.492 182.853 730.665ZM191.176 727.363C191.974 727.354 192.694 727.331 193.336 727.295C193.979 727.258 194.357 727.302 194.471 727.425C194.594 727.525 194.683 727.96 194.738 728.73C194.797 729.501 194.776 730.059 194.676 730.405C194.631 730.551 194.273 730.672 193.603 730.768C192.933 730.863 192.181 730.929 191.347 730.966C190.513 730.998 189.713 731.002 188.948 730.979C188.182 730.957 187.683 730.895 187.451 730.795C187.314 730.74 187.2 730.373 187.109 729.694C187.022 729.011 186.954 728.213 186.904 727.302C186.854 726.386 186.824 725.454 186.815 724.506C186.806 723.553 186.815 722.779 186.842 722.182C186.842 721.854 186.87 721.555 186.924 721.286C186.979 721.013 187.063 720.842 187.177 720.773C187.291 720.705 187.692 720.646 188.38 720.596C189.068 720.546 189.811 720.516 190.609 720.507C191.406 720.493 192.145 720.507 192.824 720.548C193.503 720.584 193.892 720.653 193.993 720.753C194.116 720.853 194.184 721.25 194.198 721.942C194.216 722.631 194.175 723.15 194.075 723.501C194.024 723.665 193.703 723.768 193.111 723.809C192.523 723.845 191.835 723.877 191.046 723.904C191.046 723.959 191.049 724.023 191.053 724.096C191.058 724.169 191.062 724.232 191.067 724.287C191.582 724.296 192.001 724.335 192.325 724.403C192.402 724.426 192.477 724.563 192.55 724.813C192.628 725.06 192.68 725.331 192.707 725.627C192.739 725.919 192.739 726.19 192.707 726.44C192.676 726.691 192.596 726.826 192.468 726.844C192.377 726.871 192.211 726.896 191.969 726.919C191.732 726.937 191.468 726.951 191.176 726.96C191.176 727.019 191.176 727.088 191.176 727.165C191.176 727.243 191.176 727.309 191.176 727.363ZM202.685 726.611C203.15 726.999 203.558 727.375 203.909 727.739C204.26 728.104 204.438 728.377 204.442 728.56C204.442 728.692 204.367 728.888 204.217 729.147C204.066 729.407 203.893 729.667 203.697 729.927C203.501 730.187 203.312 730.414 203.13 730.61C202.947 730.806 202.822 730.904 202.754 730.904C202.457 730.964 202.025 730.811 201.455 730.446C200.89 730.077 200.434 729.833 200.088 729.715C199.75 729.61 199.568 729.653 199.541 729.845C199.545 730.173 199.516 730.424 199.452 730.597C199.388 730.77 199.165 730.877 198.782 730.918C198.345 730.964 197.843 730.989 197.278 730.993C196.718 730.998 196.362 730.984 196.212 730.952C196.107 730.934 196.023 730.875 195.959 730.774C195.868 730.651 195.77 730.086 195.665 729.079C195.56 728.072 195.478 726.98 195.419 725.805C195.36 724.629 195.332 723.549 195.337 722.564C195.346 721.58 195.419 721.049 195.555 720.972C196.052 720.694 196.718 720.493 197.552 720.37C198.386 720.247 199.215 720.27 200.04 720.438C200.869 720.603 201.61 720.944 202.262 721.464C202.918 721.979 203.319 722.735 203.465 723.733C203.651 725.064 203.392 726.023 202.685 726.611ZM199.247 725.312C199.593 725.276 199.862 725.148 200.054 724.93C200.245 724.711 200.338 724.483 200.334 724.246C200.334 724.009 200.224 723.804 200.006 723.631C199.791 723.458 199.457 723.396 199.001 723.446C198.627 723.487 198.479 723.82 198.556 724.444C198.638 725.064 198.869 725.354 199.247 725.312ZM208.723 730.768C208.637 730.676 208.591 730.565 208.587 730.433C208.577 729.991 208.655 729.325 208.819 728.437C208.983 727.548 209.188 726.625 209.434 725.668C209.68 724.706 209.94 723.806 210.213 722.968C210.491 722.129 210.733 721.539 210.938 721.197C211.02 721.065 211.259 720.947 211.656 720.842C212.057 720.732 212.499 720.657 212.982 720.616C213.465 720.575 213.93 720.577 214.377 720.623C214.823 720.664 215.135 720.767 215.313 720.931C215.568 721.177 215.869 721.717 216.215 722.551C216.566 723.385 216.908 724.294 217.241 725.278C217.574 726.258 217.872 727.199 218.136 728.102C218.401 729.004 218.576 729.642 218.663 730.016C218.722 730.289 218.704 730.48 218.608 730.59C218.512 730.695 218.346 730.768 218.109 730.809C217.708 730.877 217.209 730.929 216.612 730.966C216.019 730.998 215.648 731.005 215.498 730.986C215.438 730.977 215.384 730.957 215.334 730.925C215.17 730.825 215.01 730.537 214.855 730.063C214.705 729.585 214.557 729.257 214.411 729.079C214.324 728.974 214.21 728.913 214.069 728.895L212.948 728.888C212.597 728.897 212.369 729.013 212.264 729.236C212.128 729.523 211.973 729.842 211.799 730.193C211.626 730.544 211.499 730.761 211.417 730.843C211.376 730.893 211.314 730.927 211.232 730.945C211.045 730.986 210.603 730.998 209.906 730.979C209.213 730.957 208.819 730.886 208.723 730.768ZM213.153 724.738C213.003 724.898 212.852 725.167 212.702 725.545C212.556 725.919 212.504 726.165 212.545 726.283C212.613 726.484 212.907 726.575 213.426 726.557C213.95 726.534 214.235 726.406 214.281 726.174C214.308 726.033 214.171 725.711 213.871 725.21C213.57 724.704 213.331 724.547 213.153 724.738ZM224.812 724.957C225.15 724.182 225.496 723.408 225.852 722.633C226.207 721.858 226.524 721.234 226.802 720.76C226.916 720.564 227.194 720.502 227.636 720.575C228.078 720.644 228.531 720.785 228.996 720.999C229.465 721.213 229.871 721.471 230.213 721.771C230.559 722.072 230.694 722.353 230.616 722.612C230.521 722.922 230.281 723.512 229.898 724.383C229.516 725.249 229.096 726.149 228.641 727.083C228.185 728.017 227.743 728.863 227.314 729.619C226.886 730.376 226.578 730.797 226.392 730.884C226.31 730.925 226.123 730.954 225.831 730.973C225.539 730.991 225.225 731 224.888 731C224.555 731 224.241 730.991 223.944 730.973C223.653 730.95 223.466 730.92 223.384 730.884C223.197 730.802 222.887 730.401 222.454 729.681C222.021 728.961 221.565 728.145 221.087 727.233C220.613 726.322 220.171 725.426 219.761 724.547C219.355 723.663 219.084 723.018 218.947 722.612C218.861 722.353 218.984 722.072 219.316 721.771C219.654 721.471 220.052 721.213 220.513 720.999C220.973 720.785 221.422 720.644 221.859 720.575C222.301 720.502 222.582 720.564 222.7 720.76C223.078 721.402 223.441 722.09 223.787 722.824C224.133 723.553 224.475 724.264 224.812 724.957ZM235.043 727.363C235.841 727.354 236.561 727.331 237.204 727.295C237.846 727.258 238.224 727.302 238.338 727.425C238.461 727.525 238.55 727.96 238.605 728.73C238.664 729.501 238.644 730.059 238.543 730.405C238.498 730.551 238.14 730.672 237.47 730.768C236.8 730.863 236.048 730.929 235.214 730.966C234.38 730.998 233.58 731.002 232.815 730.979C232.049 730.957 231.55 730.895 231.318 730.795C231.181 730.74 231.067 730.373 230.976 729.694C230.889 729.011 230.821 728.213 230.771 727.302C230.721 726.386 230.691 725.454 230.682 724.506C230.673 723.553 230.682 722.779 230.709 722.182C230.709 721.854 230.737 721.555 230.791 721.286C230.846 721.013 230.93 720.842 231.044 720.773C231.158 720.705 231.559 720.646 232.247 720.596C232.936 720.546 233.678 720.516 234.476 720.507C235.274 720.493 236.012 720.507 236.691 720.548C237.37 720.584 237.76 720.653 237.86 720.753C237.983 720.853 238.051 721.25 238.065 721.942C238.083 722.631 238.042 723.15 237.942 723.501C237.892 723.665 237.57 723.768 236.978 723.809C236.39 723.845 235.702 723.877 234.913 723.904C234.913 723.959 234.916 724.023 234.92 724.096C234.925 724.169 234.929 724.232 234.934 724.287C235.449 724.296 235.868 724.335 236.192 724.403C236.269 724.426 236.344 724.563 236.417 724.813C236.495 725.06 236.547 725.331 236.575 725.627C236.607 725.919 236.607 726.19 236.575 726.44C236.543 726.691 236.463 726.826 236.335 726.844C236.244 726.871 236.078 726.896 235.836 726.919C235.599 726.937 235.335 726.951 235.043 726.96C235.043 727.019 235.043 727.088 235.043 727.165C235.043 727.243 235.043 727.309 235.043 727.363ZM246.293 724.096C246.092 724.105 245.892 724.116 245.691 724.13C245.495 724.144 245.304 724.166 245.117 724.198C244.638 724.294 244.203 724.522 243.811 724.882C243.424 725.237 243.283 725.679 243.388 726.208C243.438 726.45 243.552 726.639 243.729 726.775C244.012 726.999 244.388 727.106 244.857 727.097C245.327 727.083 245.732 727.037 246.074 726.96C246.265 726.896 246.452 726.905 246.635 726.987C246.803 727.069 246.956 727.211 247.093 727.411C247.307 727.739 247.453 728.177 247.53 728.724C247.612 729.271 247.582 729.722 247.441 730.077C247.327 730.369 247.154 730.542 246.922 730.597C246.174 730.87 245.352 731.005 244.454 731C243.556 730.991 242.752 730.825 242.041 730.501C241.079 730.068 240.343 729.43 239.833 728.587C239.322 727.744 239.12 726.782 239.224 725.702C239.402 723.993 240.079 722.658 241.255 721.696C242.43 720.735 243.893 720.347 245.643 720.534C245.935 720.566 246.193 720.719 246.416 720.992C246.635 721.266 246.815 721.742 246.956 722.421C247.102 723.1 247.017 723.597 246.703 723.911C246.584 724.03 246.448 724.091 246.293 724.096ZM257.84 723.959C257.426 723.936 257.059 723.979 256.74 724.089C256.298 724.248 255.976 724.504 255.776 724.854C255.575 725.205 255.498 725.563 255.544 725.928C255.589 726.288 255.758 726.611 256.049 726.898C256.341 727.181 256.76 727.336 257.307 727.363C257.704 727.368 257.925 727.243 257.97 726.987C258.016 726.728 258.057 726.468 258.093 726.208C258.075 726.035 258.244 725.887 258.599 725.764C258.955 725.641 259.351 725.559 259.789 725.518C260.231 725.477 260.641 725.486 261.019 725.545C261.402 725.6 261.607 725.718 261.634 725.9C261.68 726.242 261.714 726.677 261.737 727.206C261.764 727.73 261.776 728.247 261.771 728.758C261.767 729.268 261.744 729.719 261.703 730.111C261.666 730.503 261.609 730.733 261.532 730.802C261.459 730.897 261.092 730.954 260.431 730.973C259.775 730.991 259.308 730.959 259.03 730.877C258.989 730.872 258.948 730.836 258.907 730.768C258.087 730.964 257.28 731.034 256.487 730.979C255.083 730.87 253.907 730.321 252.96 729.332C252.012 728.343 251.617 727.122 251.777 725.668C251.955 724.082 252.531 722.845 253.506 721.956C254.486 721.067 255.721 720.584 257.212 720.507C258.196 720.461 259.089 720.662 259.891 721.108C260.698 721.555 261.11 722.362 261.129 723.528C261.147 723.706 261.035 723.856 260.794 723.979C260.552 724.098 260.265 724.194 259.932 724.267C259.604 724.335 259.278 724.381 258.955 724.403C258.631 724.426 258.399 724.426 258.257 724.403C258.061 724.376 257.966 724.299 257.97 724.171C257.979 724.043 257.936 723.973 257.84 723.959ZM272.836 726.509C272.599 727.944 271.902 729.102 270.744 729.981C269.591 730.861 268.249 731.173 266.718 730.918C265.241 730.672 264.079 729.968 263.231 728.806C262.384 727.644 262.074 726.356 262.302 724.943C262.516 723.631 263.149 722.53 264.202 721.642C265.259 720.748 266.488 720.363 267.887 720.486C269.573 720.632 270.883 721.272 271.817 722.407C272.756 723.542 273.096 724.909 272.836 726.509ZM268.912 725.928C268.976 725.536 268.901 725.203 268.687 724.93C268.477 724.652 268.169 724.479 267.764 724.41C267.381 724.346 267.044 724.431 266.752 724.663C266.46 724.891 266.287 725.18 266.232 725.531C266.16 725.955 266.278 726.331 266.588 726.659C266.898 726.983 267.281 727.117 267.736 727.062C268.051 727.031 268.313 726.908 268.522 726.693C268.732 726.479 268.862 726.224 268.912 725.928ZM284.147 726.509C283.91 727.944 283.213 729.102 282.055 729.981C280.902 730.861 279.56 731.173 278.029 730.918C276.552 730.672 275.39 729.968 274.542 728.806C273.695 727.644 273.385 726.356 273.613 724.943C273.827 723.631 274.46 722.53 275.513 721.642C276.57 720.748 277.799 720.363 279.198 720.486C280.884 720.632 282.194 721.272 283.128 722.407C284.067 723.542 284.407 724.909 284.147 726.509ZM280.223 725.928C280.287 725.536 280.212 725.203 279.997 724.93C279.788 724.652 279.48 724.479 279.075 724.41C278.692 724.346 278.355 724.431 278.063 724.663C277.771 724.891 277.598 725.18 277.543 725.531C277.47 725.955 277.589 726.331 277.899 726.659C278.209 726.983 278.592 727.117 279.047 727.062C279.362 727.031 279.624 726.908 279.833 726.693C280.043 726.479 280.173 726.224 280.223 725.928ZM291.103 723.959C290.689 723.936 290.322 723.979 290.003 724.089C289.561 724.248 289.239 724.504 289.039 724.854C288.838 725.205 288.761 725.563 288.806 725.928C288.852 726.288 289.021 726.611 289.312 726.898C289.604 727.181 290.023 727.336 290.57 727.363C290.967 727.368 291.188 727.243 291.233 726.987C291.279 726.728 291.32 726.468 291.356 726.208C291.338 726.035 291.507 725.887 291.862 725.764C292.218 725.641 292.614 725.559 293.052 725.518C293.494 725.477 293.904 725.486 294.282 725.545C294.665 725.6 294.87 725.718 294.897 725.9C294.943 726.242 294.977 726.677 295 727.206C295.027 727.73 295.039 728.247 295.034 728.758C295.029 729.268 295.007 729.719 294.966 730.111C294.929 730.503 294.872 730.733 294.795 730.802C294.722 730.897 294.355 730.954 293.694 730.973C293.038 730.991 292.571 730.959 292.293 730.877C292.252 730.872 292.211 730.836 292.17 730.768C291.349 730.964 290.543 731.034 289.75 730.979C288.346 730.87 287.17 730.321 286.222 729.332C285.275 728.343 284.88 727.122 285.04 725.668C285.218 724.082 285.794 722.845 286.769 721.956C287.749 721.067 288.984 720.584 290.474 720.507C291.459 720.461 292.352 720.662 293.154 721.108C293.961 721.555 294.373 722.362 294.391 723.528C294.41 723.706 294.298 723.856 294.056 723.979C293.815 724.098 293.528 724.194 293.195 724.267C292.867 724.335 292.541 724.381 292.218 724.403C291.894 724.426 291.662 724.426 291.52 724.403C291.324 724.376 291.229 724.299 291.233 724.171C291.242 724.043 291.199 723.973 291.103 723.959ZM299.817 720.917C299.839 721.131 299.855 721.53 299.864 722.113C299.878 722.697 299.89 723.303 299.899 723.932C299.908 724.561 299.917 725.13 299.926 725.641C299.94 726.146 299.958 726.431 299.981 726.495C300.013 726.6 300.163 726.659 300.432 726.673C300.705 726.682 301.008 726.677 301.341 726.659C301.678 726.641 302.002 726.623 302.312 726.604C302.622 726.582 302.834 726.589 302.947 726.625C303.112 726.68 303.244 726.919 303.344 727.343C303.449 727.762 303.515 728.218 303.542 728.71C303.574 729.198 303.563 729.649 303.508 730.063C303.453 730.474 303.348 730.697 303.194 730.733C302.961 730.793 302.496 730.85 301.799 730.904C301.106 730.954 300.373 730.984 299.598 730.993C298.823 731.002 298.105 730.979 297.445 730.925C296.784 730.87 296.376 730.761 296.221 730.597C296.066 730.433 295.945 729.902 295.859 729.004C295.777 728.106 295.72 727.119 295.688 726.044C295.66 724.968 295.649 723.945 295.654 722.975C295.663 722.004 295.685 721.361 295.722 721.047C295.74 720.86 295.961 720.723 296.385 720.637C296.809 720.55 297.271 720.507 297.773 720.507C298.274 720.502 298.734 720.536 299.154 720.609C299.577 720.682 299.798 720.785 299.817 720.917ZM308.455 727.363C309.252 727.354 309.972 727.331 310.615 727.295C311.257 727.258 311.636 727.302 311.75 727.425C311.873 727.525 311.962 727.96 312.016 728.73C312.075 729.501 312.055 730.059 311.955 730.405C311.909 730.551 311.551 730.672 310.881 730.768C310.212 730.863 309.46 730.929 308.626 730.966C307.792 730.998 306.992 731.002 306.226 730.979C305.461 730.957 304.962 730.895 304.729 730.795C304.592 730.74 304.478 730.373 304.387 729.694C304.301 729.011 304.232 728.213 304.182 727.302C304.132 726.386 304.102 725.454 304.093 724.506C304.084 723.553 304.093 722.779 304.121 722.182C304.121 721.854 304.148 721.555 304.203 721.286C304.257 721.013 304.342 720.842 304.456 720.773C304.57 720.705 304.971 720.646 305.659 720.596C306.347 720.546 307.09 720.516 307.887 720.507C308.685 720.493 309.423 720.507 310.102 720.548C310.781 720.584 311.171 720.653 311.271 720.753C311.394 720.853 311.462 721.25 311.476 721.942C311.494 722.631 311.453 723.15 311.353 723.501C311.303 723.665 310.982 723.768 310.389 723.809C309.801 723.845 309.113 723.877 308.325 723.904C308.325 723.959 308.327 724.023 308.332 724.096C308.336 724.169 308.341 724.232 308.345 724.287C308.86 724.296 309.28 724.335 309.603 724.403C309.681 724.426 309.756 724.563 309.829 724.813C309.906 725.06 309.959 725.331 309.986 725.627C310.018 725.919 310.018 726.19 309.986 726.44C309.954 726.691 309.874 726.826 309.747 726.844C309.656 726.871 309.489 726.896 309.248 726.919C309.011 726.937 308.746 726.951 308.455 726.96C308.455 727.019 308.455 727.088 308.455 727.165C308.455 727.243 308.455 727.309 308.455 727.363Z" fill="white"/>
</g>
<g clip-path="url(#clip4_4317_5491)">
<path d="M855.73 25.8254C826.939 5.98013 793.726 -11.603 757.12 -26.4098C720.001 -41.6279 683.292 -51.9104 648.126 -57.1545C637.432 -58.6969 627.458 -59.5195 618.307 -59.5195C571.213 -59.5195 548.591 -37.9262 537.589 -19.4177C528.849 -4.40521 517.024 20.4785 501.086 57.3927C437.232 -16.2301 349.213 -58.4912 239.087 -67.9511C227.571 -68.9794 216.055 -69.4935 204.847 -69.4935C154.257 -69.4935 106.443 -59.1082 62.5367 -38.646C53.7965 -49.5454 45.1592 -58.6969 36.5219 -65.7918L34.7739 -67.2314C23.3603 -75.8687 9.27325 -80.1873 -7.17877 -80.1873C-21.0602 -80.1873 -37.8206 -77.1026 -59.8252 -70.5218C-63.6298 -69.3907 -67.5371 -68.1568 -71.5473 -66.8201C-75.7632 -92.0122 -96.1225 -112.989 -132.111 -129.338C-157.612 -140.854 -186.197 -150.211 -217.251 -157.101C-248.509 -164.093 -278.946 -167.794 -307.839 -168H-308.971C-355.448 -168 -386.089 -152.679 -399.765 -122.551L-400.485 -121.009C-408.711 -101.369 -419.199 -66.3059 -433.389 -10.4719C-446.859 42.483 -459.712 98.3171 -471.434 155.488C-483.465 213.79 -492.616 267.362 -498.786 314.456C-507.217 378.104 -506.6 416.869 -478.735 439.388C-456.216 457.28 -420.741 470.955 -367.375 482.369C-339.51 488.333 -317.608 491.212 -300.436 491.212C-291.49 491.212 -264.961 491.212 -244.808 473.423C-241.62 470.75 -238.433 467.562 -235.142 463.552C-227.122 470.75 -219.204 477.536 -211.287 484.528C-218.999 488.024 -226.505 491.829 -233.6 496.045C-252.314 507.15 -263.316 519.695 -269.589 531.622C-280.899 526.172 -291.49 522.779 -301.978 521.134C-307.428 520.311 -313.186 519.9 -319.562 519.9C-329.33 519.9 -340.024 520.826 -352.466 522.676C-369.74 525.35 -387.015 529.154 -403.775 534.193C-421.667 539.54 -436.988 545.709 -450.355 552.907C-490.765 574.5 -493.645 604.32 -491.794 619.332C-488.812 646.684 -482.437 680.924 -472.668 721.232C-463.105 760.717 -452.72 799.482 -441.718 836.807C-429.996 875.984 -419.199 908.785 -408.814 937.062C-394.932 974.799 -385.472 992.896 -373.236 1004.31C-360.897 1016.34 -344.034 1022.41 -322.852 1022.41C-309.793 1022.41 -294.164 1020.35 -273.496 1015.72C-233.805 1006.98 -207.174 995.98 -189.796 981.379C-173.55 967.806 -168.82 949.298 -168.306 931.406C-162.856 934.697 -157.406 937.781 -152.162 940.763C-132.317 952.074 -117.716 958.038 -104.76 960.095C-100.852 960.712 -96.8423 961.02 -92.318 961.02C-84.6061 961.02 -75.7632 960.095 -63.8354 958.038C-50.2625 955.57 -36.5867 952.28 -23.1166 948.27C-8.92679 944.054 4.33765 939.015 16.471 933.257C41.3547 921.535 56.1615 904.775 60.3774 883.49L60.8915 881.022L61.0971 878.657C61.5084 875.058 61.7141 871.151 61.0971 864.776C85.1582 877.834 111.687 887.089 140.889 891.922C156.005 894.492 170.914 895.726 185.413 895.726C231.684 895.726 274.254 882.77 312.093 857.475C321.142 865.907 331.013 873.824 342.015 880.816C375.331 901.896 409.469 912.692 443.401 912.692C459.956 912.692 476.614 910.122 492.551 904.98C538.926 890.585 575.531 863.953 601.238 826.319C627.561 787.862 638.255 743.853 633.011 695.423C631.263 678.354 626.738 662.107 619.541 646.786C631.16 645.244 641.545 641.645 650.388 635.99C666.943 627.044 684.32 608.638 715.374 556.3C737.892 518.563 761.439 474.657 787.557 422.113C812.132 372.14 836.193 319.391 858.917 265.305C881.539 211.219 898.608 164.845 909.405 127.519L909.713 126.286C919.07 90.9137 900.87 57.0842 855.73 25.8254ZM187.058 289.263C187.881 283.711 190.04 277.027 198.883 270.035C203.51 266.436 207.623 264.894 213.073 264.894C214.924 264.894 216.98 265.099 218.728 265.408C233.329 267.876 238.882 273.12 241.761 276.924C243.509 279.187 247.108 283.814 245.051 296.461C243.817 303.762 240.938 309.417 235.797 314.661C232.815 317.746 228.908 320.625 219.756 321.55C217.905 321.756 216.157 321.859 214.409 321.859C207.623 321.859 201.659 320.419 194.667 313.016C186.441 304.276 185.516 298.106 187.058 289.263Z" fill="#211E1B"/>
<path d="M104.802 121.043C101.614 134.307 89.8921 149.834 46.4999 179.961C21.5134 197.442 -6.45507 215.642 -36.9941 234.253C-3.47314 265.82 23.8784 293.892 44.4434 318.056C62.5406 340.266 47.2197 372.553 42.1812 383.144C31.8987 404.943 18.1202 426.845 1.15402 448.335C-9.74545 462.114 -21.2619 474.658 -33.0868 485.764C-20.1308 502.318 -5.94094 517.125 9.48283 530.287C15.0354 535.12 20.7936 539.644 26.6546 543.757C66.0367 572.754 112.205 591.673 165.366 600.516C235.698 612.238 299.347 603.704 356.209 575.016C362.687 571.828 369.062 568.332 375.335 564.528C385.103 558.667 394.666 552.189 404.023 545.094C406.696 543.037 409.37 540.981 412.043 538.719C406.696 533.886 402.069 529.156 398.265 524.323C387.468 511.264 383.766 488.437 402.172 419.955C414.82 372.759 431.58 319.598 452.145 262.119C466.746 221.194 482.067 180.681 497.902 141.196C489.471 125.67 479.291 110.76 467.569 96.5703C412.146 29.4255 334.513 -8.51699 234.67 -17.1543C172.564 -22.604 116.215 -11.2933 65.6254 16.9836C69.5327 23.256 73.3373 30.0424 77.3475 37.1374C105.213 87.2132 108.812 107.47 104.802 121.043ZM136.678 281.553C139.865 260.782 150.148 243.61 167.422 229.935C184.697 216.362 204.645 211.426 227.369 215.128C251.328 219.241 269.63 229.42 282.175 245.77C294.72 262.016 299.141 281.861 295.337 304.997C292.355 322.58 284.643 337.695 272.304 350.343C259.862 363.093 244.335 370.394 225.724 372.245C198.681 375.432 176.06 367.412 157.757 348.183C139.351 328.852 132.359 306.642 136.678 281.553Z" fill="#FECB37"/>
<path d="M289.166 675.476C296.57 650.078 308.909 628.588 326.08 611.21C293.999 622.007 260.272 627.457 224.9 627.457C223.358 627.457 221.816 627.457 220.17 627.354C227.677 637.122 230.247 649.05 227.985 662.931C226.134 673.522 221.507 682.674 214.001 690.386C206.495 698.098 197.035 702.416 185.827 703.547C169.478 705.604 155.802 700.668 144.697 689.049C133.592 677.327 129.376 663.96 131.946 648.741C133.797 637.122 139.144 627.354 148.296 619.539C97.8085 609.359 53.0796 590.131 14.5202 561.957C2.90096 581.905 -4.91376 603.807 -8.82111 627.662C-11.4946 644.011 -12.1115 659.949 -10.672 675.373C-9.02677 693.985 -4.39965 711.979 3.20941 729.254C8.76197 741.901 15.8569 754.137 24.4942 766.065C54.8276 807.606 96.4718 832.901 149.324 841.641C204.13 850.793 252.252 839.688 293.69 808.12C297.084 805.55 300.271 802.876 303.459 800.203C299.346 793.108 295.747 785.602 292.662 777.787C279.603 744.575 278.472 710.128 289.166 675.476Z" fill="#FECB37"/>
<path d="M293.688 236.925C278.984 217.697 257.493 205.564 229.73 200.731C224.075 199.806 218.522 199.394 213.175 199.394C192.919 199.394 174.513 205.769 158.37 218.52C138.113 234.56 125.98 255.023 122.278 279.084C121.353 284.636 120.839 290.189 120.839 295.536C120.839 318.774 129.682 339.853 147.162 358.259C165.67 377.693 188.292 387.461 214.409 387.461C218.625 387.461 223.047 387.256 227.16 386.742C249.164 384.582 267.878 375.739 282.685 360.521C297.184 345.714 306.232 327.926 309.728 307.361C310.757 301.294 311.271 295.227 311.271 289.469C311.271 269.624 305.307 251.938 293.688 236.925ZM245.051 296.461C243.817 303.762 240.938 309.417 235.797 314.661C232.815 317.746 228.908 320.625 219.756 321.55C217.905 321.756 216.157 321.859 214.409 321.859C207.623 321.859 201.659 320.419 194.667 313.016C186.441 304.276 185.516 298.106 187.058 289.263C187.881 283.711 190.04 277.027 198.883 270.035C203.51 266.436 207.623 264.894 213.073 264.894C214.924 264.894 216.98 265.099 218.728 265.408C233.329 267.876 238.882 273.12 241.761 276.924C243.509 279.187 247.108 283.814 245.051 296.461ZM293.688 236.925C278.984 217.697 257.493 205.564 229.73 200.731C224.075 199.806 218.522 199.394 213.175 199.394C192.919 199.394 174.513 205.769 158.37 218.52C138.113 234.56 125.98 255.023 122.278 279.084C121.353 284.636 120.839 290.189 120.839 295.536C120.839 318.774 129.682 339.853 147.162 358.259C165.67 377.693 188.292 387.461 214.409 387.461C218.625 387.461 223.047 387.256 227.16 386.742C249.164 384.582 267.878 375.739 282.685 360.521C297.184 345.714 306.232 327.926 309.728 307.361C310.757 301.294 311.271 295.227 311.271 289.469C311.271 269.624 305.307 251.938 293.688 236.925ZM245.051 296.461C243.817 303.762 240.938 309.417 235.797 314.661C232.815 317.746 228.908 320.625 219.756 321.55C217.905 321.756 216.157 321.859 214.409 321.859C207.623 321.859 201.659 320.419 194.667 313.016C186.441 304.276 185.516 298.106 187.058 289.263C187.881 283.711 190.04 277.027 198.883 270.035C203.51 266.436 207.623 264.894 213.073 264.894C214.924 264.894 216.98 265.099 218.728 265.408C233.329 267.876 238.882 273.12 241.761 276.924C243.509 279.187 247.108 283.814 245.051 296.461ZM855.73 25.8254C826.939 5.98013 793.726 -11.603 757.12 -26.4098C720.001 -41.6279 683.292 -51.9104 648.126 -57.1545C637.432 -58.6969 627.458 -59.5195 618.307 -59.5195C571.213 -59.5195 548.591 -37.9262 537.589 -19.4177C528.849 -4.40521 517.024 20.4785 501.086 57.3927C437.232 -16.2301 349.213 -58.4912 239.087 -67.9511C227.571 -68.9794 216.055 -69.4935 204.847 -69.4935C154.257 -69.4935 106.443 -59.1082 62.5367 -38.646C53.7965 -49.5454 45.1592 -58.6969 36.5219 -65.7918L34.7739 -67.2314C23.3603 -75.8687 9.27325 -80.1873 -7.17877 -80.1873C-21.0602 -80.1873 -37.8206 -77.1026 -59.8252 -70.5218C-63.6298 -69.3907 -67.5371 -68.1568 -71.5473 -66.8201C-75.7632 -92.0122 -96.1225 -112.989 -132.111 -129.338C-157.612 -140.854 -186.197 -150.211 -217.251 -157.101C-248.509 -164.093 -278.946 -167.794 -307.839 -168H-308.971C-355.448 -168 -386.089 -152.679 -399.765 -122.551L-400.485 -121.009C-408.711 -101.369 -419.199 -66.3059 -433.389 -10.4719C-446.859 42.483 -459.712 98.3171 -471.434 155.488C-483.465 213.79 -492.616 267.362 -498.786 314.456C-507.217 378.104 -506.6 416.869 -478.735 439.388C-456.216 457.28 -420.741 470.955 -367.375 482.369C-339.51 488.333 -317.608 491.212 -300.436 491.212C-291.49 491.212 -264.961 491.212 -244.808 473.423C-241.62 470.75 -238.433 467.562 -235.142 463.552C-227.122 470.75 -219.204 477.536 -211.287 484.528C-218.999 488.024 -226.505 491.829 -233.6 496.045C-252.314 507.15 -263.316 519.695 -269.589 531.622C-280.899 526.172 -291.49 522.779 -301.978 521.134C-307.428 520.311 -313.186 519.9 -319.562 519.9C-329.33 519.9 -340.024 520.826 -352.466 522.676C-369.74 525.35 -387.015 529.154 -403.775 534.193C-421.667 539.54 -436.988 545.709 -450.355 552.907C-490.765 574.5 -493.645 604.32 -491.794 619.332C-488.812 646.684 -482.437 680.924 -472.668 721.232C-463.105 760.717 -452.72 799.482 -441.718 836.807C-429.996 875.984 -419.199 908.785 -408.814 937.062C-394.932 974.799 -385.472 992.896 -373.236 1004.31C-360.897 1016.34 -344.034 1022.41 -322.852 1022.41C-309.793 1022.41 -294.164 1020.35 -273.496 1015.72C-233.805 1006.98 -207.174 995.98 -189.796 981.379C-173.55 967.806 -168.82 949.298 -168.306 931.406C-162.856 934.697 -157.406 937.781 -152.162 940.763C-132.317 952.074 -117.716 958.038 -104.76 960.095C-100.852 960.712 -96.8423 961.02 -92.318 961.02C-84.6061 961.02 -75.7632 960.095 -63.8354 958.038C-50.2625 955.57 -36.5867 952.28 -23.1166 948.27C-8.92679 944.054 4.33765 939.015 16.471 933.257C41.3547 921.535 56.1615 904.775 60.3774 883.49L60.8915 881.022L61.0971 878.657C61.5084 875.058 61.7141 871.151 61.0971 864.776C85.1582 877.834 111.687 887.089 140.889 891.922C156.005 894.492 170.914 895.726 185.413 895.726C231.684 895.726 274.254 882.77 312.093 857.475C321.142 865.907 331.013 873.824 342.015 880.816C375.331 901.896 409.469 912.692 443.401 912.692C459.956 912.692 476.614 910.122 492.551 904.98C538.926 890.585 575.531 863.953 601.238 826.319C627.561 787.862 638.255 743.853 633.011 695.423C631.263 678.354 626.738 662.107 619.541 646.786C631.16 645.244 641.545 641.645 650.388 635.99C666.943 627.044 684.32 608.638 715.374 556.3C737.892 518.563 761.439 474.657 787.557 422.113C812.132 372.14 836.193 319.391 858.917 265.305C881.539 211.219 898.608 164.845 909.405 127.519L909.713 126.286C919.07 90.9137 900.87 57.0842 855.73 25.8254ZM-239.564 371.009L-254.782 356.82L-262.905 376.048C-279.357 415.327 -285.938 422.319 -286.966 423.245H-287.274L-287.891 423.964C-287.891 424.067 -290.771 425.609 -300.436 425.609C-312.775 425.609 -330.667 423.142 -353.597 418.206C-403.673 407.615 -426.294 396.613 -436.474 389.107C-437.502 385.816 -440.175 371.832 -433.697 322.99C-427.836 277.336 -418.891 225.409 -407.169 168.65C-395.652 112.61 -383.107 57.804 -369.843 5.77448C-356.784 -45.4324 -346.707 -79.5704 -340.127 -95.3026C-339.51 -96.6394 -337.247 -98.3874 -332.209 -99.8269C-327.273 -101.266 -319.664 -102.398 -308.354 -102.398C-284.087 -102.192 -258.175 -99.1072 -231.543 -93.1433C-204.809 -87.1794 -180.439 -79.2619 -159.154 -69.5964C-142.085 -61.8845 -137.458 -56.6404 -136.43 -55.098C-138.075 -45.5353 -139.823 -35.4584 -141.777 -25.1759C-143.833 -14.5849 -146.301 -2.96565 -149.386 10.4016L-156.172 39.3983L-129.129 26.9565C-96.1225 11.7383 -66.406 0.0162811 -40.8026 -7.69562C-21.8828 -13.351 -12.1144 -14.5849 -7.17877 -14.5849C-5.63638 -14.5849 -4.71094 -14.4821 -4.19681 -14.3793C4.02917 -7.28432 13.1806 3.61516 23.2574 18.3192C26.9592 23.6661 30.6609 29.6299 34.4654 35.9022C38.0643 41.7633 41.766 48.0356 45.4677 54.8221C70.2485 99.0369 69.8373 110.142 69.9401 110.45L69.6317 111.17L69.426 112.301C69.0147 113.33 64.7988 122.892 25.7253 150.038C-6.66464 172.557 -42.4478 195.384 -80.5959 218.006L-97.5621 228.082L-82.9609 241.347C-40.8026 279.803 -7.28159 313.53 16.471 341.396C16.471 341.396 18.9388 347.36 9.27325 367.616C0.327454 386.536 -12.0116 406.176 -27.4353 425.712C-36.7924 437.434 -46.458 448.128 -56.2263 457.485C-61.9846 462.935 -66.9202 467.254 -72.2671 471.469C-73.501 472.395 -74.7349 473.32 -75.866 474.246C-78.7451 476.405 -81.4185 478.462 -84.4005 480.21C-93.0378 485.762 -98.179 486.585 -100.441 486.585C-101.881 486.585 -102.703 486.174 -103.217 485.968C-106.302 484.425 -110.621 481.649 -116.585 477.331C-127.073 469.927 -140.543 459.13 -156.584 445.249C-183.832 421.805 -211.698 396.818 -239.564 371.009ZM-11.6003 874.03C-20.6489 878.349 -30.8286 882.153 -41.9337 885.443C-53.1416 888.837 -64.3495 891.51 -75.3518 893.464C-84.6061 895.109 -89.7473 895.417 -92.318 895.417C-93.1406 895.417 -93.8604 895.418 -94.4773 895.315C-96.5338 895.006 -103.217 893.155 -119.772 883.798C-132.831 876.395 -147.021 867.758 -161.931 858.092C-176.223 848.838 -189.796 839.686 -202.341 830.946C-217.251 820.458 -223.009 816.139 -225.168 814.391L-255.913 788.994L-248.715 828.17C-243.06 859.634 -238.844 885.238 -235.965 906.42C-233.703 922.563 -233.805 929.864 -234.114 932.846C-241.414 937.884 -256.427 944.774 -287.686 951.766C-303.11 955.159 -314.832 956.907 -322.749 956.907C-325.834 956.907 -327.479 956.599 -328.302 956.393H-328.405C-329.021 955.776 -334.368 949.504 -347.222 914.44C-357.196 887.397 -367.581 855.83 -378.789 818.093C-389.38 782.104 -399.56 744.265 -408.917 705.808C-417.657 669.819 -423.415 639.383 -426.191 615.219C-425.06 614.294 -423.106 612.751 -419.405 610.798C-409.842 605.656 -398.223 601.029 -384.856 597.019C-371.18 592.906 -356.99 589.718 -342.697 587.559C-333.649 586.222 -325.834 585.503 -319.562 585.503C-316.374 585.503 -313.495 585.708 -311.336 586.017C-304.138 587.148 -289.948 592.803 -263.419 612.957C-239.769 630.951 -223.112 644.113 -212.521 653.264L-174.784 685.757L-189.076 637.943C-194.526 620.052 -199.359 604.32 -203.678 590.541C-208.716 574.706 -210.567 566.274 -211.492 562.058C-211.389 561.956 -210.258 558.46 -200.079 552.393C-187.226 544.887 -172.213 538.409 -155.658 533.37C-145.376 530.183 -136.327 528.023 -127.793 526.584C-120.492 525.247 -114.117 524.527 -108.256 524.116C-106.199 524.013 -104.143 523.91 -102.395 523.91C-97.8706 523.91 -95.2999 524.424 -93.9632 524.733C-85.5315 547.149 -76.1744 576.454 -65.3778 614.088C-59.6196 634.55 -52.7303 658.817 -46.2523 683.495C-42.3449 697.993 -38.5404 712.389 -34.9416 726.887L-33.7077 731.72C-33.0907 734.599 -32.3709 737.272 -31.754 739.74C-23.4251 773.467 -16.9472 801.538 -12.0116 825.497C-6.0477 853.979 -4.60812 865.393 -4.19681 869.711C-5.32791 870.637 -7.48724 872.076 -11.6003 874.03ZM279.086 783.133C280.937 787.657 282.891 792.181 284.947 796.397C284.947 796.5 284.845 796.5 284.845 796.5C255.128 819.121 222.635 830.124 185.413 830.124C174.513 830.124 163.203 829.198 151.686 827.245C103.05 819.224 64.1819 795.78 36.3163 757.529C28.2959 746.424 21.6123 735.01 16.5739 723.391C9.58173 707.659 5.36591 691.104 3.82352 674.035C2.48679 659.845 3.10373 645.038 5.57153 630.026C8.245 613.574 12.975 597.944 19.7614 583.343C50.7118 603.6 85.3638 618.715 123.101 628.689C154.977 640.514 214.307 643.702 242.275 641.645C258.316 640.823 274.254 638.869 289.78 635.887C283.816 646.786 278.881 658.611 275.282 671.156C263.56 709.098 264.794 746.835 279.086 783.133ZM224.795 591.055C206.389 591.055 187.264 589.41 167.727 586.12C117.24 577.688 72.6135 559.488 34.9796 531.828C29.6326 528.126 24.2858 523.91 18.9388 519.18C7.42242 509.412 -3.37427 498.513 -13.3483 486.893C-4.4025 477.639 4.33765 467.768 12.5637 457.382C30.1467 435.069 44.5423 412.139 55.3389 389.415C71.4825 355.483 71.5853 328.337 55.5446 308.594C37.8586 287.824 14.723 263.66 -13.2455 236.72C11.2269 221.502 34.0541 206.386 54.8248 191.888C96.7775 162.788 114.155 144.486 118.782 125.154C124.849 104.487 117.137 78.6775 89.991 29.9384C89.991 29.9384 87.1119 24.7971 85.9808 22.7406C122.381 5.0547 162.277 -3.89108 204.847 -3.89108C214.204 -3.89108 223.766 -3.47978 233.432 -2.65718C328.751 5.56883 403.711 42.0717 456.357 105.823C466.023 117.545 474.557 129.782 481.755 142.223C466.948 179.549 452.347 218.211 438.465 257.182C418.003 314.25 401.037 367.719 388.081 416.15C370.498 481.444 370.292 513.319 386.847 533.37C387.875 534.604 388.904 535.941 390.138 537.278C382.837 542.624 375.331 547.56 367.825 552.084C361.861 555.58 355.794 558.974 349.625 561.956C311.476 581.287 269.421 591.055 224.795 591.055ZM547.152 789.199C529.671 814.905 505.405 832.386 473.015 842.463C463.246 845.547 453.272 847.09 443.401 847.09C422.116 847.09 399.803 839.789 377.182 825.394C363.609 816.756 352.298 806.474 343.455 794.443C339.342 789.096 335.846 783.647 332.555 777.271C330.396 773.467 328.443 769.251 326.592 764.418C316.515 738.712 315.692 713.109 324.021 685.963C332.761 656.143 349.213 634.344 374.611 619.229C379.855 616.042 385.716 613.06 392.914 609.975C394.353 609.358 395.896 608.741 397.438 608.227L398.466 607.816C413.993 602.057 429.314 599.076 443.812 599.076C465.714 599.076 486.279 605.451 506.536 618.509C544.478 642.982 564.426 670.333 567.819 702.312C571.418 735.319 564.632 763.699 547.152 789.199ZM846.476 109.217C836.296 144.177 820.152 188.186 798.456 240.01C776.246 292.759 752.802 344.275 728.741 393.117C703.446 444.118 680.619 486.482 659.025 522.779C630.44 571.004 620.466 577.688 618.821 578.51L616.867 579.436L615.325 580.67C615.325 580.67 613.268 582.109 606.482 582.109C595.685 582.109 573.372 578.408 528.643 561.03C497.795 549 472.912 536.866 454.609 525.041C448.748 521.34 443.298 517.33 438.363 513.217C433.427 509.104 429.725 505.299 426.846 501.803C426.229 500.569 421.396 488.744 437.334 429.414C449.776 383.04 466.331 330.805 486.485 274.354C498.412 240.627 511.163 206.592 524.427 172.968C524.427 172.968 532.139 153.534 535.43 145.205L539.954 134.203C542.833 127.211 545.712 120.322 548.591 113.432C569.67 63.0481 585.094 29.4243 594.245 13.692C597.947 7.41968 609.464 6.08296 618.307 6.08296C624.168 6.08296 630.851 6.59708 638.358 7.72816C668.485 12.1496 700.155 21.0954 732.443 34.257C764.73 47.4187 793.726 62.7396 818.507 79.9114C845.242 98.3171 846.476 107.469 846.476 109.011V109.217ZM229.73 200.731C224.075 199.806 218.522 199.394 213.175 199.394C192.919 199.394 174.513 205.769 158.37 218.52C138.113 234.56 125.98 255.023 122.278 279.084C121.353 284.636 120.839 290.189 120.839 295.536C120.839 318.774 129.682 339.853 147.162 358.259C165.67 377.693 188.292 387.461 214.409 387.461C218.625 387.461 223.047 387.256 227.16 386.742C249.164 384.582 267.878 375.739 282.685 360.521C297.184 345.714 306.232 327.926 309.728 307.361C310.757 301.294 311.271 295.227 311.271 289.469C311.271 269.624 305.307 251.938 293.688 236.925C278.984 217.697 257.493 205.564 229.73 200.731ZM245.051 296.461C243.817 303.762 240.938 309.417 235.797 314.661C232.815 317.746 228.908 320.625 219.756 321.55C217.905 321.756 216.157 321.859 214.409 321.859C207.623 321.859 201.659 320.419 194.667 313.016C186.441 304.276 185.516 298.106 187.058 289.263C187.881 283.711 190.04 277.027 198.883 270.035C203.51 266.436 207.623 264.894 213.073 264.894C214.924 264.894 216.98 265.099 218.728 265.408C233.329 267.876 238.882 273.12 241.761 276.924C243.509 279.187 247.108 283.814 245.051 296.461ZM293.688 236.925C278.984 217.697 257.493 205.564 229.73 200.731C224.075 199.806 218.522 199.394 213.175 199.394C192.919 199.394 174.513 205.769 158.37 218.52C138.113 234.56 125.98 255.023 122.278 279.084C121.353 284.636 120.839 290.189 120.839 295.536C120.839 318.774 129.682 339.853 147.162 358.259C165.67 377.693 188.292 387.461 214.409 387.461C218.625 387.461 223.047 387.256 227.16 386.742C249.164 384.582 267.878 375.739 282.685 360.521C297.184 345.714 306.232 327.926 309.728 307.361C310.757 301.294 311.271 295.227 311.271 289.469C311.271 269.624 305.307 251.938 293.688 236.925ZM245.051 296.461C243.817 303.762 240.938 309.417 235.797 314.661C232.815 317.746 228.908 320.625 219.756 321.55C217.905 321.756 216.157 321.859 214.409 321.859C207.623 321.859 201.659 320.419 194.667 313.016C186.441 304.276 185.516 298.106 187.058 289.263C187.881 283.711 190.04 277.027 198.883 270.035C203.51 266.436 207.623 264.894 213.073 264.894C214.924 264.894 216.98 265.099 218.728 265.408C233.329 267.876 238.882 273.12 241.761 276.924C243.509 279.187 247.108 283.814 245.051 296.461ZM293.688 236.925C278.984 217.697 257.493 205.564 229.73 200.731C224.075 199.806 218.522 199.394 213.175 199.394C192.919 199.394 174.513 205.769 158.37 218.52C138.113 234.56 125.98 255.023 122.278 279.084C121.353 284.636 120.839 290.189 120.839 295.536C120.839 318.774 129.682 339.853 147.162 358.259C165.67 377.693 188.292 387.461 214.409 387.461C218.625 387.461 223.047 387.256 227.16 386.742C249.164 384.582 267.878 375.739 282.685 360.521C297.184 345.714 306.232 327.926 309.728 307.361C310.757 301.294 311.271 295.227 311.271 289.469C311.271 269.624 305.307 251.938 293.688 236.925ZM245.051 296.461C243.817 303.762 240.938 309.417 235.797 314.661C232.815 317.746 228.908 320.625 219.756 321.55C217.905 321.756 216.157 321.859 214.409 321.859C207.623 321.859 201.659 320.419 194.667 313.016C186.441 304.276 185.516 298.106 187.058 289.263C187.881 283.711 190.04 277.027 198.883 270.035C203.51 266.436 207.623 264.894 213.073 264.894C214.924 264.894 216.98 265.099 218.728 265.408C233.329 267.876 238.882 273.12 241.761 276.924C243.509 279.187 247.108 283.814 245.051 296.461Z" fill="#211E1B"/>
<path d="M-278.121 434.76C-271.849 429.927 -262.286 412.241 -249.433 381.702C-220.23 408.745 -192.468 433.526 -166.144 456.25C-149.384 470.748 -135.605 481.751 -125.014 489.257C-118.845 493.678 -113.806 496.969 -109.693 499.025C-101.159 503.241 -90.0537 501.082 -76.5836 492.547C-73.4988 490.697 -70.4141 488.434 -67.1237 485.967C-65.6841 484.836 -64.2446 483.704 -62.805 482.471C-57.1496 478.049 -51.6999 473.216 -46.2502 468.075C-35.8648 458.204 -25.788 447.099 -16.0196 434.76C0.0211487 414.4 12.8743 394.144 22.437 373.784C32.1026 353.528 33.8506 339.646 27.7839 332.243C3.51718 303.76 -30.1067 269.828 -73.1904 230.549C-32.9857 206.694 2.69458 183.764 34.0562 162.067C65.3151 140.268 81.8699 124.742 83.618 115.385C86.8055 106.439 78.3739 83.8175 58.2202 47.7259C54.4156 40.8366 50.6111 34.3586 46.9094 28.2919C42.8992 21.7111 39.0947 15.5416 35.1873 9.98904C24.0822 -6.25733 13.6969 -18.4935 4.03134 -26.5139C-2.241 -31.2438 -18.5902 -29.5986 -45.0163 -21.6811C-71.4424 -13.6607 -101.57 -1.83585 -135.194 13.6908C-132.109 0.426308 -129.539 -11.6042 -127.482 -22.5037C-125.426 -33.4032 -123.575 -43.9942 -121.827 -54.071C-120.593 -63.3253 -131.081 -72.888 -153.086 -82.8621C-175.193 -92.8361 -200.282 -101.062 -228.354 -107.334C-256.322 -113.607 -282.954 -116.794 -308.249 -117C-333.441 -117 -348.556 -111.962 -353.389 -101.371C-360.484 -84.4044 -370.664 -49.8552 -383.928 2.17432C-397.192 54.2038 -409.737 108.804 -421.459 165.769C-433.181 222.734 -442.127 274.558 -448.194 321.138C-454.363 367.718 -453.849 393.835 -446.857 399.491C-431.125 412.035 -401.1 423.038 -356.679 432.498C-312.259 441.957 -286.038 442.677 -278.121 434.76Z" fill="#FECB37"/>
<path d="M-17.5654 736.243C-18.6965 732.028 -19.7248 727.709 -20.8558 723.287C-24.4547 708.789 -28.2592 694.291 -32.1666 679.69C-38.2333 656.657 -44.7112 633.521 -51.3949 610.077C-61.9859 573.06 -71.6514 542.624 -80.5972 518.974C-80.9057 518.254 -81.1114 517.637 -81.4198 516.917C-83.9905 510.953 -93.1419 508.589 -109.183 509.617C-116.072 510.028 -123.064 510.953 -130.262 512.187C-139.825 513.833 -149.696 516.3 -159.875 519.385C-177.664 524.835 -193.499 531.621 -207.483 539.847C-221.468 548.176 -227.432 556.299 -225.684 564.423C-224.552 571.106 -221.879 581.286 -217.56 594.962C-213.242 608.637 -208.409 624.37 -203.062 642.158C-214.064 632.698 -231.236 619.126 -254.577 601.337C-278.022 583.548 -296.119 573.677 -309.075 571.62C-317.815 570.386 -329.743 570.901 -344.858 573.163C-359.973 575.425 -374.677 578.715 -389.073 583.034C-403.468 587.353 -415.807 592.288 -426.295 597.944C-436.681 603.496 -441.616 608.843 -440.999 613.881C-438.326 638.971 -432.362 670.847 -423.108 709.2C-413.751 747.657 -403.674 785.291 -392.774 822.205C-381.772 859.119 -371.181 891.612 -360.899 919.478C-350.616 947.446 -342.904 963.384 -337.866 967.394C-332.827 973.255 -315.141 972.741 -284.499 965.955C-253.96 959.168 -233.19 951.251 -222.393 942.202C-218.691 939.117 -218.486 926.47 -221.571 904.363C-224.552 882.358 -228.871 856.137 -234.424 825.598C-230.928 828.478 -223.01 834.236 -210.671 842.873C-198.229 851.613 -184.656 860.765 -169.849 870.327C-155.043 879.89 -140.75 888.63 -126.971 896.445C-113.193 904.26 -103.116 908.681 -96.7408 909.709C-92.2165 910.429 -84.2989 909.812 -72.8853 907.859C-61.4717 905.802 -49.7497 903.026 -37.7191 899.427C-25.6886 895.828 -14.892 891.715 -5.32922 887.191C4.23352 882.666 9.47757 878.142 10.403 873.515C10.9171 868.374 8.24368 851.408 2.27982 822.514C-2.96426 797.116 -9.64792 768.325 -17.5654 736.243Z" fill="#FECB37"/>
<path d="M514.452 606.272C477.023 582.211 436.716 578.098 393.427 594.139C391.267 594.962 389.005 595.784 386.948 596.71C379.854 599.692 373.17 602.982 367 606.787C338.621 623.753 319.701 648.842 310.035 681.849C300.781 711.874 301.809 741.179 313.017 769.764C314.971 774.803 317.233 779.738 319.907 784.468C323.3 791.152 327.31 797.424 331.937 803.388C341.808 816.756 354.353 828.169 369.365 837.732C406.28 861.176 442.268 867.448 477.435 856.343C512.704 845.341 539.952 825.701 559.181 797.424C578.512 769.25 586.224 737.066 582.316 700.769C578.512 664.471 555.89 633.007 514.452 606.272Z" fill="#E30613"/>
</g>
</g>
<defs>
<clipPath id="clip0_4317_5491">
<rect width="375" height="812" fill="white"/>
</clipPath>
<clipPath id="clip1_4317_5491">
<rect x="32" y="651" width="312" height="40" rx="20" fill="white"/>
</clipPath>
<clipPath id="clip2_4317_5491">
<rect width="19.536" height="24" fill="white" transform="translate(63.5 659)"/>
</clipPath>
<clipPath id="clip3_4317_5491">
<rect x="32" y="707" width="312" height="40" rx="20" fill="white"/>
</clipPath>
<clipPath id="clip4_4317_5491">
<rect width="1415.59" height="1190.41" fill="white" transform="translate(-503.518 -168)"/>
</clipPath>
</defs>
</svg>
