<?xml version="1.0" encoding="UTF-8"?>
<svg id="Calque_1" data-name="Calque 1" xmlns="http://www.w3.org/2000/svg" viewBox="0 0 250 250">
  <defs>
    <style>
      .cls-1 {
        fill: #1d1d1b;
      }
    </style>
  </defs>
  <path class="cls-1" d="m226.48,40.97c-12.8-13.93-21.96-20-27.51-18.19-3.58.21-12.2,5.21-25.86,15-13.67,9.79-28.9,21.58-45.66,35.27-5.14,4.23-10.29,8.48-15.4,12.83-8.32-10.42-15.78-18.48-22.37-24.29-.25-.2-.57-.34-.89-.46-7.9-7.39-32.17,2.29-55.07,22.2C10.72,103.32-2.26,126.1,4.12,134.88c.05.11.05.24.11.35,2.17,4.23,7.48,11.7,15.98,22.38,8.53,10.68,17.83,21.4,27.94,32.17,2.08,2.2,4.16,4.38,6.21,6.43,1.18,1.46,2.43,2.95,3.73,4.4,7.69,8.66,15.86,15.71,24.53,21.1.14.09.26.18.4.24,6.5,4.61,11.27,6.37,14.3,5.24,1.27-.48,2.66-1.04,4.1-1.76.52-.27,1.01-.57,1.5-.92,5.98-4.35,16.99-13.81,33.06-28.36,8.47-7.71,17.05-15.69,25.72-23.96,7.72-7.32,15.52-14.88,23.38-22.68,16.67-16.52,31.38-31.97,44.1-46.4,12.74-14.41,18.84-23.57,18.26-27.53-1.21-9.17-8.21-20.69-20.98-34.61Z"/>
</svg>