<?xml version="1.0" encoding="UTF-8"?>
<svg id="Calque_1" data-name="Calque 1" xmlns="http://www.w3.org/2000/svg" viewBox="0 0 250 250">
  <defs>
    <style>
      .cls-1 {
        fill: #1d1d1b;
      }
    </style>
  </defs>
  <path class="cls-1" d="m125,2.5C57.34,2.5,2.5,57.34,2.5,125s54.84,122.5,122.5,122.5,122.5-54.84,122.5-122.5S192.66,2.5,125,2.5Zm6.26,211.03c-49.88,0-90.32-40.44-90.32-90.32s40.43-90.32,90.32-90.32,90.31,40.44,90.31,90.32-40.43,90.32-90.31,90.32Z"/>
  <path class="cls-1" d="m204.83,110.25c-3.66-9.65-6.7-14.59-9.15-14.82-1.48-.63-5.52.12-12.15,2.25-6.63,2.13-14.1,4.94-22.41,8.39-2.55,1.07-5.11,2.16-7.66,3.3-1.75.77-3.5,1.56-5.25,2.37-.94-3.15-1.91-6.33-2.91-9.54-3.85-12.32-7.66-23.41-11.49-33.27-3.81-9.87-6.74-15.16-8.82-15.88-4.78-1.73-12.18-1.23-22.21,1.48-10.04,2.72-15.32,5.66-15.84,8.83-.81,1.8-.54,7.27.78,16.42,1.32,9.15,3.22,19.57,5.67,31.21.76,3.58,1.54,7.17,2.37,10.77,1.85,8.14,3.86,16.32,6.02,24.55,3.15,11.89,6.08,21.55,8.83,28.99,1,2.58,4.3,3.91,9.88,4.01,4.64.08,9.48-.4,14.53-1.47,1.01-.21,2.05-.44,3.09-.71,6.17-1.56,11.69-3.77,16.51-6.64.08-.05.15-.08.22-.14,2.84-1.71,4.73-3.5,5.67-5.37,1.19-.63,2.39-1.26,3.59-1.91,3.94-2.1,7.94-4.31,11.99-6.63,8.59-4.9,16.26-9.66,23.01-14.33,6.76-4.64,10.24-8.01,10.45-10.12.52-4.87-1.05-12.11-4.69-21.76Z"/>
</svg>