<?xml version="1.0" encoding="UTF-8"?>
<svg id="Calque_1" data-name="Calque 1" xmlns="http://www.w3.org/2000/svg" viewBox="0 0 250 250">
  <defs>
    <style>
      .cls-1 {
        fill: #1d1d1b;
      }
    </style>
  </defs>
  <path class="cls-1" d="m236.41,91.83c-6.15-5.89-14.07-5.01-23.77,2.51-1.16.91-2.34,1.73-3.54,2.48-7.48-14.21-17.62-30.44-30.48-48.77C154.36,13.66,130.77-1.25,107.82,3.3c-10.61,2.32-15.3,11.33-14.23,26.93,1.18,15.58-4.7,28.99-17.54,40.21-3.15,1.9-6.08,3.9-8.91,5.93-7.81-1.86-14.59-5.85-20.29-12.06-9.46-10.14-18.14-12.55-26.07-7.09C3.93,69.33-.7,93.65,6.89,130.18c7.67,36.48,16.36,62.4,26.12,77.84,4.04,6.24,8.4,11.73,13.07,16.49,6.04,6.15,16.17-.6,12.91-8.58-.78-1.91-1.56-3.88-2.35-5.93-7.12-18.62-6.75-31.84,1.1-39.66,3.71-3.56,8.5-3.03,14.35,1.52.7.55,1.42,1.05,2.15,1.51,4.52-8.58,10.61-18.37,18.38-29.45,14.64-20.75,28.88-29.76,42.73-27.01,6.4,1.4,9.24,6.84,8.59,16.26-.71,9.4,2.84,17.5,10.59,24.27.02.01.04.02.06.03,4.3,2.61,9.74,2.61,13.81-.35,1.33-.97,2.59-2.1,3.77-3.38,5.71-6.12,10.95-7.58,15.74-4.28,10.17,7.31,12.96,21.99,8.38,44.04-1.59,7.63-3.59,14.81-5.65,21.17-2.57,7.96,7.56,13.94,13.22,7.77.18-.2.36-.4.54-.6,10.71-12.11,21.96-33.53,33.81-64.31,11.79-30.84,11.18-52.74-1.82-65.7Z"/>
  <path class="cls-1" d="m153.19,200.66c-2.29-10.27-6.29-15.98-12.03-17.14-2.67-.48-4.62,1.14-5.88,4.84-.34,1.02-.8,1.95-1.37,2.78-1.18,1.73-3.32,2.44-5.4,2.18,0,0-.02,0-.03,0-4.6-1.4-7.67-4.16-9.17-8.3-1.53-4.13-3.79-5.9-6.78-5.27-6.43,1.49-10.76,8.06-13.01,19.71-2.21,11.64-2.84,20.31-1.86,26.04,1.5,8.24,5.3,14.23,11.35,18.06s13,4.88,20.86,3.13c2.29-.52,4.41-1.26,6.37-2.18s4.17-1.71,6.23-2.62c1.18-.52,2.32-1.15,3.43-1.89,5.27-3.54,8.48-8.95,9.6-16.3.72-5.1-.06-12.77-2.31-23.04Z"/>
</svg>