<?xml version="1.0" encoding="UTF-8"?>
<svg id="Calque_1" data-name="Calque 1" xmlns="http://www.w3.org/2000/svg" viewBox="0 0 250 250">
  <defs>
    <style>
      .cls-1 {
        fill: #1d1d1b;
      }
    </style>
  </defs>
  <path class="cls-1" d="m193.82,24.01c-7.24-4.98-15.58-9.41-25.04-13.26-9.44-3.85-18.59-6.43-27.42-7.73-8.83-1.33-14.33-.12-16.56,3.65-2.69,4.63-7.06,14.16-13.11,28.57-6.02,14.42-11.9,29.59-17.57,45.51-5.67,15.92-10.34,30.6-13.92,43.98-3.59,13.4-4.34,21.39-2.23,23.94,4.75,5.96,14.88,11.96,30.43,18.01,15.55,6.05,25.01,7.67,28.46,4.89,2.61-1.1,7.03-6.92,13.26-17.4,6.25-10.48,12.82-22.75,19.77-36.77,6.92-14.04,13.49-28.49,19.74-43.34,6.22-14.88,10.77-27.3,13.66-37.26.93-3.53-2.23-7.79-9.47-12.8Z"/>
  <path class="cls-1" d="m118.46,229.41c-5.41,7.96-13.09,13.49-23.02,16.59-9.9,3.13-20.03,1.36-30.43-5.24-7.41-4.72-12.71-11.12-15.86-19.14-3.16-8.05-3.45-16.3-.84-24.75,3.5-11.96,11.32-20.21,23.48-24.69,12.19-4.52,23.54-3.36,34.07,3.42,11.67,7.53,18.04,16.39,19.11,26.61,1.1,10.22-1.07,19.28-6.51,27.21Z"/>
</svg>